<svg width="87" height="111" viewBox="0 0 87 111" fill="none" xmlns="http://www.w3.org/2000/svg">
<g clip-path="url(#clip0_1032_1252)">
<path d="M36.7586 69.5986C30.624 68.3461 24.9077 65.4932 20.4462 61.5268C8.94382 51.3327 5.35369 35.2936 11.4534 20.994C12.9522 17.48 15.3921 13.9312 18.3897 10.8347L21.0387 8.1209L21.213 24.0557C21.3873 39.3295 21.4221 40.0949 22.1541 42.0084C23.618 45.8704 25.1517 48.3058 27.8356 50.95C34.737 57.8041 44.8451 59.5089 53.4544 55.2991C61.5409 51.3328 66.6299 42.6695 66.0373 33.9019C65.6539 28.022 63.6671 23.7078 59.3799 19.4283C56.1383 16.1927 52.3391 14.0704 48.2261 13.2006C44.0086 12.3307 44.2177 12.1916 44.2177 15.7404V18.8021L46.5182 19.2196C55.4412 20.8548 61.3667 29.6224 59.5193 38.4596C58.9268 41.2778 57.6023 43.7829 55.4761 46.0791C52.2345 49.5584 47.6684 51.2284 43.6949 51.2284C37.1072 51.2284 31.6348 47.4708 28.9509 41.9737C28.9509 41.9737 28.2538 40.408 28.0447 39.4338C26.7202 33.6931 27.5567 21.655 27.5567 21.655L27.4522 4.01543L28.4978 3.49355C29.0555 3.18042 29.6132 2.97166 29.7178 2.97166C29.8223 2.97166 29.9269 11.0782 29.9966 20.994C29.9966 20.994 28.7418 33.9715 30.3103 38.9467C30.5194 39.6774 30.9726 40.8951 30.9726 40.8951C32.3319 43.6785 34.5278 46.1487 37.386 47.5056C39.547 48.5146 40.6624 49.0017 43.8691 49.0017C45.9605 49.0017 47.8078 48.3406 49.9689 47.3664C52.4785 46.2183 55.3715 43.1566 56.452 40.3384C59.3799 32.6146 55.3018 24.334 47.3896 22.003C44.148 21.0636 44.2177 20.994 44.2177 24.508V27.5697L45.7513 27.9872C51.3282 29.4833 53.0362 36.9636 48.6444 40.7907C47.1107 42.1476 45.7165 42.7391 43.2766 42.7391C40.6624 42.7391 38.1528 41.1734 36.8632 38.738C36.0963 37.2767 36.0266 35.9198 36.0266 35.2936C36.0266 29.4833 35.8872 18.976 35.8872 18.976L35.7826 0.988512L36.5843 0.779757C37.0374 0.675381 38.8151 0.397045 40.5579 0.188292C46.4485 -0.577135 55.1624 1.37122 61.0181 4.71127C69 9.26904 75.0301 17.0973 77.5397 26.1432C78.4111 29.2397 78.5156 30.1791 78.5156 35.1544C78.5156 40.1297 78.4111 41.0691 77.5745 44.1308C74.1587 56.4472 65.4448 65.2148 53.0013 68.9724C50.3871 69.7726 49.1672 69.9118 44.5314 70.0161C40.8018 70.0509 38.3968 69.9465 36.7586 69.5986Z" fill="#C60C30"/>
</g>
<path d="M12.2312 106V93.508H13.9052V106H12.2312ZM9.67519 95.02V93.508H13.7252V95.02H9.67519ZM22.5034 106.18C21.6034 106.18 20.7694 106.018 20.0014 105.694C19.2334 105.358 18.5614 104.896 17.9854 104.308C17.4214 103.72 16.9834 103.036 16.6714 102.256C16.3594 101.476 16.2034 100.642 16.2034 99.754C16.2034 98.854 16.3594 98.014 16.6714 97.234C16.9834 96.454 17.4214 95.776 17.9854 95.2C18.5614 94.612 19.2274 94.156 19.9834 93.832C20.7514 93.496 21.5854 93.328 22.4854 93.328C23.4694 93.328 24.3334 93.496 25.0774 93.832C25.8214 94.168 26.4814 94.624 27.0574 95.2L25.8874 96.37C25.4914 95.926 25.0054 95.578 24.4294 95.326C23.8654 95.074 23.2174 94.948 22.4854 94.948C21.8254 94.948 21.2194 95.068 20.6674 95.308C20.1154 95.536 19.6354 95.866 19.2274 96.298C18.8194 96.73 18.5014 97.24 18.2734 97.828C18.0574 98.416 17.9494 99.058 17.9494 99.754C17.9494 100.45 18.0574 101.092 18.2734 101.68C18.5014 102.268 18.8194 102.778 19.2274 103.21C19.6354 103.642 20.1154 103.978 20.6674 104.218C21.2194 104.446 21.8254 104.56 22.4854 104.56C23.2654 104.56 23.9434 104.434 24.5194 104.182C25.0954 103.918 25.5814 103.564 25.9774 103.12L27.1474 104.272C26.5714 104.872 25.8934 105.34 25.1134 105.676C24.3454 106.012 23.4754 106.18 22.5034 106.18ZM28.5864 102.184V100.654H34.5084V102.184H28.5864ZM38.3053 106V104.524H42.0853C42.8053 104.524 43.3693 104.314 43.7773 103.894C44.1853 103.462 44.3893 102.946 44.3893 102.346C44.3893 101.938 44.2993 101.572 44.1193 101.248C43.9393 100.912 43.6753 100.648 43.3273 100.456C42.9913 100.264 42.5953 100.168 42.1393 100.168H38.3053V98.692H41.8873C42.4873 98.692 42.9613 98.536 43.3093 98.224C43.6693 97.9 43.8493 97.438 43.8493 96.838C43.8493 96.238 43.6633 95.782 43.2913 95.47C42.9193 95.146 42.4273 94.984 41.8153 94.984H38.3053V93.508H41.8513C42.6673 93.508 43.3453 93.658 43.8853 93.958C44.4373 94.246 44.8513 94.63 45.1273 95.11C45.4153 95.59 45.5593 96.118 45.5593 96.694C45.5593 97.366 45.3733 97.954 45.0013 98.458C44.6413 98.962 44.1073 99.358 43.3993 99.646L43.5433 99.106C44.3473 99.394 44.9713 99.832 45.4153 100.42C45.8713 100.996 46.0993 101.68 46.0993 102.472C46.0993 103.132 45.9373 103.726 45.6133 104.254C45.2893 104.782 44.8213 105.208 44.2093 105.532C43.6093 105.844 42.8713 106 41.9953 106H38.3053ZM37.1713 106V93.508H38.8633V106H37.1713ZM48.1162 106V97.45H49.7362V106H48.1162ZM48.9262 95.74C48.6262 95.74 48.3802 95.644 48.1882 95.452C47.9962 95.248 47.9002 94.996 47.9002 94.696C47.9002 94.408 47.9962 94.168 48.1882 93.976C48.3802 93.772 48.6262 93.67 48.9262 93.67C49.2262 93.67 49.4722 93.772 49.6642 93.976C49.8562 94.168 49.9522 94.408 49.9522 94.696C49.9522 94.996 49.8562 95.248 49.6642 95.452C49.4722 95.644 49.2262 95.74 48.9262 95.74ZM53.4375 106V93.868H55.0575V106H53.4375ZM51.3315 98.926V97.45H57.1635V98.926H51.3315ZM58.7505 106V97.45H60.3705V106H58.7505ZM60.3705 101.122L59.7585 100.852C59.7585 99.76 60.0105 98.89 60.5145 98.242C61.0185 97.594 61.7445 97.27 62.6925 97.27C63.1245 97.27 63.5145 97.348 63.8625 97.504C64.2105 97.648 64.5345 97.894 64.8345 98.242L63.7725 99.34C63.5925 99.148 63.3945 99.01 63.1785 98.926C62.9625 98.842 62.7105 98.8 62.4225 98.8C61.8225 98.8 61.3305 98.992 60.9465 99.376C60.5625 99.76 60.3705 100.342 60.3705 101.122ZM65.9931 106V97.45H67.6131V106H65.9931ZM66.8031 95.74C66.5031 95.74 66.2571 95.644 66.0651 95.452C65.8731 95.248 65.7771 94.996 65.7771 94.696C65.7771 94.408 65.8731 94.168 66.0651 93.976C66.2571 93.772 66.5031 93.67 66.8031 93.67C67.1031 93.67 67.3491 93.772 67.5411 93.976C67.7331 94.168 67.8291 94.408 67.8291 94.696C67.8291 94.996 67.7331 95.248 67.5411 95.452C67.3491 95.644 67.1031 95.74 66.8031 95.74ZM75.6165 106L72.9525 102.256L72.6465 101.968L69.2805 97.45H71.2425L73.6725 100.78L73.9785 101.032L77.5785 106H75.6165ZM69.1185 106L72.6465 101.248L73.5645 102.436L71.0265 106H69.1185ZM74.1045 101.95L73.1685 100.798L75.5265 97.45H77.4165L74.1045 101.95Z" fill="black"/>
<defs>
<clipPath id="clip0_1032_1252">
<rect width="70" height="70" fill="white" transform="translate(8.5)"/>
</clipPath>
</defs>
</svg>
