<svg width="65" height="65" viewBox="0 0 65 65" fill="none" xmlns="http://www.w3.org/2000/svg">
<circle cx="32.5" cy="32.5" r="32.5" fill="#EE2F5E"/>
<path d="M50.4154 24.5272C50.4154 25.7097 49.4479 26.6772 48.2654 26.6772H16.732C15.5495 26.6772 14.582 25.7097 14.582 24.5272V24.5093C14.582 20.4064 17.8966 17.0918 21.9995 17.0918H42.9799C47.0829 17.0918 50.4154 20.4243 50.4154 24.5272Z" fill="white"/>
<path d="M14.582 31.5147V40.491C14.582 44.5939 17.8966 47.9085 21.9995 47.9085H42.9799C47.0829 47.9085 50.4154 44.576 50.4154 40.4731V31.5147C50.4154 30.3322 49.4479 29.3647 48.2654 29.3647H16.732C15.5495 29.3647 14.582 30.3322 14.582 31.5147ZM25.332 41.9064H21.7487C21.0141 41.9064 20.4049 41.2972 20.4049 40.5627C20.4049 39.8281 21.0141 39.2189 21.7487 39.2189H25.332C26.0666 39.2189 26.6758 39.8281 26.6758 40.5627C26.6758 41.2972 26.0666 41.9064 25.332 41.9064ZM36.9779 41.9064H29.8112C29.0766 41.9064 28.4674 41.2972 28.4674 40.5627C28.4674 39.8281 29.0766 39.2189 29.8112 39.2189H36.9779C37.7124 39.2189 38.3216 39.8281 38.3216 40.5627C38.3216 41.2972 37.7124 41.9064 36.9779 41.9064Z" fill="white"/>
</svg>
