<svg width="90" height="90" viewBox="0 0 90 90" fill="none" xmlns="http://www.w3.org/2000/svg">
<rect width="90" height="90" rx="45" fill="#EE2F5E"/>
<path d="M64.2721 46.5623C65.1471 46.5623 65.8346 45.854 65.8346 44.9998C65.8346 44.1248 65.1471 43.4373 64.2721 43.4373H61.668V38.854H64.2721C65.1471 38.854 65.8346 38.1665 65.8346 37.2915C65.8346 36.4373 65.1471 35.729 64.2721 35.729H61.1888C60.1888 32.4165 57.5846 29.8123 54.2721 28.8123V25.729C54.2721 24.8748 53.5638 24.1665 52.7096 24.1665C51.8555 24.1665 51.1471 24.8748 51.1471 25.729V28.3332H46.5638V25.729C46.5638 24.8748 45.8555 24.1665 45.0013 24.1665C44.1471 24.1665 43.4388 24.8748 43.4388 25.729V28.3332H38.8763V25.729C38.8763 24.8748 38.168 24.1665 37.3138 24.1665C36.4388 24.1665 35.7513 24.8748 35.7513 25.729V28.8123C32.418 29.8123 29.8138 32.4165 28.8138 35.729H25.7305C24.8763 35.729 24.168 36.4373 24.168 37.2915C24.168 38.1665 24.8763 38.854 25.7305 38.854H28.3346V43.4373H25.7305C24.8763 43.4373 24.168 44.1248 24.168 44.9998C24.168 45.854 24.8763 46.5623 25.7305 46.5623H28.3346V51.1457H25.7305C24.8763 51.1457 24.168 51.8332 24.168 52.7082C24.168 53.5623 24.8763 54.2707 25.7305 54.2707H28.8138C29.793 57.5832 32.418 60.1873 35.7513 61.1873V64.2707C35.7513 65.1248 36.4388 65.8332 37.3138 65.8332C38.168 65.8332 38.8763 65.1248 38.8763 64.2707V61.6665H43.4596V64.2707C43.4596 65.1248 44.1471 65.8332 45.0221 65.8332C45.8763 65.8332 46.5846 65.1248 46.5846 64.2707V61.6665H51.1471V64.2707C51.1471 65.1248 51.8555 65.8332 52.7096 65.8332C53.5638 65.8332 54.2721 65.1248 54.2721 64.2707V61.1873C57.5846 60.1873 60.1888 57.5832 61.1888 54.2707H64.2721C65.1471 54.2707 65.8346 53.5623 65.8346 52.7082C65.8346 51.8332 65.1471 51.1457 64.2721 51.1457H61.668V46.5623H64.2721ZM55.9596 49.7082C55.9596 53.1457 53.1471 55.9582 49.7096 55.9582H40.293C36.8555 55.9582 34.043 53.1457 34.043 49.7082V40.2915C34.043 36.854 36.8555 34.0415 40.293 34.0415H49.7096C53.1471 34.0415 55.9596 36.854 55.9596 40.2915V49.7082Z" fill="white"/>
<path d="M40.8737 53.8542H49.1445C51.7487 53.8542 53.8737 51.75 53.8737 49.125V40.8542C53.8737 38.25 51.7695 36.125 49.1445 36.125H40.8737C38.2695 36.125 36.1445 38.2292 36.1445 40.8542V49.125C36.1445 51.75 38.2487 53.8542 40.8737 53.8542Z" fill="white"/>
</svg>
