<svg width="90" height="90" viewBox="0 0 90 90" fill="none" xmlns="http://www.w3.org/2000/svg">
<rect width="90" height="90" rx="45" fill="#EE2F5E"/>
<path d="M34.5846 36.6665H28.3346C26.043 36.6665 24.168 34.7915 24.168 32.4998V28.3332C24.168 26.0415 26.043 24.1665 28.3346 24.1665H34.5846C36.8763 24.1665 38.7513 26.0415 38.7513 28.3332V32.4998C38.7513 34.7915 36.8763 36.6665 34.5846 36.6665Z" fill="white"/>
<path d="M63.332 34.5833H55.832C54.457 34.5833 53.332 33.4583 53.332 32.0833V28.75C53.332 27.375 54.457 26.25 55.832 26.25H63.332C64.707 26.25 65.832 27.375 65.832 28.75V32.0833C65.832 33.4583 64.707 34.5833 63.332 34.5833Z" fill="white"/>
<path d="M63.332 50.2083H55.832C54.457 50.2083 53.332 49.0833 53.332 47.7083V44.375C53.332 43 54.457 41.875 55.832 41.875H63.332C64.707 41.875 65.832 43 65.832 44.375V47.7083C65.832 49.0833 64.707 50.2083 63.332 50.2083Z" fill="white"/>
<path opacity="0.96" d="M53.3333 47.604C54.1875 47.604 54.8958 46.8957 54.8958 46.0415C54.8958 45.1873 54.1875 44.479 53.3333 44.479H47.6042V31.979H53.3333C54.1875 31.979 54.8958 31.2707 54.8958 30.4165C54.8958 29.5623 54.1875 28.854 53.3333 28.854H38.75C37.8958 28.854 37.1875 29.5623 37.1875 30.4165C37.1875 31.2707 37.8958 31.979 38.75 31.979H44.4792V57.4998C44.4792 60.6665 47.0417 63.229 50.2083 63.229H53.3333C54.1875 63.229 54.8958 62.5207 54.8958 61.6665C54.8958 60.8123 54.1875 60.104 53.3333 60.104H50.2083C48.7708 60.104 47.6042 58.9373 47.6042 57.4998V47.604H53.3333Z" fill="white"/>
<path d="M63.332 65.8333H55.832C54.457 65.8333 53.332 64.7083 53.332 63.3333V60C53.332 58.625 54.457 57.5 55.832 57.5H63.332C64.707 57.5 65.832 58.625 65.832 60V63.3333C65.832 64.7083 64.707 65.8333 63.332 65.8333Z" fill="white"/>
</svg>
