<svg width="87" height="111" viewBox="0 0 87 111" fill="none" xmlns="http://www.w3.org/2000/svg">
<g clip-path="url(#clip0_1032_1282)">
<path d="M40.6606 0H52.1071V52.4286C46.244 53.5369 41.9278 53.9729 37.2577 53.9729C23.2774 53.9583 16 47.7167 16 35.7292C16 24.1792 23.7193 16.6833 35.6814 16.6833C37.5377 16.6833 38.9518 16.8293 40.6606 17.2666V0ZM41.0617 26.7149C39.7211 26.2773 38.6164 26.1315 37.2021 26.1315C31.4127 26.1315 28.0686 29.6606 28.0686 35.8453C28.0686 41.8669 31.2655 45.1918 37.1286 45.1918C38.3953 45.1918 39.4266 45.1205 41.0617 44.9017V26.7149Z" fill="#2BA977"/>
<path d="M70.826 18.0909V44.3411C70.826 53.3812 70.1484 57.7285 68.1595 61.4766C66.3033 65.0799 63.8579 67.3521 58.805 69.8618L48.1836 64.8599C53.2365 62.5132 55.6819 60.4396 57.2436 57.2751C58.8785 54.0391 59.3941 50.291 59.3941 40.4327V18.0911L70.826 18.0909ZM58.2406 0H69.6871V11.623H58.2406V0Z" fill="#2BA977"/>
</g>
<path d="M16.8772 106V104.452H20.3512C21.2752 104.452 22.0852 104.254 22.7812 103.858C23.4772 103.45 24.0172 102.892 24.4012 102.184C24.7972 101.476 24.9952 100.66 24.9952 99.736C24.9952 98.824 24.7972 98.014 24.4012 97.306C24.0052 96.598 23.4592 96.046 22.7632 95.65C22.0672 95.254 21.2632 95.056 20.3512 95.056H16.8952V93.508H20.3872C21.2992 93.508 22.1392 93.664 22.9072 93.976C23.6872 94.288 24.3592 94.726 24.9232 95.29C25.4992 95.854 25.9432 96.514 26.2552 97.27C26.5792 98.026 26.7412 98.854 26.7412 99.754C26.7412 100.642 26.5792 101.47 26.2552 102.238C25.9432 102.994 25.5052 103.654 24.9412 104.218C24.3772 104.782 23.7052 105.22 22.9252 105.532C22.1572 105.844 21.3232 106 20.4232 106H16.8772ZM15.7612 106V93.508H17.4532V106H15.7612ZM27.7174 109.762C27.1654 109.762 26.7034 109.672 26.3314 109.492C25.9474 109.312 25.6054 109.054 25.3054 108.718L26.3494 107.656C26.5174 107.86 26.7034 108.01 26.9074 108.106C27.0994 108.202 27.3334 108.25 27.6094 108.25C27.9694 108.25 28.2814 108.136 28.5454 107.908C28.8094 107.692 28.9414 107.362 28.9414 106.918V97.45H30.5614V106.9C30.5614 107.524 30.4294 108.046 30.1654 108.466C29.9014 108.886 29.5534 109.204 29.1214 109.42C28.6894 109.648 28.2214 109.762 27.7174 109.762ZM29.7694 95.74C29.4814 95.74 29.2414 95.644 29.0494 95.452C28.8574 95.248 28.7614 94.996 28.7614 94.696C28.7614 94.408 28.8574 94.168 29.0494 93.976C29.2414 93.772 29.4814 93.67 29.7694 93.67C30.0694 93.67 30.3154 93.772 30.5074 93.976C30.6994 94.168 30.7954 94.408 30.7954 94.696C30.7954 94.996 30.6994 95.248 30.5074 95.452C30.3154 95.644 30.0694 95.74 29.7694 95.74ZM36.5818 106.18C35.8018 106.18 35.0938 105.988 34.4578 105.604C33.8218 105.208 33.3178 104.674 32.9458 104.002C32.5858 103.33 32.4058 102.574 32.4058 101.734C32.4058 100.894 32.5858 100.138 32.9458 99.466C33.3178 98.794 33.8158 98.26 34.4398 97.864C35.0758 97.468 35.7898 97.27 36.5818 97.27C37.2298 97.27 37.8058 97.408 38.3098 97.684C38.8258 97.948 39.2398 98.32 39.5518 98.8C39.8638 99.268 40.0378 99.814 40.0738 100.438V103.012C40.0378 103.624 39.8638 104.17 39.5518 104.65C39.2518 105.13 38.8438 105.508 38.3278 105.784C37.8238 106.048 37.2418 106.18 36.5818 106.18ZM36.8518 104.65C37.6558 104.65 38.3038 104.38 38.7958 103.84C39.2878 103.288 39.5338 102.586 39.5338 101.734C39.5338 101.146 39.4198 100.636 39.1918 100.204C38.9758 99.76 38.6638 99.418 38.2558 99.178C37.8478 98.926 37.3738 98.8 36.8338 98.8C36.2938 98.8 35.8138 98.926 35.3938 99.178C34.9858 99.43 34.6618 99.778 34.4218 100.222C34.1938 100.654 34.0798 101.152 34.0798 101.716C34.0798 102.292 34.1938 102.802 34.4218 103.246C34.6618 103.678 34.9918 104.02 35.4118 104.272C35.8318 104.524 36.3118 104.65 36.8518 104.65ZM39.4258 106V103.696L39.7318 101.608L39.4258 99.538V97.45H41.0638V106H39.4258ZM49.4704 106V101.014C49.4704 100.366 49.2664 99.832 48.8584 99.412C48.4504 98.992 47.9224 98.782 47.2744 98.782C46.8424 98.782 46.4584 98.878 46.1224 99.07C45.7864 99.262 45.5224 99.526 45.3304 99.862C45.1384 100.198 45.0424 100.582 45.0424 101.014L44.3764 100.636C44.3764 99.988 44.5204 99.412 44.8084 98.908C45.0964 98.404 45.4984 98.008 46.0144 97.72C46.5304 97.42 47.1124 97.27 47.7604 97.27C48.4084 97.27 48.9784 97.432 49.4704 97.756C49.9744 98.08 50.3704 98.506 50.6584 99.034C50.9464 99.55 51.0904 100.102 51.0904 100.69V106H49.4704ZM43.4224 106V97.45H45.0424V106H43.4224ZM56.8297 109.762C55.9537 109.762 55.1737 109.6 54.4897 109.276C53.8177 108.952 53.2777 108.496 52.8697 107.908L53.9137 106.846C54.2617 107.29 54.6757 107.626 55.1557 107.854C55.6357 108.094 56.2057 108.214 56.8657 108.214C57.7417 108.214 58.4317 107.98 58.9357 107.512C59.4517 107.056 59.7097 106.438 59.7097 105.658V103.534L59.9977 101.608L59.7097 99.7V97.45H61.3297V105.658C61.3297 106.474 61.1377 107.188 60.7537 107.8C60.3817 108.412 59.8537 108.892 59.1697 109.24C58.4977 109.588 57.7177 109.762 56.8297 109.762ZM56.8297 105.856C56.0497 105.856 55.3477 105.67 54.7237 105.298C54.1117 104.926 53.6257 104.416 53.2657 103.768C52.9057 103.108 52.7257 102.37 52.7257 101.554C52.7257 100.738 52.9057 100.012 53.2657 99.376C53.6257 98.728 54.1117 98.218 54.7237 97.846C55.3477 97.462 56.0497 97.27 56.8297 97.27C57.5017 97.27 58.0957 97.402 58.6117 97.666C59.1277 97.93 59.5357 98.302 59.8357 98.782C60.1477 99.25 60.3157 99.802 60.3397 100.438V102.706C60.3037 103.33 60.1297 103.882 59.8177 104.362C59.5177 104.83 59.1097 105.196 58.5937 105.46C58.0777 105.724 57.4897 105.856 56.8297 105.856ZM57.1537 104.326C57.6817 104.326 58.1437 104.212 58.5397 103.984C58.9477 103.756 59.2597 103.438 59.4757 103.03C59.6917 102.61 59.7997 102.124 59.7997 101.572C59.7997 101.02 59.6857 100.54 59.4577 100.132C59.2417 99.712 58.9357 99.388 58.5397 99.16C58.1437 98.92 57.6757 98.8 57.1357 98.8C56.5957 98.8 56.1217 98.92 55.7137 99.16C55.3057 99.388 54.9817 99.712 54.7417 100.132C54.5137 100.54 54.3997 101.014 54.3997 101.554C54.3997 102.094 54.5137 102.574 54.7417 102.994C54.9817 103.414 55.3057 103.744 55.7137 103.984C56.1337 104.212 56.6137 104.326 57.1537 104.326ZM67.6135 106.18C66.7735 106.18 66.0175 105.982 65.3455 105.586C64.6735 105.19 64.1395 104.656 63.7435 103.984C63.3475 103.3 63.1495 102.538 63.1495 101.698C63.1495 100.87 63.3475 100.126 63.7435 99.466C64.1395 98.794 64.6735 98.26 65.3455 97.864C66.0175 97.468 66.7735 97.27 67.6135 97.27C68.4415 97.27 69.1915 97.468 69.8635 97.864C70.5475 98.248 71.0875 98.776 71.4835 99.448C71.8795 100.12 72.0775 100.87 72.0775 101.698C72.0775 102.538 71.8795 103.3 71.4835 103.984C71.0875 104.656 70.5475 105.19 69.8635 105.586C69.1915 105.982 68.4415 106.18 67.6135 106.18ZM67.6135 104.614C68.1535 104.614 68.6335 104.488 69.0535 104.236C69.4735 103.984 69.8035 103.642 70.0435 103.21C70.2835 102.766 70.4035 102.262 70.4035 101.698C70.4035 101.146 70.2775 100.654 70.0255 100.222C69.7855 99.79 69.4555 99.454 69.0355 99.214C68.6275 98.962 68.1535 98.836 67.6135 98.836C67.0735 98.836 66.5935 98.962 66.1735 99.214C65.7535 99.454 65.4235 99.79 65.1835 100.222C64.9435 100.654 64.8235 101.146 64.8235 101.698C64.8235 102.262 64.9435 102.766 65.1835 103.21C65.4235 103.642 65.7535 103.984 66.1735 104.236C66.5935 104.488 67.0735 104.614 67.6135 104.614Z" fill="black"/>
<defs>
<clipPath id="clip0_1032_1282">
<rect width="55" height="70" fill="white" transform="translate(16)"/>
</clipPath>
</defs>
</svg>
