<svg width="87" height="72" viewBox="0 0 87 72" fill="none" xmlns="http://www.w3.org/2000/svg">
<g clip-path="url(#clip0_1032_1296)">
<path fill-rule="evenodd" clip-rule="evenodd" d="M21.0469 19.9679H21.5111V19.734C21.5111 19.5562 21.533 19.4121 21.5767 19.3015C21.6204 19.1909 21.6786 19.1057 21.7514 19.0458C21.8243 18.986 21.9071 18.9461 22 18.9261C22.0928 18.9062 22.1902 18.8962 22.2922 18.8962C22.4924 18.8962 22.6381 18.9089 22.7291 18.9343V19.4184C22.6891 19.4076 22.6463 19.3994 22.6008 19.394C22.5552 19.3885 22.5015 19.3858 22.4396 19.3858C22.3559 19.3858 22.284 19.4057 22.2239 19.4456C22.1638 19.4855 22.1338 19.5635 22.1338 19.6796V19.9679H22.6636V20.4303H22.1338V22.7803H21.5111V20.4303H21.0469V19.9679ZM24.2439 22.3668C24.3823 22.3668 24.5025 22.3378 24.6044 22.2798C24.7064 22.2218 24.7901 22.1456 24.8557 22.0513C24.9212 21.957 24.9694 21.851 25.0004 21.7331C25.0313 21.6152 25.0468 21.4946 25.0468 21.3713C25.0468 21.2517 25.0313 21.132 25.0004 21.0123C24.9694 20.8926 24.9212 20.7866 24.8557 20.6941C24.7901 20.6016 24.7064 20.5264 24.6044 20.4683C24.5025 20.4103 24.3823 20.3813 24.2439 20.3813C24.1056 20.3813 23.9854 20.4103 23.8835 20.4683C23.7815 20.5264 23.6978 20.6016 23.6322 20.6941C23.5667 20.7866 23.5184 20.8926 23.4875 21.0123C23.4565 21.132 23.4411 21.2517 23.4411 21.3713C23.4411 21.4946 23.4565 21.6152 23.4875 21.7331C23.5184 21.851 23.5667 21.957 23.6322 22.0513C23.6978 22.1456 23.7815 22.2218 23.8835 22.2798C23.9854 22.3378 24.1056 22.3668 24.2439 22.3668ZM24.2439 22.8564C24.0182 22.8564 23.817 22.8192 23.6404 22.7449C23.4638 22.6706 23.3145 22.5681 23.1925 22.4375C23.0706 22.307 22.9777 22.1511 22.914 21.9697C22.8503 21.7884 22.8184 21.5889 22.8184 21.3713C22.8184 21.1574 22.8503 20.9597 22.914 20.7784C22.9777 20.5971 23.0706 20.4411 23.1925 20.3106C23.3145 20.18 23.4638 20.0776 23.6404 20.0032C23.817 19.9289 24.0182 19.8917 24.2439 19.8917C24.4697 19.8917 24.6709 19.9289 24.8475 20.0032C25.0241 20.0776 25.1733 20.18 25.2953 20.3106C25.4173 20.4411 25.5102 20.5971 25.5739 20.7784C25.6376 20.9597 25.6695 21.1574 25.6695 21.3713C25.6695 21.5889 25.6376 21.7884 25.5739 21.9697C25.5102 22.1511 25.4173 22.307 25.2953 22.4375C25.1733 22.5681 25.0241 22.6706 24.8475 22.7449C24.6709 22.8192 24.4697 22.8564 24.2439 22.8564ZM26.0919 19.9679H26.6763V20.5118H26.6873C26.7055 20.4357 26.741 20.3613 26.7938 20.2888C26.8466 20.2163 26.9103 20.1501 26.9849 20.0903C27.0596 20.0304 27.1424 19.9824 27.2334 19.9461C27.3245 19.9098 27.4173 19.8917 27.512 19.8917C27.5848 19.8917 27.6349 19.8935 27.6622 19.8971C27.6895 19.9008 27.7177 19.9044 27.7468 19.908V20.5064C27.7032 20.4992 27.6586 20.4928 27.613 20.4874C27.5675 20.4819 27.5229 20.4792 27.4792 20.4792C27.3736 20.4792 27.2744 20.5001 27.1816 20.5418C27.0887 20.5835 27.0077 20.6451 26.9385 20.7267C26.8693 20.8083 26.8147 20.909 26.7747 21.0286C26.7346 21.1483 26.7146 21.2861 26.7146 21.4421V22.7803H26.0919V19.9679ZM30.3977 22.7803H29.786V22.3886H29.7751C29.6986 22.53 29.5848 22.6434 29.4337 22.7286C29.2826 22.8138 29.1288 22.8564 28.9722 22.8564C28.6008 22.8564 28.3323 22.7648 28.1666 22.5817C28.0009 22.3986 27.9181 22.122 27.9181 21.7521V19.9679H28.5407V21.6923C28.5407 21.9389 28.5881 22.113 28.6827 22.2145C28.7774 22.3161 28.9103 22.3668 29.0814 22.3668C29.2125 22.3668 29.3218 22.3469 29.4091 22.307C29.4965 22.2671 29.5675 22.2136 29.6222 22.1465C29.6768 22.0794 29.7159 21.9987 29.7396 21.9044C29.7633 21.8102 29.7751 21.7086 29.7751 21.5998V19.9679H30.3977V22.7803ZM30.9567 19.9679H31.5466V20.3595H31.563C31.6103 20.2906 31.6613 20.2272 31.7159 20.1691C31.7706 20.1111 31.8315 20.0622 31.8989 20.0223C31.9663 19.9824 32.0436 19.9506 32.131 19.9271C32.2184 19.9035 32.3185 19.8917 32.4314 19.8917C32.6026 19.8917 32.7619 19.9298 32.9093 20.0059C33.0568 20.0821 33.1615 20.2 33.2234 20.3595C33.329 20.2145 33.451 20.1002 33.5893 20.0168C33.7277 19.9334 33.9006 19.8917 34.1082 19.8917C34.4068 19.8917 34.6389 19.9642 34.8046 20.1093C34.9702 20.2544 35.0531 20.4973 35.0531 20.8382V22.7803H34.4304V21.1374C34.4304 21.025 34.4268 20.9226 34.4195 20.8301C34.4122 20.7376 34.3913 20.6578 34.3567 20.5907C34.3221 20.5236 34.2702 20.472 34.201 20.4357C34.1319 20.3994 34.0372 20.3813 33.917 20.3813C33.7058 20.3813 33.5529 20.4466 33.4582 20.5771C33.3636 20.7077 33.3162 20.8926 33.3162 21.132V22.7803H32.6936V20.9742C32.6936 20.7784 32.6581 20.6306 32.5871 20.5309C32.5161 20.4312 32.3859 20.3813 32.1966 20.3813C32.1165 20.3813 32.0391 20.3976 31.9644 20.4303C31.8898 20.4629 31.8243 20.51 31.7678 20.5717C31.7114 20.6333 31.6659 20.7095 31.6313 20.8002C31.5967 20.8908 31.5794 20.9942 31.5794 21.1102V22.7803H30.9567V19.9679ZM43.3148 21.7818C43.333 21.9631 43.4022 22.0901 43.5224 22.1626C43.6425 22.2351 43.7864 22.2714 43.9539 22.2714C44.0121 22.2714 44.0786 22.2669 44.1532 22.2578C44.2279 22.2487 44.298 22.2315 44.3635 22.2061C44.429 22.1807 44.4827 22.1436 44.5246 22.0946C44.5665 22.0456 44.5856 21.9813 44.582 21.9015C44.5783 21.8217 44.5492 21.7564 44.4946 21.7057C44.44 21.6549 44.3699 21.6141 44.2843 21.5833C44.1987 21.5524 44.1013 21.5261 43.9921 21.5044C43.8829 21.4826 43.7718 21.459 43.6589 21.4337C43.5424 21.4083 43.4304 21.3774 43.323 21.3412C43.2156 21.3049 43.1191 21.256 43.0336 21.1943C42.948 21.1327 42.8797 21.0538 42.8287 20.9577C42.7778 20.8616 42.7523 20.7428 42.7523 20.6014C42.7523 20.4491 42.7896 20.3212 42.8642 20.2179C42.9389 20.1145 43.0336 20.0311 43.1483 19.9676C43.263 19.9042 43.3904 19.8597 43.5306 19.8343C43.6708 19.809 43.8046 19.7963 43.932 19.7963C44.0777 19.7963 44.2169 19.8117 44.3498 19.8425C44.4827 19.8733 44.6029 19.9232 44.7103 19.9921C44.8177 20.061 44.9069 20.1508 44.9779 20.2614C45.0489 20.372 45.0936 20.5053 45.1118 20.6612H44.4618C44.4327 20.5125 44.3644 20.4128 44.257 20.362C44.1496 20.3112 44.0267 20.2859 43.8883 20.2859C43.8446 20.2859 43.7927 20.2895 43.7327 20.2967C43.6726 20.304 43.6161 20.3176 43.5633 20.3375C43.5105 20.3575 43.4659 20.3865 43.4295 20.4246C43.3931 20.4627 43.3749 20.5125 43.3749 20.5742C43.3749 20.6503 43.4013 20.712 43.4541 20.7591C43.5069 20.8063 43.5761 20.8453 43.6617 20.8761C43.7472 20.9069 43.8446 20.9332 43.9539 20.955C44.0631 20.9767 44.176 21.0003 44.2925 21.0257C44.4054 21.0511 44.5164 21.0819 44.6257 21.1182C44.7349 21.1544 44.8323 21.2034 44.9179 21.265C45.0034 21.3267 45.0726 21.4046 45.1254 21.4989C45.1782 21.5932 45.2046 21.7093 45.2046 21.8471C45.2046 22.0139 45.1664 22.1553 45.0899 22.2714C45.0134 22.3874 44.9142 22.4817 44.7922 22.5543C44.6703 22.6268 44.5346 22.6794 44.3853 22.712C44.2361 22.7447 44.0886 22.761 43.9429 22.761C43.7645 22.761 43.5998 22.741 43.4487 22.7011C43.2975 22.6613 43.1665 22.6005 43.0554 22.5189C42.9443 22.4373 42.857 22.3358 42.7932 22.2143C42.7295 22.0928 42.6958 21.9486 42.6922 21.7818H43.3148ZM46.9784 22.761C46.7527 22.761 46.5515 22.7238 46.3749 22.6495C46.1983 22.5751 46.049 22.4727 45.9271 22.3421C45.8051 22.2116 45.7122 22.0556 45.6485 21.8743C45.5848 21.693 45.5529 21.4935 45.5529 21.2759C45.5529 21.0619 45.5848 20.8643 45.6485 20.683C45.7122 20.5016 45.8051 20.3457 45.9271 20.2151C46.049 20.0846 46.1983 19.9821 46.3749 19.9078C46.5515 19.8334 46.7527 19.7963 46.9784 19.7963C47.2042 19.7963 47.4054 19.8334 47.582 19.9078C47.7586 19.9821 47.9079 20.0846 48.0298 20.2151C48.1518 20.3457 48.2447 20.5016 48.3084 20.683C48.3721 20.8643 48.404 21.0619 48.404 21.2759C48.404 21.4935 48.3721 21.693 48.3084 21.8743C48.2447 22.0556 48.1518 22.2116 48.0298 22.3421C47.9079 22.4727 47.7586 22.5751 47.582 22.6495C47.4054 22.7238 47.2042 22.761 46.9784 22.761ZM46.9784 22.2714C47.1168 22.2714 47.237 22.2424 47.3389 22.1844C47.4409 22.1263 47.5246 22.0502 47.5902 21.9559C47.6557 21.8616 47.7039 21.7555 47.7349 21.6377C47.7658 21.5198 47.7813 21.3992 47.7813 21.2759C47.7813 21.1562 47.7658 21.0366 47.7349 20.9169C47.7039 20.7972 47.6557 20.6911 47.5902 20.5986C47.5246 20.5062 47.4409 20.4309 47.3389 20.3729C47.237 20.3149 47.1168 20.2859 46.9784 20.2859C46.8401 20.2859 46.7199 20.3149 46.618 20.3729C46.516 20.4309 46.4323 20.5062 46.3667 20.5986C46.3012 20.6911 46.2529 20.7972 46.222 20.9169C46.191 21.0366 46.1756 21.1562 46.1756 21.2759C46.1756 21.3992 46.191 21.5198 46.222 21.6377C46.2529 21.7555 46.3012 21.8616 46.3667 21.9559C46.4323 22.0502 46.516 22.1263 46.618 22.1844C46.7199 22.2424 46.8401 22.2714 46.9784 22.2714ZM48.6485 19.8724H49.1128V19.6385C49.1128 19.4608 49.1346 19.3167 49.1783 19.206C49.222 19.0954 49.2802 19.0102 49.3531 18.9504C49.4259 18.8905 49.5087 18.8506 49.6016 18.8307C49.6944 18.8108 49.7918 18.8008 49.8938 18.8008C50.0941 18.8008 50.2397 18.8135 50.3307 18.8389V19.323C50.2907 19.3121 50.2479 19.304 50.2024 19.2985C50.1569 19.2931 50.1032 19.2904 50.0413 19.2904C49.9575 19.2904 49.8856 19.3103 49.8255 19.3502C49.7654 19.3901 49.7354 19.4681 49.7354 19.5841V19.8724H50.2652V20.3348H49.7354V22.6848H49.1128V20.3348H48.6485V19.8724ZM50.3677 19.8724H50.8374V19.0293H51.4601V19.8724H52.0226V20.3348H51.4601V21.8362C51.4601 21.9015 51.4628 21.9577 51.4683 22.0048C51.4737 22.052 51.4865 22.0919 51.5065 22.1245C51.5265 22.1572 51.5566 22.1816 51.5966 22.198C51.6367 22.2143 51.6913 22.2224 51.7605 22.2224C51.8042 22.2224 51.8479 22.2215 51.8916 22.2197C51.9352 22.2179 51.9789 22.2116 52.0226 22.2007V22.6794C51.9535 22.6866 51.8861 22.6939 51.8205 22.7011C51.755 22.7084 51.6876 22.712 51.6185 22.712C51.4546 22.712 51.3226 22.6966 51.2225 22.6658C51.1224 22.635 51.0441 22.5896 50.9876 22.5298C50.9312 22.4699 50.893 22.3947 50.8729 22.304C50.8529 22.2134 50.8411 22.11 50.8374 21.994V20.3348H50.3677V19.8724ZM52.218 19.8724H52.8789L53.4305 21.9722H53.4415L53.9712 19.8724H54.5993L55.1073 21.9722H55.1182L55.6917 19.8724H56.3253L55.4405 22.6848H54.8014L54.2771 20.5959H54.2662L53.7473 22.6848H53.0919L52.218 19.8724ZM59.0931 22.0592C59.0931 22.1354 59.1032 22.1898 59.1232 22.2224C59.1432 22.2551 59.1824 22.2714 59.2406 22.2714H59.3062C59.3316 22.2714 59.3608 22.2678 59.3935 22.2605V22.6903C59.3717 22.6975 59.3435 22.7057 59.3089 22.7147C59.2743 22.7238 59.2388 22.732 59.2024 22.7392C59.166 22.7465 59.1296 22.7519 59.0931 22.7555C59.0567 22.7592 59.0258 22.761 59.0003 22.761C58.8729 22.761 58.7673 22.7356 58.6835 22.6848C58.5998 22.634 58.5452 22.5452 58.5197 22.4183C58.3959 22.5379 58.2438 22.625 58.0636 22.6794C57.8834 22.7338 57.7095 22.761 57.542 22.761C57.4146 22.761 57.2926 22.7438 57.1761 22.7093C57.0595 22.6748 56.9567 22.6241 56.8675 22.557C56.7783 22.4899 56.7073 22.4047 56.6545 22.3013C56.6017 22.198 56.5753 22.0774 56.5753 21.9396C56.5753 21.7655 56.6071 21.6241 56.6708 21.5153C56.7346 21.4065 56.8183 21.3212 56.9221 21.2596C57.0259 21.1979 57.1424 21.1535 57.2716 21.1263C57.4009 21.0991 57.5311 21.0783 57.6622 21.0638C57.775 21.042 57.8825 21.0266 57.9844 21.0175C58.0864 21.0084 58.1765 20.993 58.2548 20.9713C58.333 20.9495 58.395 20.916 58.4405 20.8706C58.486 20.8253 58.5087 20.7573 58.5087 20.6666C58.5087 20.5869 58.4896 20.5216 58.4514 20.4708C58.4132 20.42 58.3658 20.3811 58.3094 20.3539C58.2529 20.3267 58.1901 20.3085 58.1209 20.2995C58.0518 20.2904 57.9862 20.2859 57.9243 20.2859C57.7495 20.2859 57.6057 20.3221 57.4928 20.3947C57.38 20.4672 57.3162 20.5796 57.3017 20.7319H56.679C56.69 20.5506 56.7337 20.4001 56.8101 20.2804C56.8866 20.1607 56.984 20.0646 57.1023 19.9921C57.2207 19.9196 57.3545 19.8688 57.5038 19.8398C57.6531 19.8108 57.806 19.7963 57.9626 19.7963C58.1009 19.7963 58.2375 19.8108 58.3722 19.8398C58.5069 19.8688 58.628 19.9159 58.7354 19.9812C58.8428 20.0465 58.9293 20.1308 58.9948 20.2342C59.0604 20.3375 59.0931 20.4636 59.0931 20.6122V22.0592ZM58.4705 21.2759C58.3758 21.3376 58.2593 21.3747 58.1209 21.3874C57.9826 21.4001 57.8442 21.4192 57.7059 21.4445C57.6403 21.4554 57.5766 21.4708 57.5147 21.4908C57.4528 21.5107 57.3982 21.5379 57.3508 21.5724C57.3035 21.6068 57.2662 21.6522 57.2389 21.7084C57.2116 21.7646 57.1979 21.8326 57.1979 21.9124C57.1979 21.9813 57.2179 22.0393 57.258 22.0864C57.298 22.1336 57.3463 22.1708 57.4027 22.198C57.4592 22.2252 57.5211 22.2442 57.5884 22.2551C57.6558 22.266 57.7168 22.2714 57.7714 22.2714C57.8406 22.2714 57.9152 22.2623 57.9953 22.2442C58.0754 22.2261 58.151 22.1952 58.222 22.1517C58.293 22.1082 58.3522 22.0529 58.3995 21.9858C58.4468 21.9187 58.4705 21.8362 58.4705 21.7383V21.2759ZM59.7692 19.8724H60.3536V20.4164H60.3645C60.3827 20.3403 60.4182 20.2659 60.471 20.1934C60.5238 20.1208 60.5875 20.0547 60.6622 19.9948C60.7368 19.935 60.8196 19.8869 60.9107 19.8507C61.0017 19.8144 61.0946 19.7963 61.1892 19.7963C61.2621 19.7963 61.3121 19.7981 61.3394 19.8017C61.3667 19.8053 61.395 19.809 61.4241 19.8126V20.411C61.3804 20.4037 61.3358 20.3974 61.2903 20.3919C61.2448 20.3865 61.2001 20.3838 61.1565 20.3838C61.0509 20.3838 60.9516 20.4046 60.8588 20.4463C60.7659 20.488 60.6849 20.5497 60.6157 20.6313C60.5466 20.7129 60.4919 20.8135 60.4519 20.9332C60.4118 21.0529 60.3918 21.1907 60.3918 21.3466V22.6848H59.7692V19.8724ZM62.0837 21.4391C62.0837 21.5479 62.0992 21.6531 62.1301 21.7546C62.1611 21.8562 62.2075 21.945 62.2694 22.0212C62.3313 22.0973 62.4096 22.1581 62.5043 22.2034C62.5989 22.2487 62.7118 22.2714 62.8429 22.2714C63.025 22.2714 63.1715 22.2324 63.2826 22.1544C63.3936 22.0765 63.4765 21.9595 63.5311 21.8036H64.121C64.0882 21.9559 64.0317 22.0919 63.9516 22.2116C63.8715 22.3312 63.775 22.4319 63.6622 22.5135C63.5493 22.5951 63.4228 22.6567 63.2826 22.6984C63.1424 22.7401 62.9958 22.761 62.8429 22.761C62.6208 22.761 62.4242 22.7247 62.253 22.6522C62.0819 22.5797 61.9372 22.4781 61.8188 22.3476C61.7005 22.217 61.6113 22.0611 61.5512 21.8797C61.4911 21.6984 61.4611 21.4989 61.4611 21.2813C61.4611 21.0819 61.4929 20.8924 61.5567 20.7129C61.6204 20.5334 61.7114 20.3756 61.8297 20.2396C61.9481 20.1036 62.091 19.9957 62.2585 19.9159C62.426 19.8362 62.6153 19.7963 62.8265 19.7963C63.0486 19.7963 63.248 19.8425 63.4246 19.935C63.6012 20.0275 63.7477 20.1499 63.8643 20.3022C63.9808 20.4545 64.0654 20.6295 64.1182 20.8271C64.171 21.0248 64.1847 21.2288 64.1592 21.4391H62.0837ZM63.5365 21.0311C63.5293 20.9332 63.5083 20.8389 63.4737 20.7482C63.4391 20.6576 63.3918 20.5787 63.3317 20.5116C63.2716 20.4445 63.1988 20.3901 63.1133 20.3484C63.0277 20.3067 62.9321 20.2859 62.8265 20.2859C62.7173 20.2859 62.6181 20.3049 62.5288 20.343C62.4396 20.3811 62.3632 20.4336 62.2995 20.5007C62.2357 20.5678 62.1848 20.6467 62.1465 20.7374C62.1083 20.828 62.0874 20.9259 62.0837 21.0311H63.5365Z" fill="#009BDF"/>
<path fill-rule="evenodd" clip-rule="evenodd" d="M77.058 20.0917H76.8352V18.7657H77.3497C77.5135 18.7657 77.637 18.7955 77.72 18.8553C77.803 18.9151 77.8446 19.0123 77.8446 19.1468C77.8446 19.2664 77.8107 19.3539 77.743 19.4095C77.6752 19.465 77.5911 19.4981 77.4906 19.5087L77.8708 20.0917H77.6184L77.2678 19.5248H77.058V20.0917ZM77.3071 19.339C77.3486 19.339 77.3885 19.3374 77.4267 19.3342C77.4649 19.331 77.4983 19.3219 77.5267 19.307C77.5551 19.292 77.578 19.2712 77.5955 19.2445C77.613 19.2178 77.6217 19.1799 77.6217 19.1308C77.6217 19.0902 77.6124 19.0582 77.5938 19.0347C77.5753 19.0112 77.5518 18.9931 77.5234 18.9803C77.495 18.9674 77.4633 18.9594 77.4283 18.9562C77.3934 18.953 77.3595 18.9514 77.3268 18.9514H77.058V19.339H77.3071ZM78.5 19.4062C78.5 19.5856 78.4678 19.749 78.4033 19.8963C78.3389 20.0436 78.2515 20.1696 78.1411 20.2743C78.0308 20.3789 77.903 20.46 77.7577 20.5177C77.6124 20.5753 77.46 20.6042 77.3005 20.6042C77.1236 20.6042 76.9613 20.5737 76.8139 20.5129C76.6664 20.452 76.5397 20.3682 76.4337 20.2614C76.3277 20.1547 76.2447 20.0282 76.1846 19.8819C76.1245 19.7356 76.0945 19.5771 76.0945 19.4062C76.0945 19.2269 76.1267 19.0635 76.1912 18.9162C76.2556 18.7689 76.343 18.6429 76.4534 18.5382C76.5637 18.4336 76.6921 18.3525 76.8384 18.2948C76.9848 18.2372 77.1388 18.2083 77.3005 18.2083C77.46 18.2083 77.6124 18.2372 77.7577 18.2948C77.903 18.3525 78.0308 18.4336 78.1411 18.5382C78.2515 18.6429 78.3389 18.7689 78.4033 18.9162C78.4678 19.0635 78.5 19.2269 78.5 19.4062ZM78.2378 19.4062C78.2378 19.261 78.2138 19.1276 78.1657 19.0059C78.1177 18.8842 78.051 18.7795 77.9658 18.692C77.8806 18.6044 77.7812 18.5366 77.6676 18.4886C77.554 18.4405 77.4316 18.4165 77.3005 18.4165C77.1673 18.4165 77.0433 18.4405 76.9286 18.4886C76.8139 18.5366 76.7139 18.6044 76.6287 18.692C76.5435 18.7795 76.4769 18.8842 76.4288 19.0059C76.3807 19.1276 76.3567 19.261 76.3567 19.4062C76.3567 19.5429 76.3785 19.671 76.4222 19.7906C76.4659 19.9102 76.5287 20.0148 76.6107 20.1045C76.6926 20.1942 76.7915 20.2652 76.9073 20.3175C77.0231 20.3698 77.1541 20.396 77.3005 20.396C77.4316 20.396 77.554 20.372 77.6676 20.3239C77.7812 20.2759 77.8806 20.2081 77.9658 20.1205C78.051 20.033 78.1177 19.9289 78.1657 19.8082C78.2138 19.6876 78.2378 19.5536 78.2378 19.4062ZM21.8627 11.2157C21.8627 12.3356 21.7243 13.365 21.4475 14.3039C21.1708 15.2429 20.7686 16.0569 20.241 16.7461C19.7134 17.4352 19.0561 17.9693 18.269 18.3483C17.482 18.7273 16.5782 18.9169 15.5576 18.9169C14.7792 18.9169 14.0829 18.723 13.4688 18.3354C12.8548 17.9478 12.3747 17.4524 12.0288 16.8494V23H10.939C10.6276 23 10.3249 22.944 10.0309 22.832C9.7368 22.72 9.47734 22.5607 9.25246 22.3539C9.02759 22.1472 8.84596 21.8974 8.70758 21.6045C8.56919 21.3116 8.5 20.9757 8.5 20.5966V12.1719C8.5 11.0176 8.63406 9.95806 8.90218 8.99326C9.1703 8.02846 9.58977 7.2015 10.1606 6.51236C10.7314 5.82322 11.4579 5.28914 12.3401 4.91011C13.2223 4.53108 14.2775 4.34157 15.5057 4.34157C16.4398 4.34157 17.296 4.53539 18.0744 4.92303C18.8528 5.31068 19.5231 5.82322 20.0853 6.46067C20.6475 7.09813 21.0843 7.83033 21.3956 8.6573C21.707 9.48427 21.8627 10.3371 21.8627 11.2157ZM18.282 12.1202C18.282 10.4663 18.0096 9.26892 17.4647 8.52809C16.9198 7.78726 16.0852 7.41685 14.9608 7.41685C13.9921 7.41685 13.2526 7.79157 12.7423 8.54101C12.232 9.29045 11.9769 10.2682 11.9769 11.4742C11.9769 12.8697 12.2926 13.9464 12.924 14.7045C13.5553 15.4626 14.39 15.8416 15.4278 15.8416C16.2754 15.8416 16.963 15.5013 17.4906 14.8208C18.0182 14.1403 18.282 13.2401 18.282 12.1202ZM34.2339 18.6067C33.5073 18.6067 32.9322 18.4086 32.5084 18.0124C32.0846 17.6161 31.8727 17.039 31.8727 16.2809V10.5955C31.8727 10.027 31.7992 9.54026 31.6521 9.13539C31.5051 8.73052 31.3062 8.40318 31.0554 8.15337C30.8045 7.90356 30.5105 7.71835 30.1732 7.59775C29.8359 7.47715 29.4769 7.41685 29.0964 7.41685C28.8196 7.41685 28.5342 7.47285 28.2401 7.58483C27.9461 7.69682 27.6736 7.88202 27.4228 8.14045C27.172 8.39888 26.9687 8.73483 26.813 9.14831C26.6574 9.5618 26.5795 10.0786 26.5795 10.6989V18.6067H25.4378C24.6075 18.6067 24.0021 18.4 23.6216 17.9865C23.241 17.573 23.0507 17.0045 23.0507 16.2809V0H24.1405C24.9708 0 25.5892 0.206739 25.9957 0.620225C26.4022 1.03371 26.6055 1.56779 26.6055 2.22247V6.20225C26.7265 5.9955 26.8952 5.78446 27.1114 5.5691C27.3277 5.35374 27.5655 5.15562 27.825 4.97472C28.0844 4.79382 28.3699 4.64307 28.6812 4.52247C28.9926 4.40187 29.3126 4.34157 29.6413 4.34157C31.4575 4.34157 32.8673 4.86273 33.8706 5.90506C34.8739 6.94738 35.3755 8.45917 35.3755 10.4404V18.6067H34.2339ZM50.4452 11.2157C50.4452 12.3356 50.3068 13.365 50.03 14.3039C49.7533 15.2429 49.3511 16.0569 48.8235 16.7461C48.2959 17.4352 47.6386 17.9693 46.8515 18.3483C46.0645 18.7273 45.1607 18.9169 44.1401 18.9169C43.3617 18.9169 42.6654 18.723 42.0514 18.3354C41.4373 17.9478 40.9573 17.4524 40.6113 16.8494V23H39.5215C39.2102 23 38.9075 22.944 38.6134 22.832C38.3193 22.72 38.0599 22.5607 37.835 22.3539C37.6101 22.1472 37.4285 21.8974 37.2901 21.6045C37.1517 21.3116 37.0825 20.9757 37.0825 20.5966V12.1719C37.0825 11.0176 37.2166 9.95806 37.4847 8.99326C37.7528 8.02846 38.1723 7.2015 38.7431 6.51236C39.314 5.82322 40.0405 5.28914 40.9227 4.91011C41.8049 4.53108 42.86 4.34157 44.0882 4.34157C45.0223 4.34157 45.8785 4.53539 46.6569 4.92303C47.4354 5.31068 48.1056 5.82322 48.6678 6.46067C49.23 7.09813 49.6668 7.83033 49.9782 8.6573C50.2895 9.48427 50.4452 10.3371 50.4452 11.2157ZM46.8645 12.1202C46.8645 10.4663 46.5921 9.26892 46.0472 8.52809C45.5023 7.78726 44.6677 7.41685 43.5433 7.41685C42.5746 7.41685 41.8351 7.79157 41.3248 8.54101C40.8146 9.29045 40.5594 10.2682 40.5594 11.4742C40.5594 12.8697 40.8751 13.9464 41.5065 14.7045C42.1379 15.4626 42.9725 15.8416 44.0104 15.8416C44.858 15.8416 45.5455 15.5013 46.0731 14.8208C46.6007 14.1403 46.8645 13.2401 46.8645 12.1202ZM64.451 13.1281C64.451 14.024 64.2867 14.8165 63.958 15.5056C63.6294 16.1948 63.184 16.7762 62.6218 17.25C62.0596 17.7238 61.4109 18.0813 60.6758 18.3225C59.9406 18.5637 59.1665 18.6843 58.3535 18.6843H56.4334C53.1295 18.6843 51.4776 17.2802 51.4776 14.4719V1.62809C51.6851 1.55918 51.9792 1.47734 52.3598 1.38258C52.7403 1.28783 53.1511 1.19738 53.5922 1.11124C54.0333 1.02509 54.4831 0.95618 54.9415 0.904494C55.3999 0.852809 55.8107 0.826966 56.174 0.826966H58.3276C59.1752 0.826966 59.9536 0.934643 60.6628 1.15C61.372 1.36536 61.9861 1.67547 62.505 2.08034C63.024 2.48521 63.4261 2.97621 63.7116 3.55337C63.997 4.13053 64.1397 4.7809 64.1397 5.50449C64.1397 6.48652 63.8889 7.29194 63.3872 7.92079C62.8856 8.54963 62.1937 8.99326 61.3115 9.25169C61.7612 9.37228 62.1764 9.57041 62.5569 9.84607C62.9375 10.1217 63.2705 10.4361 63.5559 10.7893C63.8413 11.1425 64.0618 11.5258 64.2175 11.9393C64.3732 12.3528 64.451 12.7491 64.451 13.1281ZM60.5849 5.81461C60.5849 5.43558 60.5028 5.11255 60.3384 4.84551C60.1741 4.57846 59.9622 4.36742 59.7027 4.21236C59.4433 4.0573 59.1492 3.94532 58.8205 3.8764C58.4919 3.80749 58.1632 3.77303 57.8346 3.77303H56.5113C56.2864 3.77303 56.0356 3.79457 55.7588 3.83764C55.482 3.88071 55.2226 3.91948 54.9804 3.95393V7.95955H57.7048C58.5005 7.95955 59.1795 7.79157 59.7417 7.45562C60.3039 7.11966 60.5849 6.57266 60.5849 5.81461ZM60.8704 13.2315C60.8704 12.2667 60.6239 11.6034 60.1309 11.2416C59.6379 10.8798 58.8724 10.6989 57.8346 10.6989H55.0064V14.3427C55.0064 14.6528 55.1534 14.9155 55.4474 15.1309C55.7415 15.3463 56.1134 15.4539 56.5632 15.4539H58.0162C58.9849 15.4539 59.7027 15.2515 60.1698 14.8466C60.6368 14.4418 60.8704 13.9034 60.8704 13.2315ZM78.4828 13.1281C78.4828 14.024 78.3185 14.8165 77.9898 15.5056C77.6612 16.1948 77.2158 16.7762 76.6536 17.25C76.0914 17.7238 75.4427 18.0813 74.7075 18.3225C73.9724 18.5637 73.1983 18.6843 72.3853 18.6843H70.4652C67.1613 18.6843 65.5094 17.2802 65.5094 14.4719V1.62809C65.7169 1.55918 66.011 1.47734 66.3916 1.38258C66.7721 1.28783 67.1829 1.19738 67.624 1.11124C68.0651 1.02509 68.5149 0.95618 68.9733 0.904494C69.4317 0.852809 69.8425 0.826966 70.2058 0.826966H72.3594C73.207 0.826966 73.9854 0.934643 74.6946 1.15C75.4038 1.36536 76.0179 1.67547 76.5368 2.08034C77.0557 2.48521 77.4579 2.97621 77.7433 3.55337C78.0288 4.13053 78.1715 4.7809 78.1715 5.50449C78.1715 6.48652 77.9206 7.29194 77.419 7.92079C76.9174 8.54963 76.2254 8.99326 75.3432 9.25169C75.793 9.37228 76.2081 9.57041 76.5887 9.84607C76.9693 10.1217 77.3022 10.4361 77.5877 10.7893C77.8731 11.1425 78.0936 11.5258 78.2493 11.9393C78.405 12.3528 78.4828 12.7491 78.4828 13.1281ZM74.6167 5.81461C74.6167 5.43558 74.5346 5.11255 74.3702 4.84551C74.2059 4.57846 73.994 4.36742 73.7345 4.21236C73.4751 4.0573 73.181 3.94532 72.8523 3.8764C72.5237 3.80749 72.195 3.77303 71.8664 3.77303H70.5431C70.3182 3.77303 70.0674 3.79457 69.7906 3.83764C69.5138 3.88071 69.2544 3.91948 69.0122 3.95393V7.95955H71.7366C72.5323 7.95955 73.2113 7.79157 73.7735 7.45562C74.3356 7.11966 74.6167 6.57266 74.6167 5.81461ZM74.9021 13.2315C74.9021 12.2667 74.6557 11.6034 74.1627 11.2416C73.6697 10.8798 72.9042 10.6989 71.8664 10.6989H69.0381V14.3427C69.0381 14.6528 69.1852 14.9155 69.4792 15.1309C69.7733 15.3463 70.1452 15.4539 70.595 15.4539H72.048C73.0167 15.4539 73.7345 15.2515 74.2016 14.8466C74.6686 14.4418 74.9021 13.9034 74.9021 13.2315Z" fill="#009BDF"/>
</g>
<path d="M18.7053 67V65.452H22.1793C23.1033 65.452 23.9133 65.254 24.6093 64.858C25.3053 64.45 25.8453 63.892 26.2293 63.184C26.6253 62.476 26.8233 61.66 26.8233 60.736C26.8233 59.824 26.6253 59.014 26.2293 58.306C25.8333 57.598 25.2873 57.046 24.5913 56.65C23.8953 56.254 23.0913 56.056 22.1793 56.056H18.7233V54.508H22.2153C23.1273 54.508 23.9673 54.664 24.7353 54.976C25.5153 55.288 26.1873 55.726 26.7513 56.29C27.3273 56.854 27.7713 57.514 28.0833 58.27C28.4073 59.026 28.5693 59.854 28.5693 60.754C28.5693 61.642 28.4073 62.47 28.0833 63.238C27.7713 63.994 27.3333 64.654 26.7693 65.218C26.2053 65.782 25.5333 66.22 24.7533 66.532C23.9853 66.844 23.1513 67 22.2513 67H18.7053ZM17.5893 67V54.508H19.2813V67H17.5893ZM30.6255 67V58.45H32.2455V67H30.6255ZM32.2455 62.122L31.6335 61.852C31.6335 60.76 31.8855 59.89 32.3895 59.242C32.8935 58.594 33.6195 58.27 34.5675 58.27C34.9995 58.27 35.3895 58.348 35.7375 58.504C36.0855 58.648 36.4095 58.894 36.7095 59.242L35.6475 60.34C35.4675 60.148 35.2695 60.01 35.0535 59.926C34.8375 59.842 34.5855 59.8 34.2975 59.8C33.6975 59.8 33.2055 59.992 32.8215 60.376C32.4375 60.76 32.2455 61.342 32.2455 62.122ZM41.3061 67.18C40.5981 67.18 39.9621 67.024 39.3981 66.712C38.8461 66.388 38.4141 65.944 38.1021 65.38C37.7901 64.816 37.6341 64.162 37.6341 63.418V58.45H39.2541V63.346C39.2541 63.814 39.3321 64.222 39.4881 64.57C39.6561 64.906 39.8961 65.164 40.2081 65.344C40.5201 65.524 40.8861 65.614 41.3061 65.614C41.9421 65.614 42.4401 65.416 42.8001 65.02C43.1601 64.612 43.3401 64.054 43.3401 63.346V58.45H44.9601V63.418C44.9601 64.162 44.8041 64.816 44.4921 65.38C44.1801 65.944 43.7481 66.388 43.1961 66.712C42.6561 67.024 42.0261 67.18 41.3061 67.18ZM51.6314 67.18C50.9834 67.18 50.3954 67.048 49.8674 66.784C49.3514 66.508 48.9374 66.13 48.6254 65.65C48.3134 65.17 48.1394 64.624 48.1034 64.012V61.438C48.1394 60.814 48.3134 60.268 48.6254 59.8C48.9494 59.32 49.3694 58.948 49.8854 58.684C50.4134 58.408 50.9954 58.27 51.6314 58.27C52.4114 58.27 53.1134 58.468 53.7374 58.864C54.3734 59.26 54.8714 59.794 55.2314 60.466C55.5914 61.138 55.7714 61.894 55.7714 62.734C55.7714 63.574 55.5914 64.33 55.2314 65.002C54.8714 65.674 54.3734 66.208 53.7374 66.604C53.1134 66.988 52.4114 67.18 51.6314 67.18ZM47.1314 70.582V58.45H48.7514V60.7L48.4454 62.77L48.7514 64.858V70.582H47.1314ZM51.3614 65.65C51.9014 65.65 52.3754 65.524 52.7834 65.272C53.1914 65.02 53.5154 64.678 53.7554 64.246C53.9954 63.802 54.1154 63.292 54.1154 62.716C54.1154 62.152 53.9954 61.648 53.7554 61.204C53.5154 60.76 53.1914 60.418 52.7834 60.178C52.3754 59.926 51.9074 59.8 51.3794 59.8C50.8394 59.8 50.3654 59.926 49.9574 60.178C49.5494 60.418 49.2314 60.76 49.0034 61.204C48.7754 61.648 48.6614 62.158 48.6614 62.734C48.6614 63.298 48.7694 63.802 48.9854 64.246C49.2134 64.678 49.5314 65.02 49.9394 65.272C50.3594 65.524 50.8334 65.65 51.3614 65.65ZM61.2439 67.18C60.4639 67.18 59.7559 66.988 59.1199 66.604C58.4839 66.208 57.9799 65.674 57.6079 65.002C57.2479 64.33 57.0679 63.574 57.0679 62.734C57.0679 61.894 57.2479 61.138 57.6079 60.466C57.9799 59.794 58.4779 59.26 59.1019 58.864C59.7379 58.468 60.4519 58.27 61.2439 58.27C61.8919 58.27 62.4679 58.408 62.9719 58.684C63.4879 58.948 63.9019 59.32 64.2139 59.8C64.5259 60.268 64.6999 60.814 64.7359 61.438V64.012C64.6999 64.624 64.5259 65.17 64.2139 65.65C63.9139 66.13 63.5059 66.508 62.9899 66.784C62.4859 67.048 61.9039 67.18 61.2439 67.18ZM61.5139 65.65C62.3179 65.65 62.9659 65.38 63.4579 64.84C63.9499 64.288 64.1959 63.586 64.1959 62.734C64.1959 62.146 64.0819 61.636 63.8539 61.204C63.6379 60.76 63.3259 60.418 62.9179 60.178C62.5099 59.926 62.0359 59.8 61.4959 59.8C60.9559 59.8 60.4759 59.926 60.0559 60.178C59.6479 60.43 59.3239 60.778 59.0839 61.222C58.8559 61.654 58.7419 62.152 58.7419 62.716C58.7419 63.292 58.8559 63.802 59.0839 64.246C59.3239 64.678 59.6539 65.02 60.0739 65.272C60.4939 65.524 60.9739 65.65 61.5139 65.65ZM64.0879 67V64.696L64.3939 62.608L64.0879 60.538V58.45H65.7259V67H64.0879ZM68.0845 67V54.148H69.7045V67H68.0845Z" fill="black"/>
<defs>
<clipPath id="clip0_1032_1296">
<rect width="70" height="23" fill="white" transform="translate(8.5)"/>
</clipPath>
</defs>
</svg>
