<svg width="87" height="123" viewBox="0 0 87 123" fill="none" xmlns="http://www.w3.org/2000/svg">
<g clip-path="url(#clip0_1032_1262)">
<g clip-path="url(#clip1_1032_1262)">
<path d="M56.6136 18.4965C50.9499 12.9764 45.577 7.60134 43.9793 1.5C42.3816 7.60134 37.0087 12.9776 31.345 18.4977C22.9223 26.9237 13.3384 36.5115 13.3384 50.8937C12.9025 67.7457 26.4079 81.8376 43.2533 82.1285C60.0986 82.4194 74.185 69.0538 74.4757 52.2018V50.8943C74.6202 36.5115 65.0363 26.9237 56.6136 18.4971V18.4965ZM29.0218 53.6532C28.1507 54.8155 27.2796 56.123 26.6981 57.4304C26.5524 57.5762 26.4073 57.8665 26.1178 57.8665L25.9727 57.8652C25.2467 57.8652 24.52 56.5578 24.52 56.5578C24.3744 56.2669 24.0842 55.8321 23.9397 55.5412L23.794 55.2515C21.9055 51.1827 23.5033 45.518 23.5033 45.518C24.2287 42.7586 25.5362 39.9973 27.134 37.6732C28.1501 36.22 29.3126 34.768 30.4739 33.3148L31.9265 34.768L38.7521 41.7414C39.0428 42.0323 39.0428 42.4671 38.7521 42.758L31.6358 50.7485L29.0212 53.6526L29.0218 53.6532ZM44.2701 73.7013C38.4613 73.7013 33.6693 68.9068 33.8138 63.0963C33.8138 60.4808 34.83 58.0122 36.4283 56.123C38.607 53.5074 41.366 50.8931 44.4158 47.4067C47.9008 51.184 50.2245 53.6532 52.4032 56.5596C52.5489 56.7053 52.6939 56.9956 52.839 57.2859C54.0009 59.0288 54.7263 61.0632 54.7263 63.2427C54.8708 69.0532 50.0794 73.7025 44.2701 73.7025V73.7013ZM64.1652 56.8487C64.0195 57.2853 63.5848 57.575 63.149 57.7201L63.0033 57.7213C62.5674 57.5756 62.2779 57.2853 61.9871 56.995C60.0998 54.2355 58.0668 51.62 55.7431 49.2953L52.9847 46.3901L43.6903 36.8024C41.803 35.0595 39.9146 33.0251 38.1717 31.1364C38.1717 30.9913 38.0267 30.9913 38.0267 30.9913C37.7359 30.5553 37.4463 30.1199 37.3006 29.5381V29.2472C37.0099 27.6488 37.5914 26.0511 38.7533 24.8888C40.4955 23.1459 42.384 21.2566 44.1262 19.3686C46.0135 21.4024 48.0464 23.4361 50.0806 25.4699C54.1466 29.2472 57.7773 33.4605 61.1172 37.9641C63.8756 41.8859 65.3282 46.3901 65.3282 51.1846C65.0369 52.9275 64.7461 54.9612 64.1658 56.8493L64.1652 56.8487Z" fill="#009CDE"/>
</g>
</g>
<path d="M18.7053 117.5V115.952H22.1793C23.1033 115.952 23.9133 115.754 24.6093 115.358C25.3053 114.95 25.8453 114.392 26.2293 113.684C26.6253 112.976 26.8233 112.16 26.8233 111.236C26.8233 110.324 26.6253 109.514 26.2293 108.806C25.8333 108.098 25.2873 107.546 24.5913 107.15C23.8953 106.754 23.0913 106.556 22.1793 106.556H18.7233V105.008H22.2153C23.1273 105.008 23.9673 105.164 24.7353 105.476C25.5153 105.788 26.1873 106.226 26.7513 106.79C27.3273 107.354 27.7713 108.014 28.0833 108.77C28.4073 109.526 28.5693 110.354 28.5693 111.254C28.5693 112.142 28.4073 112.97 28.0833 113.738C27.7713 114.494 27.3333 115.154 26.7693 115.718C26.2053 116.282 25.5333 116.72 24.7533 117.032C23.9853 117.344 23.1513 117.5 22.2513 117.5H18.7053ZM17.5893 117.5V105.008H19.2813V117.5H17.5893ZM30.6255 117.5V108.95H32.2455V117.5H30.6255ZM32.2455 112.622L31.6335 112.352C31.6335 111.26 31.8855 110.39 32.3895 109.742C32.8935 109.094 33.6195 108.77 34.5675 108.77C34.9995 108.77 35.3895 108.848 35.7375 109.004C36.0855 109.148 36.4095 109.394 36.7095 109.742L35.6475 110.84C35.4675 110.648 35.2695 110.51 35.0535 110.426C34.8375 110.342 34.5855 110.3 34.2975 110.3C33.6975 110.3 33.2055 110.492 32.8215 110.876C32.4375 111.26 32.2455 111.842 32.2455 112.622ZM41.3061 117.68C40.5981 117.68 39.9621 117.524 39.3981 117.212C38.8461 116.888 38.4141 116.444 38.1021 115.88C37.7901 115.316 37.6341 114.662 37.6341 113.918V108.95H39.2541V113.846C39.2541 114.314 39.3321 114.722 39.4881 115.07C39.6561 115.406 39.8961 115.664 40.2081 115.844C40.5201 116.024 40.8861 116.114 41.3061 116.114C41.9421 116.114 42.4401 115.916 42.8001 115.52C43.1601 115.112 43.3401 114.554 43.3401 113.846V108.95H44.9601V113.918C44.9601 114.662 44.8041 115.316 44.4921 115.88C44.1801 116.444 43.7481 116.888 43.1961 117.212C42.6561 117.524 42.0261 117.68 41.3061 117.68ZM51.6314 117.68C50.9834 117.68 50.3954 117.548 49.8674 117.284C49.3514 117.008 48.9374 116.63 48.6254 116.15C48.3134 115.67 48.1394 115.124 48.1034 114.512V111.938C48.1394 111.314 48.3134 110.768 48.6254 110.3C48.9494 109.82 49.3694 109.448 49.8854 109.184C50.4134 108.908 50.9954 108.77 51.6314 108.77C52.4114 108.77 53.1134 108.968 53.7374 109.364C54.3734 109.76 54.8714 110.294 55.2314 110.966C55.5914 111.638 55.7714 112.394 55.7714 113.234C55.7714 114.074 55.5914 114.83 55.2314 115.502C54.8714 116.174 54.3734 116.708 53.7374 117.104C53.1134 117.488 52.4114 117.68 51.6314 117.68ZM47.1314 121.082V108.95H48.7514V111.2L48.4454 113.27L48.7514 115.358V121.082H47.1314ZM51.3614 116.15C51.9014 116.15 52.3754 116.024 52.7834 115.772C53.1914 115.52 53.5154 115.178 53.7554 114.746C53.9954 114.302 54.1154 113.792 54.1154 113.216C54.1154 112.652 53.9954 112.148 53.7554 111.704C53.5154 111.26 53.1914 110.918 52.7834 110.678C52.3754 110.426 51.9074 110.3 51.3794 110.3C50.8394 110.3 50.3654 110.426 49.9574 110.678C49.5494 110.918 49.2314 111.26 49.0034 111.704C48.7754 112.148 48.6614 112.658 48.6614 113.234C48.6614 113.798 48.7694 114.302 48.9854 114.746C49.2134 115.178 49.5314 115.52 49.9394 115.772C50.3594 116.024 50.8334 116.15 51.3614 116.15ZM61.2439 117.68C60.4639 117.68 59.7559 117.488 59.1199 117.104C58.4839 116.708 57.9799 116.174 57.6079 115.502C57.2479 114.83 57.0679 114.074 57.0679 113.234C57.0679 112.394 57.2479 111.638 57.6079 110.966C57.9799 110.294 58.4779 109.76 59.1019 109.364C59.7379 108.968 60.4519 108.77 61.2439 108.77C61.8919 108.77 62.4679 108.908 62.9719 109.184C63.4879 109.448 63.9019 109.82 64.2139 110.3C64.5259 110.768 64.6999 111.314 64.7359 111.938V114.512C64.6999 115.124 64.5259 115.67 64.2139 116.15C63.9139 116.63 63.5059 117.008 62.9899 117.284C62.4859 117.548 61.9039 117.68 61.2439 117.68ZM61.5139 116.15C62.3179 116.15 62.9659 115.88 63.4579 115.34C63.9499 114.788 64.1959 114.086 64.1959 113.234C64.1959 112.646 64.0819 112.136 63.8539 111.704C63.6379 111.26 63.3259 110.918 62.9179 110.678C62.5099 110.426 62.0359 110.3 61.4959 110.3C60.9559 110.3 60.4759 110.426 60.0559 110.678C59.6479 110.93 59.3239 111.278 59.0839 111.722C58.8559 112.154 58.7419 112.652 58.7419 113.216C58.7419 113.792 58.8559 114.302 59.0839 114.746C59.3239 115.178 59.6539 115.52 60.0739 115.772C60.4939 116.024 60.9739 116.15 61.5139 116.15ZM64.0879 117.5V115.196L64.3939 113.108L64.0879 111.038V108.95H65.7259V117.5H64.0879ZM68.0845 117.5V104.648H69.7045V117.5H68.0845Z" fill="black"/>
<defs>
<clipPath id="clip0_1032_1262">
<rect width="70" height="81" fill="white" transform="translate(8.5 0.5)"/>
</clipPath>
<clipPath id="clip1_1032_1262">
<rect width="61.1494" height="80.6333" fill="white" transform="translate(13.3281 1.5)"/>
</clipPath>
</defs>
</svg>
