<svg width="65" height="65" viewBox="0 0 65 65" fill="none" xmlns="http://www.w3.org/2000/svg">
<circle cx="32.5" cy="32.5" r="32.5" fill="#EE2F5E"/>
<path d="M45.8206 18.2286C46.0576 18.6011 45.6516 19.0351 45.221 18.9372C44.379 18.6864 43.4473 18.561 42.4977 18.561H36.387C36.2298 18.561 36.0817 18.4871 35.9873 18.3614L33.8081 15.4614C33.8041 15.4558 33.8002 15.4502 33.7962 15.4445C33.5476 15.0942 33.7817 14.5835 34.2113 14.5835H39.1652C41.962 14.5835 44.4256 16.0361 45.8206 18.2286Z" fill="white"/>
<path d="M47.0829 22.7177C46.3124 22.1622 45.4345 21.7502 44.4849 21.5172C43.8399 21.3381 43.177 21.2485 42.4962 21.2485H35.8312C34.792 21.2485 34.7204 21.1589 34.1649 20.4243L31.6566 17.0918C30.492 15.5331 29.5783 14.5835 26.6579 14.5835H22.5012C18.1295 14.5835 14.582 18.131 14.582 22.5027V42.4977C14.582 46.8693 18.1295 50.4168 22.5012 50.4168H42.4962C46.8679 50.4168 50.4154 46.8693 50.4154 42.4977V29.1677C50.4154 26.4981 49.1074 24.151 47.0829 22.7177ZM36.7808 40.276H28.1987C27.4999 40.276 26.9624 39.7206 26.9624 39.0218C26.9624 38.341 27.4999 37.7677 28.1987 37.7677H36.7808C37.4795 37.7677 38.0349 38.341 38.0349 39.0218C38.0349 39.7206 37.4795 40.276 36.7808 40.276Z" fill="white"/>
</svg>
