<svg width="65" height="65" viewBox="0 0 65 65" fill="none" xmlns="http://www.w3.org/2000/svg">
<circle cx="32.5" cy="32.5" r="32.5" fill="#EE2F5E"/>
<path d="M41.457 17.271H23.5404C18.1654 17.271 14.582 19.9585 14.582 26.2293V38.771C14.582 45.0418 18.1654 47.7293 23.5404 47.7293H41.457C46.832 47.7293 50.4154 45.0418 50.4154 38.771V26.2293C50.4154 19.9585 46.832 17.271 41.457 17.271ZM42.2991 28.1822L36.6912 32.6614C35.5087 33.611 34.0037 34.0768 32.4987 34.0768C30.9937 34.0768 29.4708 33.611 28.3062 32.6614L22.6983 28.1822C22.1249 27.7164 22.0354 26.8564 22.4833 26.2831C22.9491 25.7097 23.7912 25.6022 24.3645 26.0681L29.9724 30.5472C31.3341 31.6402 33.6454 31.6402 35.007 30.5472L40.615 26.0681C41.1883 25.6022 42.0483 25.6918 42.4962 26.2831C42.962 26.8564 42.8724 27.7164 42.2991 28.1822Z" fill="white"/>
</svg>
