<svg width="90" height="90" viewBox="0 0 90 90" fill="none" xmlns="http://www.w3.org/2000/svg">
<rect width="90" height="90" rx="45" fill="#EE2F5E"/>
<path d="M25.7342 58.8538C24.88 58.8538 24.1717 58.1455 24.1717 57.2913V45.4163C24.0675 39.7705 26.1717 34.4372 30.0883 30.4372C34.005 26.458 39.255 24.2705 44.9008 24.2705C56.4425 24.2705 65.8383 33.6663 65.8383 45.208V57.083C65.8383 57.9372 65.13 58.6455 64.2758 58.6455C63.4217 58.6455 62.7133 57.9372 62.7133 57.083V45.208C62.7133 35.3955 54.7342 27.3955 44.9008 27.3955C40.0883 27.3955 35.63 29.2497 32.3175 32.6247C28.9842 36.0205 27.2133 40.5413 27.2967 45.3747V57.2705C27.2967 58.1455 26.6092 58.8538 25.7342 58.8538Z" fill="white"/>
<path d="M32.3763 45.938H32.1055C27.7305 45.938 24.168 49.5005 24.168 53.8755V57.7922C24.168 62.1672 27.7305 65.7297 32.1055 65.7297H32.3763C36.7513 65.7297 40.3138 62.1672 40.3138 57.7922V53.8755C40.3138 49.5005 36.7513 45.938 32.3763 45.938Z" fill="white"/>
<path d="M57.8958 45.938H57.625C53.25 45.938 49.6875 49.5005 49.6875 53.8755V57.7922C49.6875 62.1672 53.25 65.7297 57.625 65.7297H57.8958C62.2708 65.7297 65.8333 62.1672 65.8333 57.7922V53.8755C65.8333 49.5005 62.2708 45.938 57.8958 45.938Z" fill="white"/>
</svg>
