<svg width="87" height="111" viewBox="0 0 87 111" fill="none" xmlns="http://www.w3.org/2000/svg">
<g clip-path="url(#clip0_1032_1257)">
<path d="M78.3963 9.64829C78.3963 4.59988 74.2724 0.507324 69.1853 0.507324C64.5403 0.507324 60.7005 3.91996 60.0679 8.35628L59.9746 8.30744C52.4418 4.93577 46.0965 10.9078 46.0965 10.9078L29.3125 27.6459L35.9443 33.9839L49.4536 20.8125C55.7619 14.5518 59.1968 18.7893 59.1968 18.7893C63.9457 22.7706 59.3603 27.4834 59.3603 27.4834L66.1561 33.9839C71.7055 28.0358 72.0273 22.8446 70.3404 18.7152C74.8821 18.1509 78.3963 14.3082 78.3963 9.64829Z" fill="#F9AE41"/>
<path d="M70.4293 51.6879C70.4608 51.6296 70.4785 51.5957 70.4785 51.5957C73.8763 44.1198 67.8583 37.8228 67.8583 37.8228L50.9917 21.1658L44.6055 27.7477L57.8777 41.154C64.1861 47.4147 59.9162 50.8238 59.9162 50.8238C55.9046 55.5366 51.1558 50.986 51.1558 50.986L44.6055 57.7299C50.5988 63.2371 55.83 63.5565 59.9908 61.8824C60.5595 66.3896 64.4318 69.8774 69.1274 69.8774C74.2145 69.8774 78.3381 65.7848 78.3381 60.7364C78.3381 56.1267 74.8996 52.316 70.4293 51.6879Z" fill="#EE4035"/>
<path d="M51.1323 36.0962L37.623 49.2673C31.3144 55.5282 27.8794 51.2911 27.8794 51.2911C23.1306 47.3095 27.7157 42.597 27.7157 42.597L20.9204 36.0962C15.371 42.044 15.049 47.2351 16.7356 51.3646C12.1939 51.9292 8.67969 55.7716 8.67969 60.4318C8.67969 65.4802 12.8036 69.5725 17.8909 69.5725C22.5359 69.5727 26.3758 66.1604 27.0084 61.7241C27.0675 61.7553 27.1016 61.7726 27.1016 61.7726C34.6348 65.1451 40.9797 59.1723 40.9797 59.1723L57.764 42.4339L51.1323 36.0962Z" fill="#4F91CD"/>
<path d="M29.2028 28.926C22.8942 22.6653 27.1636 19.2562 27.1636 19.2562C31.1759 14.5434 35.9246 19.094 35.9246 19.094L42.4748 12.3503C36.4815 6.84314 31.2506 6.5238 27.0895 8.19756C26.5208 3.69016 22.649 0.202637 17.9526 0.202637C12.8664 0.202637 8.74273 4.29519 8.74219 9.3436C8.74219 13.9536 12.1807 17.7642 16.6513 18.3921C16.6198 18.4507 16.6023 18.4848 16.6023 18.4848C13.204 25.9602 19.2223 32.2569 19.2223 32.2569L36.0891 48.914L42.4754 42.3326L29.2028 28.926Z" fill="#7AC043"/>
</g>
<path d="M17.696 106.18C16.976 106.18 16.34 106.042 15.788 105.766C15.248 105.478 14.804 105.094 14.456 104.614L15.644 103.516C15.872 103.852 16.154 104.11 16.49 104.29C16.838 104.47 17.222 104.56 17.642 104.56C18.062 104.56 18.434 104.47 18.758 104.29C19.082 104.11 19.334 103.846 19.514 103.498C19.706 103.138 19.802 102.7 19.802 102.184V93.508H21.494V102.094C21.494 102.922 21.326 103.642 20.99 104.254C20.666 104.866 20.216 105.34 19.64 105.676C19.076 106.012 18.428 106.18 17.696 106.18ZM27.9221 106.18C27.0821 106.18 26.3261 105.982 25.6541 105.586C24.9821 105.19 24.4481 104.656 24.0521 103.984C23.6561 103.3 23.4581 102.538 23.4581 101.698C23.4581 100.87 23.6561 100.126 24.0521 99.466C24.4481 98.794 24.9821 98.26 25.6541 97.864C26.3261 97.468 27.0821 97.27 27.9221 97.27C28.7501 97.27 29.5001 97.468 30.1721 97.864C30.8561 98.248 31.3961 98.776 31.7921 99.448C32.1881 100.12 32.3861 100.87 32.3861 101.698C32.3861 102.538 32.1881 103.3 31.7921 103.984C31.3961 104.656 30.8561 105.19 30.1721 105.586C29.5001 105.982 28.7501 106.18 27.9221 106.18ZM27.9221 104.614C28.4621 104.614 28.9421 104.488 29.3621 104.236C29.7821 103.984 30.1121 103.642 30.3521 103.21C30.5921 102.766 30.7121 102.262 30.7121 101.698C30.7121 101.146 30.5861 100.654 30.3341 100.222C30.0941 99.79 29.7641 99.454 29.3441 99.214C28.9361 98.962 28.4621 98.836 27.9221 98.836C27.3821 98.836 26.9021 98.962 26.4821 99.214C26.0621 99.454 25.7321 99.79 25.4921 100.222C25.2521 100.654 25.1321 101.146 25.1321 101.698C25.1321 102.262 25.2521 102.766 25.4921 103.21C25.7321 103.642 26.0621 103.984 26.4821 104.236C26.9021 104.488 27.3821 104.614 27.9221 104.614ZM38.1174 106.18C37.2774 106.18 36.5214 105.982 35.8494 105.586C35.1774 105.19 34.6434 104.656 34.2474 103.984C33.8514 103.3 33.6534 102.538 33.6534 101.698C33.6534 100.87 33.8514 100.126 34.2474 99.466C34.6434 98.794 35.1774 98.26 35.8494 97.864C36.5214 97.468 37.2774 97.27 38.1174 97.27C38.9454 97.27 39.6954 97.468 40.3674 97.864C41.0514 98.248 41.5914 98.776 41.9874 99.448C42.3834 100.12 42.5814 100.87 42.5814 101.698C42.5814 102.538 42.3834 103.3 41.9874 103.984C41.5914 104.656 41.0514 105.19 40.3674 105.586C39.6954 105.982 38.9454 106.18 38.1174 106.18ZM38.1174 104.614C38.6574 104.614 39.1374 104.488 39.5574 104.236C39.9774 103.984 40.3074 103.642 40.5474 103.21C40.7874 102.766 40.9074 102.262 40.9074 101.698C40.9074 101.146 40.7814 100.654 40.5294 100.222C40.2894 99.79 39.9594 99.454 39.5394 99.214C39.1314 98.962 38.6574 98.836 38.1174 98.836C37.5774 98.836 37.0974 98.962 36.6774 99.214C36.2574 99.454 35.9274 99.79 35.6874 100.222C35.4474 100.654 35.3274 101.146 35.3274 101.698C35.3274 102.262 35.4474 102.766 35.6874 103.21C35.9274 103.642 36.2574 103.984 36.6774 104.236C37.0974 104.488 37.5774 104.614 38.1174 104.614ZM44.4067 106V97.45H46.0268V106H44.4067ZM50.1848 106V100.834C50.1848 100.198 49.9868 99.7 49.5908 99.34C49.2068 98.968 48.7208 98.782 48.1328 98.782C47.7368 98.782 47.3828 98.866 47.0708 99.034C46.7588 99.202 46.5068 99.436 46.3148 99.736C46.1228 100.036 46.0268 100.396 46.0268 100.816L45.3608 100.492C45.3608 99.844 45.4988 99.28 45.7748 98.8C46.0628 98.32 46.4528 97.948 46.9448 97.684C47.4368 97.408 47.9888 97.27 48.6008 97.27C49.2008 97.27 49.7408 97.402 50.2208 97.666C50.7128 97.93 51.0968 98.302 51.3728 98.782C51.6608 99.262 51.8048 99.832 51.8048 100.492V106H50.1848ZM55.9628 106V100.834C55.9628 100.198 55.7648 99.7 55.3688 99.34C54.9848 98.968 54.5048 98.782 53.9288 98.782C53.5328 98.782 53.1728 98.866 52.8488 99.034C52.5368 99.202 52.2848 99.436 52.0928 99.736C51.9008 100.036 51.8048 100.396 51.8048 100.816L50.8868 100.492C50.9228 99.832 51.0968 99.268 51.4088 98.8C51.7328 98.32 52.1468 97.948 52.6508 97.684C53.1548 97.408 53.7068 97.27 54.3068 97.27C54.9308 97.27 55.4888 97.402 55.9808 97.666C56.4728 97.93 56.8628 98.302 57.1508 98.782C57.4508 99.262 57.6008 99.838 57.6008 100.51V106H55.9628ZM59.8052 106V93.148H61.4252V106H59.8052ZM67.4314 106.18C66.6514 106.18 65.9434 105.988 65.3074 105.604C64.6714 105.208 64.1674 104.674 63.7954 104.002C63.4354 103.33 63.2554 102.574 63.2554 101.734C63.2554 100.894 63.4354 100.138 63.7954 99.466C64.1674 98.794 64.6654 98.26 65.2894 97.864C65.9254 97.468 66.6394 97.27 67.4314 97.27C68.0794 97.27 68.6554 97.408 69.1594 97.684C69.6754 97.948 70.0894 98.32 70.4014 98.8C70.7134 99.268 70.8874 99.814 70.9234 100.438V103.012C70.8874 103.624 70.7134 104.17 70.4014 104.65C70.1014 105.13 69.6934 105.508 69.1774 105.784C68.6734 106.048 68.0914 106.18 67.4314 106.18ZM67.7014 104.65C68.5054 104.65 69.1534 104.38 69.6454 103.84C70.1374 103.288 70.3834 102.586 70.3834 101.734C70.3834 101.146 70.2694 100.636 70.0414 100.204C69.8254 99.76 69.5134 99.418 69.1054 99.178C68.6974 98.926 68.2234 98.8 67.6834 98.8C67.1434 98.8 66.6634 98.926 66.2434 99.178C65.8354 99.43 65.5114 99.778 65.2714 100.222C65.0434 100.654 64.9294 101.152 64.9294 101.716C64.9294 102.292 65.0434 102.802 65.2714 103.246C65.5114 103.678 65.8414 104.02 66.2614 104.272C66.6814 104.524 67.1614 104.65 67.7014 104.65ZM70.2754 106V103.696L70.5814 101.608L70.2754 99.538V97.45H71.9134V106H70.2754Z" fill="black"/>
<defs>
<clipPath id="clip0_1032_1257">
<rect width="70" height="70" fill="white" transform="translate(8.5)"/>
</clipPath>
</defs>
</svg>
