<svg width="87" height="111" viewBox="0 0 87 111" fill="none" xmlns="http://www.w3.org/2000/svg">
<g clip-path="url(#clip0_1032_1302)">
<path opacity="0.65" d="M32.0185 10.3599C31.8076 13.1352 32.5797 15.8961 34.1997 18.1593C35.3803 19.7134 37.0871 20.7835 39.0003 21.1693C39.298 21.209 39.6008 21.185 39.8886 21.0989C40.1764 21.0129 40.4426 20.8668 40.6698 20.6702C41.6951 19.72 42.4654 18.5274 42.9099 17.2019C43.3543 15.8765 43.4588 14.4606 43.2136 13.0843C42.3337 7.80633 38.8806 4.38333 34.5336 1.18433C33.0573 4.03117 32.2001 7.1582 32.0185 10.3599Z" fill="url(#paint0_linear_1032_1302)"/>
<path opacity="0.65" d="M26.0802 14.1624C26.5946 16.8976 28.0549 19.3647 30.2053 21.1316C31.7478 22.3279 33.6737 22.9205 35.6219 22.7983C35.9197 22.7595 36.2059 22.658 36.4616 22.5004C36.7173 22.3428 36.9366 22.1327 37.1052 21.8841C37.8497 20.7008 38.285 19.3494 38.3713 17.954C38.4575 16.5585 38.1918 15.1638 37.5987 13.8978C35.3825 9.03001 31.1615 6.61431 26.1383 4.64941C25.448 7.78081 25.4282 11.0228 26.0802 14.1624Z" fill="url(#paint1_linear_1032_1302)"/>
<path opacity="0.65" d="M21.3285 19.3737C22.5336 21.883 24.5831 23.8882 27.1182 25.0381C28.9174 25.795 30.9308 25.8696 32.7812 25.2481C33.0589 25.1336 33.3091 24.9614 33.5153 24.743C33.7215 24.5246 33.879 24.2649 33.9775 23.9811C34.3901 22.6458 34.4608 21.2281 34.183 19.8583C33.9053 18.4885 33.288 17.2103 32.3878 16.1411C28.9865 12.0111 24.2846 10.7721 18.9219 10.175C19.0665 13.3767 19.8866 16.5115 21.3285 19.3737Z" fill="url(#paint2_linear_1032_1302)"/>
<path opacity="0.65" d="M18.091 25.6382C19.9042 27.7492 22.4023 29.1552 25.1477 29.61C27.0815 29.8746 29.0454 29.4248 30.6714 28.3451C30.9102 28.1624 31.1074 27.9311 31.25 27.6664C31.3926 27.4018 31.4774 27.1099 31.4988 26.81C31.552 25.413 31.2534 24.025 30.6305 22.7734C30.0076 21.5219 29.0803 20.4468 27.9337 19.6469C23.579 16.5368 18.7168 16.5585 13.3828 17.3691C14.3512 20.4268 15.9557 23.2449 18.091 25.6382Z" fill="url(#paint3_linear_1032_1302)"/>
<path opacity="0.65" d="M16.5816 32.5277C18.8797 34.0982 21.657 34.8101 24.4272 34.5388C26.3638 34.2939 28.1446 33.3511 29.4357 31.8872C29.6189 31.6491 29.7495 31.3749 29.8189 31.0827C29.8882 30.7904 29.8948 30.4868 29.8382 30.1918C29.528 28.8286 28.8804 27.5652 27.9547 26.5175C27.0291 25.4698 25.8552 24.6714 24.5406 24.1956C19.5286 22.3189 14.8379 23.5978 9.89453 25.7601C11.6211 28.4624 13.9001 30.7688 16.5816 32.5277Z" fill="url(#paint4_linear_1032_1302)"/>
<path opacity="0.65" d="M16.9056 39.5723C19.5317 40.4943 22.3985 40.4631 25.0039 39.4841C26.8111 38.7465 28.2872 37.3751 29.1556 35.6271C29.2709 35.3497 29.326 35.0511 29.3173 34.7509C29.3086 34.4506 29.2363 34.1557 29.1052 33.8855C28.4527 32.6491 27.5002 31.5965 26.3349 30.8241C25.1697 30.0517 23.8292 29.5844 22.4363 29.465C17.11 28.9491 12.91 31.3984 8.69531 34.7682C11.0626 36.9308 13.8606 38.568 16.9056 39.5723Z" fill="url(#paint5_linear_1032_1302)"/>
<path opacity="0.65" d="M19.0417 46.2937C21.816 46.5039 24.5758 45.7318 26.8383 44.1125C28.3923 42.9319 29.4625 41.2251 29.8483 39.3119C29.8879 39.0142 29.8639 38.7114 29.7779 38.4236C29.6919 38.1358 29.5457 37.8696 29.3492 37.6424C28.3989 36.6171 27.2063 35.8468 25.8809 35.4023C24.5554 34.9579 23.1396 34.8534 21.7633 35.0986C16.4853 35.9785 13.0623 39.4316 9.86328 43.7786C12.711 45.2553 15.839 46.1125 19.0417 46.2937Z" fill="url(#paint6_linear_1032_1302)"/>
<path opacity="0.65" d="M22.8489 52.2327C25.5842 51.7182 28.0512 50.258 29.8181 48.1076C31.0144 46.5651 31.607 44.6392 31.4848 42.691C31.446 42.3931 31.3445 42.1069 31.1869 41.8512C31.0293 41.5955 30.8193 41.3762 30.5706 41.2077C29.3873 40.4632 28.0359 40.0279 26.6405 39.9417C25.2451 39.8554 23.8504 40.1211 22.5843 40.7142C17.7137 42.9304 15.3043 47.1542 13.3359 52.1774C16.4675 52.8667 19.7095 52.8856 22.8489 52.2327Z" fill="url(#paint7_linear_1032_1302)"/>
<path opacity="0.65" d="M28.062 56.9842C30.571 55.7794 32.5762 53.7304 33.7264 51.1959C34.4832 49.3967 34.5579 47.3832 33.9364 45.5329C33.8218 45.2552 33.6497 45.005 33.4313 44.7988C33.2129 44.5926 32.9532 44.4351 32.6694 44.3366C31.334 43.924 29.9163 43.8533 28.5465 44.1311C27.1767 44.4088 25.8986 45.0261 24.8294 45.9263C20.6994 49.3276 19.4604 54.0295 18.8633 59.3922C22.065 59.2471 25.1998 58.4265 28.062 56.9842Z" fill="url(#paint8_linear_1032_1302)"/>
<path opacity="0.65" d="M34.3251 60.2246C36.4368 58.4114 37.8433 55.9131 38.2983 53.1672C38.5629 51.2334 38.1131 49.2694 37.0334 47.6435C36.8508 47.4049 36.6197 47.2078 36.3554 47.0652C36.091 46.9225 35.7993 46.8376 35.4997 46.8161C34.1026 46.763 32.7146 47.0617 31.463 47.6847C30.2114 48.3077 29.1364 49.2352 28.3366 50.3819C25.2265 54.7366 25.2482 59.5988 26.0588 64.9328C29.1155 63.9641 31.9327 62.3596 34.3251 60.2246Z" fill="url(#paint9_linear_1032_1302)"/>
<path opacity="0.65" d="M41.2139 61.7337C42.7843 59.4359 43.4962 56.6588 43.225 53.8888C42.9801 51.9523 42.0373 50.1715 40.5734 48.8803C40.3354 48.6971 40.0611 48.5665 39.7689 48.4971C39.4766 48.4277 39.173 48.4212 38.878 48.4778C37.5148 48.788 36.2514 49.4357 35.2038 50.3613C34.1561 51.2869 33.3577 52.4609 32.8818 53.7754C31.0051 58.7867 32.284 63.4774 34.4477 68.4201C37.1495 66.6936 39.4554 64.4149 41.2139 61.7337Z" fill="url(#paint10_linear_1032_1302)"/>
<path opacity="0.65" d="M48.2581 61.4082C49.1804 58.7822 49.1494 55.9154 48.1706 53.3099C47.4328 51.5026 46.0612 50.0265 44.3129 49.1582C44.0355 49.0429 43.7369 48.9878 43.4367 48.9965C43.1364 49.0052 42.8415 49.0775 42.5713 49.2086C41.3348 49.8611 40.2821 50.8138 39.5097 51.9792C38.7373 53.1445 38.2701 54.4852 38.1508 55.8782C37.6349 61.2045 40.0842 65.4045 43.454 69.6185C45.6166 67.2513 47.2538 64.4532 48.2581 61.4082Z" fill="url(#paint11_linear_1032_1302)"/>
<path opacity="0.65" d="M54.9807 59.2704C55.1916 56.4951 54.4195 53.7342 52.7995 51.471C51.6189 49.9169 49.9121 48.8468 47.9989 48.461C47.7012 48.4213 47.3984 48.4453 47.1106 48.5313C46.8228 48.6174 46.5566 48.7635 46.3294 48.9601C45.3041 49.9103 44.5338 51.1029 44.0893 52.4283C43.6449 53.7538 43.5404 55.1696 43.7856 56.546C44.6655 61.824 48.1186 65.247 52.4656 68.446C53.9419 65.5991 54.7991 62.4721 54.9807 59.2704Z" fill="url(#paint12_linear_1032_1302)"/>
<path opacity="0.65" d="M60.9164 55.4658C60.402 52.7306 58.9417 50.2635 56.7913 48.4966C55.2488 47.3003 53.3229 46.7077 51.3747 46.8299C51.0768 46.8687 50.7906 46.9703 50.5349 47.1279C50.2792 47.2855 50.0599 47.4955 49.8914 47.7441C49.1469 48.9275 48.7115 50.2789 48.6253 51.6743C48.539 53.0697 48.8047 54.4644 49.3979 55.7304C51.6141 60.601 55.8379 63.0105 60.8604 64.9789C61.5499 61.8473 61.569 58.6053 60.9164 55.4658Z" fill="url(#paint13_linear_1032_1302)"/>
<path opacity="0.65" d="M65.6688 50.2544C64.4636 47.7452 62.4141 45.74 59.8791 44.59C58.0798 43.8332 56.0664 43.7585 54.2161 44.38C53.9385 44.4946 53.6884 44.6668 53.4823 44.8852C53.2762 45.1036 53.1188 45.3633 53.0205 45.647C52.6078 46.9824 52.5372 48.4 52.8149 49.7699C53.0927 51.1397 53.71 52.4178 54.6102 53.487C58.0115 57.617 62.7134 58.856 68.0761 59.4531C67.9312 56.2514 67.1108 53.1166 65.6688 50.2544Z" fill="url(#paint14_linear_1032_1302)"/>
<path opacity="0.65" d="M68.9107 43.9901C67.0975 41.8784 64.5992 40.4719 61.8533 40.0169C59.9195 39.7523 57.9555 40.2021 56.3296 41.2818C56.091 41.4644 55.8939 41.6955 55.7513 41.9599C55.6086 42.2242 55.5237 42.5159 55.5022 42.8155C55.4488 44.2128 55.7474 45.6011 56.3704 46.853C56.9935 48.1048 57.9211 49.1801 59.068 49.98C63.4227 53.0901 68.2849 53.0684 73.6189 52.2578C72.6504 49.2006 71.0458 46.383 68.9107 43.9901Z" fill="url(#paint15_linear_1032_1302)"/>
<path opacity="0.65" d="M70.4185 37.1C68.1206 35.5297 65.3435 34.8177 62.5736 35.0889C60.637 35.3338 58.8562 36.2766 57.5651 37.7405C57.382 37.9786 57.2515 38.2528 57.1822 38.5451C57.113 38.8373 57.1065 39.141 57.1633 39.4359C57.4738 40.7986 58.1215 42.0615 59.047 43.1087C59.9724 44.156 61.146 44.9542 62.4602 45.43C67.4708 47.3067 72.1622 46.0278 77.1049 43.8641C75.3781 41.163 73.0994 38.8579 70.4185 37.1Z" fill="url(#paint16_linear_1032_1302)"/>
<path opacity="0.65" d="M70.0962 30.0552C67.4701 29.1332 64.6033 29.1644 61.9979 30.1434C60.1906 30.8812 58.7145 32.2528 57.8462 34.0011C57.7309 34.2785 57.6758 34.5771 57.6845 34.8773C57.6932 35.1776 57.7655 35.4725 57.8966 35.7427C58.5491 36.9791 59.5016 38.0317 60.6668 38.8041C61.8321 39.5765 63.1726 40.0438 64.5655 40.1632C69.8918 40.6791 74.0918 38.2298 78.3065 34.86C75.9393 32.6972 73.1412 31.0597 70.0962 30.0552Z" fill="url(#paint17_linear_1032_1302)"/>
<path opacity="0.65" d="M67.9579 23.3344C65.1836 23.1242 62.4237 23.8963 60.1613 25.5156C58.6073 26.6963 57.5371 28.4031 57.1513 30.3162C57.1117 30.614 57.1358 30.9168 57.222 31.2046C57.3082 31.4924 57.4544 31.7587 57.6511 31.9857C58.6013 33.0111 59.7939 33.7814 61.1194 34.2258C62.4448 34.6703 63.8607 34.7747 65.237 34.5295C70.515 33.6496 73.938 30.1965 77.137 25.8495C74.2891 24.3727 71.1608 23.5156 67.9579 23.3344Z" fill="url(#paint18_linear_1032_1302)"/>
<path opacity="0.65" d="M64.1516 17.3957C61.4164 17.9102 58.9493 19.3704 57.1824 21.5208C55.9862 23.0633 55.3936 24.9892 55.5157 26.9374C55.5549 27.2353 55.6568 27.5215 55.8147 27.7771C55.9727 28.0326 56.1831 28.2518 56.432 28.42C57.6154 29.1645 58.9668 29.5999 60.3622 29.6861C61.7576 29.7723 63.1523 29.5067 64.4183 28.9135C69.2889 26.6973 71.6983 22.4735 73.6667 17.451C70.5345 16.7614 67.2917 16.7425 64.1516 17.3957Z" fill="url(#paint19_linear_1032_1302)"/>
<path opacity="0.65" d="M58.9402 12.6441C56.4312 13.8489 54.426 15.8979 53.2758 18.4324C52.519 20.2316 52.4443 22.2451 53.0658 24.0954C53.1803 24.3731 53.3525 24.6233 53.5709 24.8295C53.7893 25.0357 54.049 25.1933 54.3328 25.2917C55.6682 25.7043 57.0858 25.775 58.4556 25.4972C59.8255 25.2195 61.1036 24.6022 62.1728 23.702C66.3028 20.3007 67.5418 15.5988 68.1389 10.2361C64.9372 10.3812 61.8023 11.2018 58.9402 12.6441Z" fill="url(#paint20_linear_1032_1302)"/>
<path opacity="0.65" d="M52.6761 9.40367C50.5644 11.2168 49.1579 13.7152 48.7029 16.4611C48.4384 18.3949 48.8881 20.3588 49.9678 21.9848C50.1504 22.2233 50.3815 22.4205 50.6459 22.5631C50.9103 22.7057 51.2019 22.7906 51.5015 22.8122C52.8983 22.8657 54.2861 22.5675 55.5377 21.9451C56.7892 21.3227 57.8644 20.3959 58.6646 19.2499C61.7747 14.8952 61.753 10.033 60.9424 4.69897C57.886 5.6666 55.0689 7.26994 52.6761 9.40367Z" fill="url(#paint21_linear_1032_1302)"/>
<path opacity="0.65" d="M45.7863 7.89465C44.2159 10.1925 43.504 12.9696 43.7752 15.7396C44.02 17.6761 44.9628 19.4569 46.4268 20.7481C46.6648 20.9313 46.939 21.0619 47.2313 21.1313C47.5236 21.2006 47.8272 21.2072 48.1222 21.1506C49.4854 20.8403 50.7488 20.1927 51.7964 19.2671C52.8441 18.3414 53.6425 17.1675 54.1184 15.853C55.9951 10.8417 54.7162 6.15095 52.5525 1.20825C49.8507 2.93479 47.5448 5.2135 45.7863 7.89465Z" fill="url(#paint22_linear_1032_1302)"/>
<path opacity="0.65" d="M38.7398 8.22007C37.8178 10.8462 37.849 13.713 38.828 16.3184C39.5658 18.1256 40.9374 19.6018 42.6857 20.4701C42.963 20.5853 43.2617 20.6404 43.5619 20.6318C43.8621 20.6231 44.1571 20.5508 44.4273 20.4197C45.6637 19.7671 46.7165 18.8144 47.4888 17.6491C48.2612 16.4837 48.7285 15.143 48.8478 13.7501C49.3651 8.42377 46.9158 4.22377 43.546 0.00976562C41.3827 2.37683 39.7447 5.17488 38.7398 8.22007Z" fill="url(#paint23_linear_1032_1302)"/>
</g>
<path d="M5.10002 106V93.508H6.28802L11.58 102.202H10.77L16.062 93.508H17.25V106H15.558V96.478L15.954 96.586L11.778 103.444H10.59L6.41402 96.586L6.79202 96.478V106H5.10002ZM23.8716 106.18C23.0196 106.18 22.2516 105.988 21.5676 105.604C20.8836 105.208 20.3436 104.674 19.9476 104.002C19.5516 103.33 19.3536 102.568 19.3536 101.716C19.3536 100.876 19.5456 100.12 19.9296 99.448C20.3256 98.776 20.8536 98.248 21.5136 97.864C22.1856 97.468 22.9356 97.27 23.7636 97.27C24.5556 97.27 25.2516 97.45 25.8516 97.81C26.4636 98.17 26.9376 98.668 27.2736 99.304C27.6216 99.94 27.7956 100.66 27.7956 101.464C27.7956 101.584 27.7896 101.716 27.7776 101.86C27.7656 101.992 27.7416 102.148 27.7056 102.328H20.4876V100.978H26.8416L26.2476 101.5C26.2476 100.924 26.1456 100.438 25.9416 100.042C25.7376 99.634 25.4496 99.322 25.0776 99.106C24.7056 98.878 24.2556 98.764 23.7276 98.764C23.1756 98.764 22.6896 98.884 22.2696 99.124C21.8496 99.364 21.5256 99.7 21.2976 100.132C21.0696 100.564 20.9556 101.074 20.9556 101.662C20.9556 102.262 21.0756 102.79 21.3156 103.246C21.5556 103.69 21.8976 104.038 22.3416 104.29C22.7856 104.53 23.2956 104.65 23.8716 104.65C24.3516 104.65 24.7896 104.566 25.1856 104.398C25.5936 104.23 25.9416 103.978 26.2296 103.642L27.2736 104.704C26.8656 105.184 26.3616 105.55 25.7616 105.802C25.1736 106.054 24.5436 106.18 23.8716 106.18ZM33.18 106.18C32.388 106.18 31.68 105.988 31.056 105.604C30.432 105.208 29.934 104.674 29.562 104.002C29.202 103.33 29.022 102.574 29.022 101.734C29.022 100.894 29.202 100.138 29.562 99.466C29.934 98.794 30.432 98.26 31.056 97.864C31.68 97.468 32.388 97.27 33.18 97.27C33.816 97.27 34.392 97.408 34.908 97.684C35.424 97.948 35.838 98.32 36.15 98.8C36.474 99.268 36.654 99.814 36.69 100.438V103.012C36.654 103.624 36.48 104.17 36.168 104.65C35.856 105.13 35.442 105.508 34.926 105.784C34.41 106.048 33.828 106.18 33.18 106.18ZM33.45 104.65C33.99 104.65 34.458 104.524 34.854 104.272C35.262 104.02 35.58 103.678 35.808 103.246C36.036 102.802 36.15 102.298 36.15 101.734C36.15 101.146 36.03 100.636 35.79 100.204C35.562 99.772 35.244 99.43 34.836 99.178C34.44 98.926 33.972 98.8 33.432 98.8C32.892 98.8 32.418 98.926 32.01 99.178C31.602 99.43 31.278 99.778 31.038 100.222C30.81 100.654 30.696 101.152 30.696 101.716C30.696 102.292 30.81 102.802 31.038 103.246C31.278 103.678 31.602 104.02 32.01 104.272C32.43 104.524 32.91 104.65 33.45 104.65ZM37.68 106H36.042V103.696L36.348 101.608L36.042 99.538V93.148H37.68V106ZM40.0566 106V97.45H41.6766V106H40.0566ZM40.8666 95.74C40.5666 95.74 40.3206 95.644 40.1286 95.452C39.9366 95.248 39.8406 94.996 39.8406 94.696C39.8406 94.408 39.9366 94.168 40.1286 93.976C40.3206 93.772 40.5666 93.67 40.8666 93.67C41.1666 93.67 41.4126 93.772 41.6046 93.976C41.7966 94.168 41.8926 94.408 41.8926 94.696C41.8926 94.996 41.7966 95.248 41.6046 95.452C41.4126 95.644 41.1666 95.74 40.8666 95.74ZM47.7 106.18C46.92 106.18 46.212 105.988 45.576 105.604C44.94 105.208 44.436 104.674 44.064 104.002C43.704 103.33 43.524 102.574 43.524 101.734C43.524 100.894 43.704 100.138 44.064 99.466C44.436 98.794 44.934 98.26 45.558 97.864C46.194 97.468 46.908 97.27 47.7 97.27C48.348 97.27 48.924 97.408 49.428 97.684C49.944 97.948 50.358 98.32 50.67 98.8C50.982 99.268 51.156 99.814 51.192 100.438V103.012C51.156 103.624 50.982 104.17 50.67 104.65C50.37 105.13 49.962 105.508 49.446 105.784C48.942 106.048 48.36 106.18 47.7 106.18ZM47.97 104.65C48.774 104.65 49.422 104.38 49.914 103.84C50.406 103.288 50.652 102.586 50.652 101.734C50.652 101.146 50.538 100.636 50.31 100.204C50.094 99.76 49.782 99.418 49.374 99.178C48.966 98.926 48.492 98.8 47.952 98.8C47.412 98.8 46.932 98.926 46.512 99.178C46.104 99.43 45.78 99.778 45.54 100.222C45.312 100.654 45.198 101.152 45.198 101.716C45.198 102.292 45.312 102.802 45.54 103.246C45.78 103.678 46.11 104.02 46.53 104.272C46.95 104.524 47.43 104.65 47.97 104.65ZM50.544 106V103.696L50.85 101.608L50.544 99.538V97.45H52.182V106H50.544ZM56.9534 106L53.5694 97.45H55.2614L57.7094 104.11H57.1694L59.5994 97.45H60.5354L62.9654 104.11H62.4254L64.8734 97.45H66.5654L63.1994 106H62.2454L59.7794 99.538H60.3734L57.8894 106H56.9534ZM67.8828 106V97.45H69.5028V106H67.8828ZM68.6928 95.74C68.3928 95.74 68.1468 95.644 67.9548 95.452C67.7628 95.248 67.6668 94.996 67.6668 94.696C67.6668 94.408 67.7628 94.168 67.9548 93.976C68.1468 93.772 68.3928 93.67 68.6928 93.67C68.9928 93.67 69.2388 93.772 69.4308 93.976C69.6228 94.168 69.7188 94.408 69.7188 94.696C69.7188 94.996 69.6228 95.248 69.4308 95.452C69.2388 95.644 68.9928 95.74 68.6928 95.74ZM77.3621 106L73.3661 101.626L77.3261 97.45H79.2881L74.8781 102.058L74.9501 101.122L79.4501 106H77.3621ZM71.8901 106V93.148H73.5101V106H71.8901ZM80.5566 106V97.45H82.1766V106H80.5566ZM81.3666 95.74C81.0666 95.74 80.8206 95.644 80.6286 95.452C80.4366 95.248 80.3406 94.996 80.3406 94.696C80.3406 94.408 80.4366 94.168 80.6286 93.976C80.8206 93.772 81.0666 93.67 81.3666 93.67C81.6666 93.67 81.9126 93.772 82.1046 93.976C82.2966 94.168 82.3926 94.408 82.3926 94.696C82.3926 94.996 82.2966 95.248 82.1046 95.452C81.9126 95.644 81.6666 95.74 81.3666 95.74Z" fill="black"/>
<defs>
<linearGradient id="paint0_linear_1032_1302" x1="8.49847" y1="69.9999" x2="78.4985" y2="-8.23448e-05" gradientUnits="userSpaceOnUse">
<stop stop-color="#0A00B2"/>
<stop offset="0.5" stop-color="#FF0000"/>
<stop offset="1" stop-color="#FFFC00"/>
</linearGradient>
<linearGradient id="paint1_linear_1032_1302" x1="8.49825" y1="70" x2="78.4982" y2="1.38713e-05" gradientUnits="userSpaceOnUse">
<stop stop-color="#0A00B2"/>
<stop offset="0.5" stop-color="#FF0000"/>
<stop offset="1" stop-color="#FFFC00"/>
</linearGradient>
<linearGradient id="paint2_linear_1032_1302" x1="8.49817" y1="69.9999" x2="78.4982" y2="-0.000145839" gradientUnits="userSpaceOnUse">
<stop stop-color="#0A00B2"/>
<stop offset="0.5" stop-color="#FF0000"/>
<stop offset="1" stop-color="#FFFC00"/>
</linearGradient>
<linearGradient id="paint3_linear_1032_1302" x1="8.50101" y1="70" x2="78.501" y2="-1.53444e-06" gradientUnits="userSpaceOnUse">
<stop stop-color="#0A00B2"/>
<stop offset="0.5" stop-color="#FF0000"/>
<stop offset="1" stop-color="#FFFC00"/>
</linearGradient>
<linearGradient id="paint4_linear_1032_1302" x1="8.50153" y1="70.0001" x2="78.5015" y2="7.01385e-05" gradientUnits="userSpaceOnUse">
<stop stop-color="#0A00B2"/>
<stop offset="0.5" stop-color="#FF0000"/>
<stop offset="1" stop-color="#FFFC00"/>
</linearGradient>
<linearGradient id="paint5_linear_1032_1302" x1="8.50001" y1="69.9999" x2="78.5" y2="-0.000127489" gradientUnits="userSpaceOnUse">
<stop stop-color="#0A00B2"/>
<stop offset="0.5" stop-color="#FF0000"/>
<stop offset="1" stop-color="#FFFC00"/>
</linearGradient>
<linearGradient id="paint6_linear_1032_1302" x1="8.49828" y1="69.9999" x2="78.4983" y2="-7.15866e-05" gradientUnits="userSpaceOnUse">
<stop stop-color="#0A00B2"/>
<stop offset="0.5" stop-color="#FF0000"/>
<stop offset="1" stop-color="#FFFC00"/>
</linearGradient>
<linearGradient id="paint7_linear_1032_1302" x1="8.49894" y1="70.0001" x2="78.4989" y2="8.06829e-05" gradientUnits="userSpaceOnUse">
<stop stop-color="#0A00B2"/>
<stop offset="0.5" stop-color="#FF0000"/>
<stop offset="1" stop-color="#FFFC00"/>
</linearGradient>
<linearGradient id="paint8_linear_1032_1302" x1="8.50188" y1="70" x2="78.5019" y2="2.73611e-05" gradientUnits="userSpaceOnUse">
<stop stop-color="#0A00B2"/>
<stop offset="0.5" stop-color="#FF0000"/>
<stop offset="1" stop-color="#FFFC00"/>
</linearGradient>
<linearGradient id="paint9_linear_1032_1302" x1="8.5014" y1="70.0001" x2="78.5014" y2="8.11879e-05" gradientUnits="userSpaceOnUse">
<stop stop-color="#0A00B2"/>
<stop offset="0.5" stop-color="#FF0000"/>
<stop offset="1" stop-color="#FFFC00"/>
</linearGradient>
<linearGradient id="paint10_linear_1032_1302" x1="8.5008" y1="70" x2="78.5008" y2="1.73065e-05" gradientUnits="userSpaceOnUse">
<stop stop-color="#0A00B2"/>
<stop offset="0.5" stop-color="#FF0000"/>
<stop offset="1" stop-color="#FFFC00"/>
</linearGradient>
<linearGradient id="paint11_linear_1032_1302" x1="8.49807" y1="70" x2="78.4981" y2="-5.67364e-06" gradientUnits="userSpaceOnUse">
<stop stop-color="#0A00B2"/>
<stop offset="0.5" stop-color="#FF0000"/>
<stop offset="1" stop-color="#FFFC00"/>
</linearGradient>
<linearGradient id="paint12_linear_1032_1302" x1="8.50072" y1="69.9999" x2="78.5007" y2="-5.59548e-05" gradientUnits="userSpaceOnUse">
<stop stop-color="#0A00B2"/>
<stop offset="0.5" stop-color="#FF0000"/>
<stop offset="1" stop-color="#FFFC00"/>
</linearGradient>
<linearGradient id="paint13_linear_1032_1302" x1="8.49827" y1="70" x2="78.4983" y2="-5.22018e-05" gradientUnits="userSpaceOnUse">
<stop stop-color="#0A00B2"/>
<stop offset="0.5" stop-color="#FF0000"/>
<stop offset="1" stop-color="#FFFC00"/>
</linearGradient>
<linearGradient id="paint14_linear_1032_1302" x1="8.49906" y1="70" x2="78.4991" y2="4.95033e-06" gradientUnits="userSpaceOnUse">
<stop stop-color="#0A00B2"/>
<stop offset="0.5" stop-color="#FF0000"/>
<stop offset="1" stop-color="#FFFC00"/>
</linearGradient>
<linearGradient id="paint15_linear_1032_1302" x1="8.50066" y1="70" x2="78.5007" y2="-2.09468e-06" gradientUnits="userSpaceOnUse">
<stop stop-color="#0A00B2"/>
<stop offset="0.5" stop-color="#FF0000"/>
<stop offset="1" stop-color="#FFFC00"/>
</linearGradient>
<linearGradient id="paint16_linear_1032_1302" x1="8.49855" y1="70" x2="78.4986" y2="-4.29514e-06" gradientUnits="userSpaceOnUse">
<stop stop-color="#0A00B2"/>
<stop offset="0.5" stop-color="#FF0000"/>
<stop offset="1" stop-color="#FFFC00"/>
</linearGradient>
<linearGradient id="paint17_linear_1032_1302" x1="8.50177" y1="70" x2="78.5018" y2="2.58618e-05" gradientUnits="userSpaceOnUse">
<stop stop-color="#0A00B2"/>
<stop offset="0.5" stop-color="#FF0000"/>
<stop offset="1" stop-color="#FFFC00"/>
</linearGradient>
<linearGradient id="paint18_linear_1032_1302" x1="8.50128" y1="69.9999" x2="78.5013" y2="-6.31052e-05" gradientUnits="userSpaceOnUse">
<stop stop-color="#0A00B2"/>
<stop offset="0.5" stop-color="#FF0000"/>
<stop offset="1" stop-color="#FFFC00"/>
</linearGradient>
<linearGradient id="paint19_linear_1032_1302" x1="8.50162" y1="70" x2="78.5016" y2="-3.18652e-06" gradientUnits="userSpaceOnUse">
<stop stop-color="#0A00B2"/>
<stop offset="0.5" stop-color="#FF0000"/>
<stop offset="1" stop-color="#FFFC00"/>
</linearGradient>
<linearGradient id="paint20_linear_1032_1302" x1="8.50031" y1="70" x2="78.5003" y2="-6.77545e-06" gradientUnits="userSpaceOnUse">
<stop stop-color="#0A00B2"/>
<stop offset="0.5" stop-color="#FF0000"/>
<stop offset="1" stop-color="#FFFC00"/>
</linearGradient>
<linearGradient id="paint21_linear_1032_1302" x1="8.49985" y1="69.9999" x2="78.4998" y2="-0.000131846" gradientUnits="userSpaceOnUse">
<stop stop-color="#0A00B2"/>
<stop offset="0.5" stop-color="#FF0000"/>
<stop offset="1" stop-color="#FFFC00"/>
</linearGradient>
<linearGradient id="paint22_linear_1032_1302" x1="8.4994" y1="70.0001" x2="78.4994" y2="6.35754e-05" gradientUnits="userSpaceOnUse">
<stop stop-color="#0A00B2"/>
<stop offset="0.5" stop-color="#FF0000"/>
<stop offset="1" stop-color="#FFFC00"/>
</linearGradient>
<linearGradient id="paint23_linear_1032_1302" x1="8.49981" y1="70" x2="78.4998" y2="-2.88016e-05" gradientUnits="userSpaceOnUse">
<stop stop-color="#0A00B2"/>
<stop offset="0.5" stop-color="#FF0000"/>
<stop offset="1" stop-color="#FFFC00"/>
</linearGradient>
<clipPath id="clip0_1032_1302">
<rect width="70" height="70" fill="white" transform="translate(8.5)"/>
</clipPath>
</defs>
</svg>
