<svg width="90" height="90" viewBox="0 0 90 90" fill="none" xmlns="http://www.w3.org/2000/svg">
<rect width="90" height="90" rx="45" fill="#EE2F5E"/>
<path d="M65.7721 57.4998V59.5832C65.7721 63.0207 65.7721 65.8332 59.5221 65.8332H30.3555C24.1055 65.8332 24.1055 63.0207 24.1055 59.5832V57.4998C24.1055 56.354 25.043 55.4165 26.1888 55.4165H63.6888C64.8346 55.4165 65.7721 56.354 65.7721 57.4998Z" fill="white"/>
<path d="M50.0208 30.7917C50.125 30.375 50.1875 29.9792 50.2083 29.5417C50.2708 27.125 48.7917 25 46.4583 24.375C42.9583 23.4167 39.7917 26.0417 39.7917 29.375C39.7917 29.875 39.8542 30.3333 39.9792 30.7917C32.4583 32.3958 26.8125 39.0833 26.8125 47.0833V50.2083C26.8125 51.3542 27.75 52.2917 28.8958 52.2917H61.0833C62.2292 52.2917 63.1667 51.3542 63.1667 50.2083V47.0833C63.1667 39.0833 57.5417 32.4167 50.0208 30.7917ZM51.25 44.4792H38.75C37.8958 44.4792 37.1875 43.7708 37.1875 42.9167C37.1875 42.0625 37.8958 41.3542 38.75 41.3542H51.25C52.1042 41.3542 52.8125 42.0625 52.8125 42.9167C52.8125 43.7708 52.1042 44.4792 51.25 44.4792Z" fill="white"/>
</svg>
