<svg width="87" height="111" viewBox="0 0 87 111" fill="none" xmlns="http://www.w3.org/2000/svg">
<path d="M63.2215 29.2431L77.3083 6.76318H43.4238L38.7422 14.2549L63.2215 29.2431Z" fill="url(#paint0_linear_1032_1267)"/>
<path opacity="0.15" d="M38.75 14.2549L41.1476 10.4097L63.2294 29.2431L38.75 14.2549Z" fill="black"/>
<path d="M70.6776 69.9994V36.2049L63.3676 31.6475L47.9961 55.865L70.6776 70V69.9994Z" fill="url(#paint1_linear_1032_1267)"/>
<path opacity="0.15" d="M47.9964 55.8628L51.7934 58.2276L63.3676 31.647L47.9961 55.8631L47.9964 55.8628Z" fill="black"/>
<path d="M16.1016 0V33.7953L23.9414 38.3525L63.2196 29.2387L16.1016 0Z" fill="url(#paint2_linear_1032_1267)"/>
<path d="M23.7778 40.9294L9.69141 63.0285H43.5742L63.3702 31.647L23.7778 40.9294Z" fill="url(#paint3_linear_1032_1267)"/>
<path d="M20.8676 106V93.508H22.0556L27.3476 102.202H26.5376L31.8296 93.508H33.0176V106H31.3256V96.478L31.7216 96.586L27.5456 103.444H26.3576L22.1816 96.586L22.5596 96.478V106H20.8676ZM39.5852 106.18C38.7452 106.18 37.9892 105.982 37.3172 105.586C36.6452 105.19 36.1112 104.656 35.7152 103.984C35.3192 103.3 35.1212 102.538 35.1212 101.698C35.1212 100.87 35.3192 100.126 35.7152 99.466C36.1112 98.794 36.6452 98.26 37.3172 97.864C37.9892 97.468 38.7452 97.27 39.5852 97.27C40.4132 97.27 41.1632 97.468 41.8352 97.864C42.5192 98.248 43.0592 98.776 43.4552 99.448C43.8512 100.12 44.0492 100.87 44.0492 101.698C44.0492 102.538 43.8512 103.3 43.4552 103.984C43.0592 104.656 42.5192 105.19 41.8352 105.586C41.1632 105.982 40.4132 106.18 39.5852 106.18ZM39.5852 104.614C40.1252 104.614 40.6052 104.488 41.0252 104.236C41.4452 103.984 41.7752 103.642 42.0152 103.21C42.2552 102.766 42.3752 102.262 42.3752 101.698C42.3752 101.146 42.2492 100.654 41.9972 100.222C41.7572 99.79 41.4272 99.454 41.0072 99.214C40.5992 98.962 40.1252 98.836 39.5852 98.836C39.0452 98.836 38.5652 98.962 38.1452 99.214C37.7252 99.454 37.3952 99.79 37.1552 100.222C36.9152 100.654 36.7952 101.146 36.7952 101.698C36.7952 102.262 36.9152 102.766 37.1552 103.21C37.3952 103.642 37.7252 103.984 38.1452 104.236C38.5652 104.488 39.0452 104.614 39.5852 104.614ZM49.4925 106.18C48.7005 106.18 47.9925 105.988 47.3685 105.604C46.7445 105.208 46.2465 104.674 45.8745 104.002C45.5145 103.33 45.3345 102.574 45.3345 101.734C45.3345 100.894 45.5145 100.138 45.8745 99.466C46.2465 98.794 46.7445 98.26 47.3685 97.864C47.9925 97.468 48.7005 97.27 49.4925 97.27C50.1285 97.27 50.7045 97.408 51.2205 97.684C51.7365 97.948 52.1505 98.32 52.4625 98.8C52.7865 99.268 52.9665 99.814 53.0025 100.438V103.012C52.9665 103.624 52.7925 104.17 52.4805 104.65C52.1685 105.13 51.7545 105.508 51.2385 105.784C50.7225 106.048 50.1405 106.18 49.4925 106.18ZM49.7625 104.65C50.3025 104.65 50.7705 104.524 51.1665 104.272C51.5745 104.02 51.8925 103.678 52.1205 103.246C52.3485 102.802 52.4625 102.298 52.4625 101.734C52.4625 101.146 52.3425 100.636 52.1025 100.204C51.8745 99.772 51.5565 99.43 51.1485 99.178C50.7525 98.926 50.2845 98.8 49.7445 98.8C49.2045 98.8 48.7305 98.926 48.3225 99.178C47.9145 99.43 47.5905 99.778 47.3505 100.222C47.1225 100.654 47.0085 101.152 47.0085 101.716C47.0085 102.292 47.1225 102.802 47.3505 103.246C47.5905 103.678 47.9145 104.02 48.3225 104.272C48.7425 104.524 49.2225 104.65 49.7625 104.65ZM53.9925 106H52.3545V103.696L52.6605 101.608L52.3545 99.538V93.148H53.9925V106ZM65.0811 106L61.1571 100.276H60.8511L55.9191 93.508H57.9351L61.8231 98.89H62.1291L67.0611 106H65.0811ZM55.7031 106L60.5451 99.358L61.6971 100.366L57.6111 106H55.7031ZM62.2371 99.97L61.1031 98.962L64.9551 93.508H66.8631L62.2371 99.97Z" fill="black"/>
<defs>
<linearGradient id="paint0_linear_1032_1267" x1="3320.95" y1="1260.72" x2="2110.57" y2="-1053.04" gradientUnits="userSpaceOnUse">
<stop stop-color="#80C3E6"/>
<stop offset="1" stop-color="#3380C2"/>
</linearGradient>
<linearGradient id="paint1_linear_1032_1267" x1="2846.28" y1="2566.63" x2="791.661" y2="2093.3" gradientUnits="userSpaceOnUse">
<stop stop-color="#F38649"/>
<stop offset="0.1849" stop-color="#F28147"/>
<stop offset="0.4091" stop-color="#EF7242"/>
<stop offset="0.6537" stop-color="#EA5A3A"/>
<stop offset="0.911" stop-color="#E4382E"/>
<stop offset="1" stop-color="#E12A29"/>
</linearGradient>
<linearGradient id="paint2_linear_1032_1267" x1="-186.27" y1="3056.43" x2="2838.3" y2="211.134" gradientUnits="userSpaceOnUse">
<stop stop-color="#0AF2F2"/>
<stop offset="1" stop-color="#26FCFC"/>
</linearGradient>
<linearGradient id="paint3_linear_1032_1267" x1="1233.03" y1="3932.25" x2="2315.76" y2="-1124.44" gradientUnits="userSpaceOnUse">
<stop stop-color="#FE9028"/>
<stop offset="1" stop-color="#EB7508"/>
</linearGradient>
</defs>
</svg>
