<svg width="87" height="111" viewBox="0 0 87 111" fill="none" xmlns="http://www.w3.org/2000/svg">
<path fill-rule="evenodd" clip-rule="evenodd" d="M82.1851 33.1843C80.7401 19.2384 73.6662 7.80738 62.7775 1.82127L59.4639 0L56.9732 2.84804C56.6579 3.20956 54.5035 5.89468 53.9612 12.3295C47.5621 10.3475 39.4342 10.3475 33.0393 12.3295C32.497 5.89678 30.3415 3.20956 30.0263 2.84804L27.5324 0L24.2188 1.82127C13.3311 7.80633 6.25624 19.2363 4.81121 33.1843C3.8948 41.9911 6.60935 50.409 12.4525 56.8922C28.2071 74.3693 58.7903 74.3693 74.5448 56.8922C80.3901 50.409 83.1015 41.9911 82.1851 33.1843ZM67.5561 50.5951C55.5555 63.9114 31.4387 63.9114 19.4413 50.5951C15.3447 46.0508 13.5213 40.3642 14.1656 34.1564C15.0368 25.7773 18.4376 18.6499 23.6923 13.7693C23.7763 15.1744 23.769 16.8706 23.563 18.9725L22.7097 27.7667L30.4845 23.5672C38.6712 19.148 48.3251 19.148 56.5077 23.5672L64.2825 27.7667L63.4291 18.9725C63.2231 16.8727 63.2189 15.1744 63.2999 13.7693C68.5587 18.6488 71.9553 25.7773 72.8265 34.1564C73.4729 40.3642 71.6537 46.0498 67.5561 50.5951Z" fill="#176B97"/>
<path d="M17.8442 106V93.508H19.0322L19.5362 95.47V106H17.8442ZM26.4842 106L18.8162 95.758L19.0322 93.508L26.7182 103.732L26.4842 106ZM26.4842 106L25.9802 104.146V93.508H27.6722V106H26.4842ZM34.2955 106.18C33.4435 106.18 32.6755 105.988 31.9915 105.604C31.3075 105.208 30.7675 104.674 30.3715 104.002C29.9755 103.33 29.7775 102.568 29.7775 101.716C29.7775 100.876 29.9695 100.12 30.3535 99.448C30.7495 98.776 31.2775 98.248 31.9375 97.864C32.6095 97.468 33.3595 97.27 34.1875 97.27C34.9795 97.27 35.6755 97.45 36.2755 97.81C36.8875 98.17 37.3615 98.668 37.6975 99.304C38.0455 99.94 38.2195 100.66 38.2195 101.464C38.2195 101.584 38.2135 101.716 38.2015 101.86C38.1895 101.992 38.1655 102.148 38.1295 102.328H30.9115V100.978H37.2655L36.6715 101.5C36.6715 100.924 36.5695 100.438 36.3655 100.042C36.1615 99.634 35.8735 99.322 35.5015 99.106C35.1295 98.878 34.6795 98.764 34.1515 98.764C33.5995 98.764 33.1135 98.884 32.6935 99.124C32.2735 99.364 31.9495 99.7 31.7215 100.132C31.4935 100.564 31.3795 101.074 31.3795 101.662C31.3795 102.262 31.4995 102.79 31.7395 103.246C31.9795 103.69 32.3215 104.038 32.7655 104.29C33.2095 104.53 33.7195 104.65 34.2955 104.65C34.7755 104.65 35.2135 104.566 35.6095 104.398C36.0175 104.23 36.3655 103.978 36.6535 103.642L37.6975 104.704C37.2895 105.184 36.7855 105.55 36.1855 105.802C35.5975 106.054 34.9675 106.18 34.2955 106.18ZM41.0538 106V93.868H42.6738V106H41.0538ZM38.9478 98.926V97.45H44.7798V98.926H38.9478ZM50.009 106.18C49.169 106.18 48.407 105.982 47.723 105.586C47.051 105.19 46.517 104.656 46.121 103.984C45.737 103.3 45.545 102.544 45.545 101.716C45.545 100.876 45.737 100.12 46.121 99.448C46.517 98.776 47.051 98.248 47.723 97.864C48.407 97.468 49.169 97.27 50.009 97.27C50.669 97.27 51.281 97.396 51.845 97.648C52.409 97.888 52.895 98.242 53.303 98.71L52.223 99.79C51.959 99.478 51.635 99.244 51.251 99.088C50.879 98.92 50.465 98.836 50.009 98.836C49.469 98.836 48.989 98.962 48.569 99.214C48.149 99.454 47.819 99.79 47.579 100.222C47.339 100.654 47.219 101.152 47.219 101.716C47.219 102.28 47.339 102.778 47.579 103.21C47.819 103.642 48.149 103.984 48.569 104.236C48.989 104.488 49.469 104.614 50.009 104.614C50.465 104.614 50.879 104.536 51.251 104.38C51.635 104.212 51.965 103.972 52.241 103.66L53.303 104.74C52.907 105.196 52.421 105.55 51.845 105.802C51.281 106.054 50.669 106.18 50.009 106.18ZM58.3875 106.18C57.6075 106.18 56.8995 105.988 56.2635 105.604C55.6275 105.208 55.1235 104.674 54.7515 104.002C54.3915 103.33 54.2115 102.574 54.2115 101.734C54.2115 100.894 54.3915 100.138 54.7515 99.466C55.1235 98.794 55.6215 98.26 56.2455 97.864C56.8815 97.468 57.5955 97.27 58.3875 97.27C59.0355 97.27 59.6115 97.408 60.1155 97.684C60.6315 97.948 61.0455 98.32 61.3575 98.8C61.6695 99.268 61.8435 99.814 61.8795 100.438V103.012C61.8435 103.624 61.6695 104.17 61.3575 104.65C61.0575 105.13 60.6495 105.508 60.1335 105.784C59.6295 106.048 59.0475 106.18 58.3875 106.18ZM58.6575 104.65C59.4615 104.65 60.1095 104.38 60.6015 103.84C61.0935 103.288 61.3395 102.586 61.3395 101.734C61.3395 101.146 61.2255 100.636 60.9975 100.204C60.7815 99.76 60.4695 99.418 60.0615 99.178C59.6535 98.926 59.1795 98.8 58.6395 98.8C58.0995 98.8 57.6195 98.926 57.1995 99.178C56.7915 99.43 56.4675 99.778 56.2275 100.222C55.9995 100.654 55.8855 101.152 55.8855 101.716C55.8855 102.292 55.9995 102.802 56.2275 103.246C56.4675 103.678 56.7975 104.02 57.2175 104.272C57.6375 104.524 58.1175 104.65 58.6575 104.65ZM61.2315 106V103.696L61.5375 101.608L61.2315 99.538V97.45H62.8695V106H61.2315ZM66.5069 106V93.868H68.1269V106H66.5069ZM64.4009 98.926V97.45H70.2329V98.926H64.4009Z" fill="black"/>
</svg>
