<svg width="87" height="111" viewBox="0 0 87 111" fill="none" xmlns="http://www.w3.org/2000/svg">
<circle cx="43.5" cy="35" r="35" fill="#3DCAF0"/>
<path d="M65.1942 28.3538C65.1781 26.5339 61.8187 25.7079 53.1224 25.7079C32.717 25.7079 27.5403 24.8354 22 19C24.3304 22.5039 25.6056 29.0758 47.1734 28.7488C69.676 28.4018 55.9482 34.5567 51.954 41.5106C59.1569 35.0751 65.1726 30.8332 65.1942 28.3802V28.3538ZM36.5204 47.0415C36.5201 47.8593 36.1954 48.6435 35.6176 49.2218C35.0399 49.8001 34.2564 50.125 33.4394 50.1252C31.732 50.1252 30.3516 48.7435 30.3516 47.0415C30.3513 46.6355 30.431 46.2334 30.586 45.8582C30.7411 45.4831 30.9685 45.1422 31.2553 44.8551C31.5421 44.568 31.8826 44.3403 32.2573 44.185C32.6321 44.0298 33.0338 43.95 33.4394 43.9502C35.1405 43.9502 36.5204 45.3324 36.5204 47.0415ZM50.5725 47.0415C50.5722 47.8593 50.2474 48.6435 49.6697 49.2218C49.0919 49.8001 48.3084 50.125 47.4914 50.1252C45.7856 50.1252 44.4041 48.7435 44.4041 47.0415C44.4038 46.6355 44.4834 46.2335 44.6384 45.8583C44.7935 45.4832 45.0209 45.1423 45.3076 44.8552C45.5943 44.5681 45.9348 44.3404 46.3095 44.1851C46.6842 44.0299 47.0859 43.95 47.4914 43.9502C49.1925 43.9502 50.5725 45.3324 50.5725 47.0415Z" fill="white"/>
<path d="M12.0449 106.18C11.1569 106.18 10.3289 106.018 9.56086 105.694C8.79286 105.358 8.12086 104.896 7.54486 104.308C6.96886 103.708 6.51886 103.018 6.19486 102.238C5.88286 101.458 5.72686 100.624 5.72686 99.736C5.72686 98.836 5.88286 98.002 6.19486 97.234C6.51886 96.454 6.96286 95.77 7.52686 95.182C8.10286 94.594 8.76886 94.138 9.52486 93.814C10.2929 93.49 11.1209 93.328 12.0089 93.328C12.8969 93.328 13.7189 93.49 14.4749 93.814C15.2429 94.138 15.9149 94.594 16.4909 95.182C17.0669 95.77 17.5169 96.454 17.8409 97.234C18.1649 98.014 18.3269 98.854 18.3269 99.754C18.3269 100.642 18.1649 101.476 17.8409 102.256C17.5169 103.036 17.0669 103.72 16.4909 104.308C15.9269 104.896 15.2609 105.358 14.4929 105.694C13.7369 106.018 12.9209 106.18 12.0449 106.18ZM12.0089 104.56C12.9089 104.56 13.6949 104.356 14.3669 103.948C15.0509 103.528 15.5909 102.958 15.9869 102.238C16.3829 101.506 16.5809 100.672 16.5809 99.736C16.5809 99.04 16.4669 98.404 16.2389 97.828C16.0109 97.24 15.6929 96.73 15.2849 96.298C14.8769 95.866 14.3969 95.536 13.8449 95.308C13.2929 95.068 12.6809 94.948 12.0089 94.948C11.1209 94.948 10.3349 95.152 9.65086 95.56C8.97886 95.968 8.44486 96.532 8.04886 97.252C7.66486 97.972 7.47286 98.8 7.47286 99.736C7.47286 100.432 7.58086 101.08 7.79686 101.68C8.02486 102.268 8.33686 102.778 8.73286 103.21C9.14086 103.63 9.62086 103.96 10.1729 104.2C10.7369 104.44 11.3489 104.56 12.0089 104.56ZM24.8599 106.18C24.2119 106.18 23.6239 106.048 23.0959 105.784C22.5799 105.508 22.1659 105.13 21.8539 104.65C21.5419 104.17 21.3679 103.624 21.3319 103.012V100.438C21.3679 99.814 21.5419 99.268 21.8539 98.8C22.1779 98.32 22.5979 97.948 23.1139 97.684C23.6419 97.408 24.2239 97.27 24.8599 97.27C25.6399 97.27 26.3419 97.468 26.9659 97.864C27.6019 98.26 28.0999 98.794 28.4599 99.466C28.8199 100.138 28.9999 100.894 28.9999 101.734C28.9999 102.574 28.8199 103.33 28.4599 104.002C28.0999 104.674 27.6019 105.208 26.9659 105.604C26.3419 105.988 25.6399 106.18 24.8599 106.18ZM20.3599 109.582V97.45H21.9799V99.7L21.6739 101.77L21.9799 103.858V109.582H20.3599ZM24.5899 104.65C25.1299 104.65 25.6039 104.524 26.0119 104.272C26.4199 104.02 26.7439 103.678 26.9839 103.246C27.2239 102.802 27.3439 102.292 27.3439 101.716C27.3439 101.152 27.2239 100.648 26.9839 100.204C26.7439 99.76 26.4199 99.418 26.0119 99.178C25.6039 98.926 25.1359 98.8 24.6079 98.8C24.0679 98.8 23.5939 98.926 23.1859 99.178C22.7779 99.418 22.4599 99.76 22.2319 100.204C22.0039 100.648 21.8899 101.158 21.8899 101.734C21.8899 102.298 21.9979 102.802 22.2139 103.246C22.4419 103.678 22.7599 104.02 23.1679 104.272C23.5879 104.524 24.0619 104.65 24.5899 104.65ZM34.7964 106.18C33.9444 106.18 33.1764 105.988 32.4924 105.604C31.8084 105.208 31.2684 104.674 30.8724 104.002C30.4764 103.33 30.2784 102.568 30.2784 101.716C30.2784 100.876 30.4704 100.12 30.8544 99.448C31.2504 98.776 31.7784 98.248 32.4384 97.864C33.1104 97.468 33.8604 97.27 34.6884 97.27C35.4804 97.27 36.1764 97.45 36.7764 97.81C37.3884 98.17 37.8624 98.668 38.1984 99.304C38.5464 99.94 38.7204 100.66 38.7204 101.464C38.7204 101.584 38.7144 101.716 38.7024 101.86C38.6904 101.992 38.6664 102.148 38.6304 102.328H31.4124V100.978H37.7664L37.1724 101.5C37.1724 100.924 37.0704 100.438 36.8664 100.042C36.6624 99.634 36.3744 99.322 36.0024 99.106C35.6304 98.878 35.1804 98.764 34.6524 98.764C34.1004 98.764 33.6144 98.884 33.1944 99.124C32.7744 99.364 32.4504 99.7 32.2224 100.132C31.9944 100.564 31.8804 101.074 31.8804 101.662C31.8804 102.262 32.0004 102.79 32.2404 103.246C32.4804 103.69 32.8224 104.038 33.2664 104.29C33.7104 104.53 34.2204 104.65 34.7964 104.65C35.2764 104.65 35.7144 104.566 36.1104 104.398C36.5184 104.23 36.8664 103.978 37.1544 103.642L38.1984 104.704C37.7904 105.184 37.2864 105.55 36.6864 105.802C36.0984 106.054 35.4684 106.18 34.7964 106.18ZM46.5348 106V101.014C46.5348 100.366 46.3308 99.832 45.9228 99.412C45.5148 98.992 44.9868 98.782 44.3388 98.782C43.9068 98.782 43.5228 98.878 43.1868 99.07C42.8508 99.262 42.5868 99.526 42.3948 99.862C42.2028 100.198 42.1068 100.582 42.1068 101.014L41.4408 100.636C41.4408 99.988 41.5848 99.412 41.8728 98.908C42.1608 98.404 42.5628 98.008 43.0788 97.72C43.5948 97.42 44.1768 97.27 44.8248 97.27C45.4728 97.27 46.0428 97.432 46.5348 97.756C47.0388 98.08 47.4348 98.506 47.7228 99.034C48.0108 99.55 48.1548 100.102 48.1548 100.69V106H46.5348ZM40.4868 106V97.45H42.1068V106H40.4868ZM54.2542 106.18C53.4142 106.18 52.6522 105.982 51.9682 105.586C51.2962 105.19 50.7622 104.656 50.3662 103.984C49.9822 103.3 49.7902 102.544 49.7902 101.716C49.7902 100.876 49.9822 100.12 50.3662 99.448C50.7622 98.776 51.2962 98.248 51.9682 97.864C52.6522 97.468 53.4142 97.27 54.2542 97.27C54.9142 97.27 55.5262 97.396 56.0902 97.648C56.6542 97.888 57.1402 98.242 57.5482 98.71L56.4682 99.79C56.2042 99.478 55.8802 99.244 55.4962 99.088C55.1242 98.92 54.7102 98.836 54.2542 98.836C53.7142 98.836 53.2342 98.962 52.8142 99.214C52.3942 99.454 52.0642 99.79 51.8242 100.222C51.5842 100.654 51.4642 101.152 51.4642 101.716C51.4642 102.28 51.5842 102.778 51.8242 103.21C52.0642 103.642 52.3942 103.984 52.8142 104.236C53.2342 104.488 53.7142 104.614 54.2542 104.614C54.7102 104.614 55.1242 104.536 55.4962 104.38C55.8802 104.212 56.2102 103.972 56.4862 103.66L57.5482 104.74C57.1522 105.196 56.6662 105.55 56.0902 105.802C55.5262 106.054 54.9142 106.18 54.2542 106.18ZM62.6326 106.18C61.8526 106.18 61.1446 105.988 60.5086 105.604C59.8726 105.208 59.3686 104.674 58.9966 104.002C58.6366 103.33 58.4566 102.574 58.4566 101.734C58.4566 100.894 58.6366 100.138 58.9966 99.466C59.3686 98.794 59.8666 98.26 60.4906 97.864C61.1266 97.468 61.8406 97.27 62.6326 97.27C63.2806 97.27 63.8566 97.408 64.3606 97.684C64.8766 97.948 65.2906 98.32 65.6026 98.8C65.9146 99.268 66.0886 99.814 66.1246 100.438V103.012C66.0886 103.624 65.9146 104.17 65.6026 104.65C65.3026 105.13 64.8946 105.508 64.3786 105.784C63.8746 106.048 63.2926 106.18 62.6326 106.18ZM62.9026 104.65C63.7066 104.65 64.3546 104.38 64.8466 103.84C65.3386 103.288 65.5846 102.586 65.5846 101.734C65.5846 101.146 65.4706 100.636 65.2426 100.204C65.0266 99.76 64.7146 99.418 64.3066 99.178C63.8986 98.926 63.4246 98.8 62.8846 98.8C62.3446 98.8 61.8646 98.926 61.4446 99.178C61.0366 99.43 60.7126 99.778 60.4726 100.222C60.2446 100.654 60.1306 101.152 60.1306 101.716C60.1306 102.292 60.2446 102.802 60.4726 103.246C60.7126 103.678 61.0426 104.02 61.4626 104.272C61.8826 104.524 62.3626 104.65 62.9026 104.65ZM65.4766 106V103.696L65.7826 101.608L65.4766 99.538V97.45H67.1146V106H65.4766ZM69.4732 106V97.45H71.0932V106H69.4732ZM71.0932 101.122L70.4812 100.852C70.4812 99.76 70.7332 98.89 71.2372 98.242C71.7412 97.594 72.4672 97.27 73.4152 97.27C73.8472 97.27 74.2372 97.348 74.5852 97.504C74.9332 97.648 75.2572 97.894 75.5572 98.242L74.4952 99.34C74.3152 99.148 74.1172 99.01 73.9012 98.926C73.6852 98.842 73.4332 98.8 73.1452 98.8C72.5452 98.8 72.0532 98.992 71.6692 99.376C71.2852 99.76 71.0932 100.342 71.0932 101.122ZM77.9942 106V93.868H79.6142V106H77.9942ZM75.8882 98.926V97.45H81.7202V98.926H75.8882Z" fill="black"/>
</svg>
