<svg width="89" height="111" viewBox="0 0 89 111" fill="none" xmlns="http://www.w3.org/2000/svg">
<g clip-path="url(#clip0_1032_1277)">
<path d="M32.1896 53.7075C32.7485 53.4587 33.3148 53.2298 33.8862 53.0152C34.5316 52.7726 35.1821 52.5446 35.8413 52.3461C36.6619 52.0989 37.4893 51.8752 38.328 51.6972C39.4596 51.4565 40.6038 51.2797 41.7552 51.1675C41.1043 53.209 40.3924 55.2304 39.6202 57.2291C39.6521 57.6193 39.6725 58.0103 39.6815 58.4016C41.2685 58.0878 42.8823 57.9297 44.5 57.9294C46.1491 57.9294 47.7594 58.094 49.3185 58.4016C49.3275 58.0103 49.3479 57.6193 49.3798 57.2291C48.6075 55.2304 47.8955 53.209 47.2448 51.1675C48.3973 51.2794 49.5414 51.4571 50.672 51.6972C51.5104 51.8752 52.3378 52.0989 53.1584 52.3461C53.8179 52.5446 54.4684 52.7726 55.1137 53.0152C55.6855 53.2301 56.2521 53.4589 56.811 53.7078C60.8513 55.5041 64.4506 58.161 67.3575 61.4928C74.7895 55.075 79.5 45.5905 79.5 35C79.5 15.6702 63.8298 0 44.5 0C25.1702 0 9.5 15.6702 9.5 35C9.5 45.5905 14.2105 55.0747 21.6425 61.4928C24.5496 58.1609 28.1491 55.5039 32.1896 53.7075Z" fill="#A5DBE8"/>
<path d="M56.8123 53.7077L58.985 61.1788L59.6014 61.2078C60.0014 61.2078 60.2828 61.3131 60.2828 61.7131C60.2828 62.3781 60.3172 63.1254 60.3809 63.7779C60.9223 64.2375 61.5816 64.756 62.0814 65.2596C63.9531 64.1696 65.7197 62.9086 67.3588 61.4928C64.4519 58.1609 60.8526 55.504 56.8123 53.7077ZM52.5639 53.6331L55.1151 53.0151C54.4698 52.7726 53.8193 52.5445 53.1597 52.346C52.3391 52.0988 51.5117 51.8751 50.6734 51.6971C49.5418 51.4564 48.3975 51.2796 47.2461 51.1675C47.8969 53.2089 48.6089 55.2304 49.3811 57.229C49.3493 57.6192 49.3288 58.0102 49.3198 58.4015C51.1275 58.7581 52.9049 59.3777 54.5482 60.1045L52.5639 53.6331Z" fill="#525353"/>
<path d="M26.918 65.2598C27.3243 65.4966 27.7347 65.7276 28.152 65.9483C28.298 65.2469 28.5315 64.2751 28.6021 63.5535C28.0607 64.0132 27.4178 64.7561 26.918 65.2598ZM54.5023 60.0401C52.8397 59.3037 51.1005 58.7542 49.3166 58.4017C47.7296 58.0879 46.1158 57.9298 44.4981 57.9294C42.8487 57.9294 41.2387 58.094 39.6796 58.4017C37.8721 58.758 35.9862 59.2985 34.3434 60.0251L34.1687 61.1136H54.828L54.5023 60.0401Z" fill="black"/>
<path d="M28.5381 63.7607C28.6021 63.1083 28.6483 62.5267 28.6483 61.8614C28.6483 61.4617 28.9225 61.2055 29.3226 61.2055L29.9786 61.1825L32.1877 53.7075C28.1472 55.5039 24.5477 58.1609 21.6406 61.4928C23.2797 62.9087 25.0463 64.1697 26.918 65.2597C27.4178 64.7556 27.9389 64.273 28.4798 63.8132" fill="#525353"/>
<path d="M60.6449 65.0905C60.7866 65.8014 60.8186 65.9431 60.8443 65.9483C61.2603 65.7272 61.6717 65.4976 62.0783 65.2597C61.5731 64.7501 61.0465 64.2622 60.5 63.7971L60.6449 65.0905Z" fill="black"/>
<path d="M54.5042 60.04L54.8298 61.1135H59.0555L56.8109 53.7078C56.2521 53.4602 55.6861 53.2292 55.1137 53.0151L52.5625 53.6331L54.5042 60.04Z" fill="#AA9678"/>
<path d="M30.0195 62.6093C30.0417 62.5937 30.0641 62.5781 30.086 62.5623H30.0225C30.022 62.5778 30.0204 62.5937 30.0195 62.6093Z" fill="#C4B6A1"/>
<path d="M58.9778 62.5623H58.9141L58.9805 62.6093C58.98 62.5937 58.9783 62.5778 58.9778 62.5623Z" fill="#AA9678"/>
<path d="M58.9046 62.4541L44.4688 62.4705L44.4988 69.9999C49.8713 69.9999 54.9595 68.7861 59.5086 66.6227C59.2117 65.3178 59.1819 63.9123 59.1335 62.5446C59.1116 62.5287 58.9046 62.4541 58.9046 62.4541Z" fill="#AA9678"/>
<path d="M44.4748 62.5017C44.4748 62.5017 29.9594 62.4834 29.9373 62.499C29.8891 63.867 29.607 65.4901 29.4883 66.6227C34.0375 68.7861 39.1256 69.9999 44.4981 69.9999L44.5063 62.526L44.4748 62.5017Z" fill="#C4B6A1"/>
<path d="M67.3893 34.7728C67.3904 34.7821 67.3931 34.7903 67.3942 34.7996C67.395 34.8053 67.3966 34.8105 67.3975 34.816V34.8182C67.4141 34.9519 67.4204 35.0916 67.4234 35.2324C67.424 35.2584 67.4284 35.2828 67.4284 35.3085L67.4286 35.318L67.4284 35.3284C67.4281 35.3563 67.4234 35.3823 67.4232 35.4099C67.4213 35.5457 67.4128 35.6813 67.3977 35.8162V35.8181L67.3939 35.8381C67.3928 35.8488 67.3895 35.8583 67.3882 35.8687C67.3698 36.0082 67.3436 36.1465 67.3097 36.283L67.3091 36.2849L67.3141 36.2797L67.316 36.2734V36.2737L68.232 35.3147L67.3086 34.3481L67.3089 34.3501C67.3433 34.4849 67.3696 34.6265 67.3893 34.7728Z" fill="#676A6A"/>
<path d="M67.3892 35.8686C67.3917 35.8506 67.3963 35.8345 67.3988 35.8161C67.4149 35.6849 67.4209 35.5479 67.4242 35.4098C67.4245 35.3786 67.4294 35.3494 67.4294 35.3179C67.4294 35.2887 67.425 35.2613 67.4245 35.2323C67.4229 35.0939 67.4142 34.9556 67.3985 34.8181C67.3963 34.8022 67.3922 34.7883 67.3903 34.7727C67.3717 34.6303 67.3449 34.4892 67.3099 34.35C67.2979 34.3029 67.2812 34.2611 67.2673 34.2157C67.1844 33.9417 67.0715 33.6997 66.9375 33.4988C66.8862 33.4224 66.8301 33.3493 66.7696 33.28C66.7143 33.2188 66.6537 33.1625 66.5886 33.1118C66.5645 33.0935 66.5391 33.0807 66.5145 33.0648C66.4391 33.0152 66.3574 32.9758 66.2717 32.9475C66.1907 32.9206 66.1062 32.906 66.0209 32.9043C65.9351 32.9043 65.852 32.9223 65.7702 32.9475C65.6843 32.9757 65.6026 33.0151 65.5271 33.0648C65.503 33.0807 65.4773 33.0932 65.4536 33.1116C65.3409 33.1994 65.242 33.3034 65.1599 33.4203C65.1407 33.446 65.1222 33.4723 65.1044 33.499C64.9704 33.7 64.8572 33.942 64.7746 34.216L64.7642 34.2488C64.7276 34.3746 64.6991 34.5069 64.6754 34.6428C64.6682 34.6844 64.6587 34.7243 64.6529 34.767C64.6311 34.919 64.6198 35.0776 64.6171 35.24C64.6168 35.2624 64.6133 35.2837 64.6133 35.3062H64.6188C64.6188 36.6395 65.2496 37.7201 66.0275 37.7201C66.1615 37.7201 66.2903 37.6851 66.413 37.6252C66.4866 37.5891 66.5561 37.5452 66.6203 37.4942C66.6468 37.4729 66.6717 37.4472 66.6971 37.4231C66.7592 37.3652 66.8183 37.2995 66.8743 37.2265C66.9132 37.1754 66.9514 37.1243 66.987 37.0671C67.0097 37.0307 67.0305 36.9914 67.0515 36.9525C67.0909 36.8798 67.1281 36.8041 67.1617 36.7237C67.1743 36.6947 67.1871 36.6665 67.1986 36.6367C67.2416 36.5249 67.279 36.4068 67.3107 36.2829C67.3444 36.1508 67.3695 36.0119 67.3892 35.8686ZM66.0715 34.9966C65.7798 34.9966 65.5432 34.5911 65.5432 34.0913C65.5432 33.5917 65.7798 33.1862 66.0715 33.1862C66.3633 33.1862 66.5995 33.5917 66.5995 34.0913C66.5995 34.5911 66.3633 34.9966 66.0715 34.9966Z" fill="black"/>
<path d="M66.0713 33.1863C65.7795 33.1863 65.543 33.5918 65.543 34.0914C65.543 34.5912 65.7795 34.9967 66.0713 34.9967C66.363 34.9967 66.5993 34.5912 66.5993 34.0914C66.5993 33.5918 66.363 33.1863 66.0713 33.1863Z" fill="white"/>
<path d="M64.7737 34.2161C64.8563 33.9421 64.9695 33.7001 65.1035 33.4991C65.1215 33.4718 65.1398 33.4464 65.159 33.4204C65.2408 33.3033 65.3398 33.1993 65.4527 33.1117C65.4764 33.0934 65.5021 33.0808 65.5262 33.0649C65.6016 33.0151 65.6834 32.9757 65.7693 32.9476C65.8508 32.9219 65.9342 32.9044 66.02 32.9044C66.1059 32.9044 66.1893 32.9219 66.2708 32.9476C66.3565 32.9759 66.4382 33.0153 66.5136 33.0649C66.5382 33.0808 66.5636 33.0936 66.5877 33.112C66.6506 33.1601 66.7107 33.217 66.7687 33.2801C66.8292 33.3494 66.8853 33.4225 66.9366 33.4989C67.0706 33.6998 67.1835 33.9418 67.2664 34.2158V34.2164L66.02 28.5078L64.7737 34.2161Z" fill="#909393"/>
<path d="M49.5023 35.2647C49.5007 35.1499 49.4933 35.0364 49.4804 34.9248C49.4802 34.9235 49.4796 34.9218 49.4796 34.9202C49.4667 34.8111 49.4483 34.7027 49.4247 34.5954L49.4225 34.5871C49.399 34.4825 49.3705 34.379 49.3369 34.2771L49.3342 34.2702C49.3008 34.1692 49.2623 34.0699 49.2188 33.9727C49.2182 33.9708 49.2169 33.9689 49.216 33.9667C48.8687 33.1937 48.2384 32.5831 47.4548 32.2605L47.4453 32.2569C47.2546 32.1791 47.057 32.1195 46.8552 32.0789C46.85 32.0781 46.8451 32.0778 46.8399 32.0767C46.6315 32.0356 46.4197 32.0148 46.2074 32.0146C45.9944 32.0146 45.7874 32.0365 45.5859 32.0751L45.5645 32.0784C45.3641 32.1183 45.1708 32.1768 44.9851 32.2512L44.9704 32.2569C44.7826 32.3331 44.6024 32.4265 44.432 32.5361C44.2616 32.646 44.1017 32.771 43.9546 32.9091L43.951 32.9203L43.9387 32.923C43.7031 33.1472 43.5014 33.4046 43.3401 33.687L43.3341 33.6971C43.2849 33.7838 43.2403 33.874 43.1993 33.9659C43.1949 33.9757 43.1895 33.985 43.1854 33.9949C43.1479 34.0799 43.1156 34.168 43.0856 34.2566C43.0798 34.2741 43.0722 34.2905 43.0667 34.3077C43.0404 34.3905 43.0191 34.4756 42.9989 34.5606C42.9937 34.5852 42.9858 34.6087 42.9806 34.6331C42.9631 34.7173 42.951 34.8034 42.9398 34.8898C42.9365 34.9164 42.9308 34.9418 42.9281 34.9683C42.8937 35.2958 42.9088 35.6265 42.9729 35.9494C42.9735 35.9535 42.9737 35.9582 42.9748 35.9625C43.0161 36.1684 43.0768 36.367 43.1547 36.557C43.1558 36.5597 43.1564 36.5625 43.1578 36.5649C43.3155 36.9465 43.5433 37.2952 43.8293 37.593C44.0535 37.8268 44.3117 38.0273 44.5955 38.1875L44.5996 38.19C44.6882 38.2397 44.7798 38.2846 44.873 38.3261C44.8807 38.3294 44.8881 38.3338 44.896 38.3371C44.9824 38.3748 45.0718 38.4073 45.1618 38.4377C45.1771 38.4429 45.1919 38.4495 45.2072 38.4544C45.2903 38.4809 45.3762 38.5022 45.462 38.5219C45.4853 38.5274 45.5077 38.535 45.5312 38.54C45.6146 38.5572 45.7004 38.5689 45.7869 38.5802C45.8128 38.5832 45.8385 38.5892 45.8651 38.5919C46.6351 38.673 47.4092 38.48 48.0509 38.0467C48.402 37.8094 48.7044 37.5071 48.9418 37.1561C49.3095 36.6116 49.5057 35.9694 49.5051 35.3123C49.5051 35.3044 49.504 35.297 49.504 35.2896C49.5037 35.2811 49.5026 35.2732 49.5023 35.2647ZM46.2074 34.8784C46.0447 34.8783 45.8836 34.8463 45.7333 34.784C45.583 34.7217 45.4465 34.6305 45.3315 34.5154C45.2164 34.4004 45.1252 34.2638 45.063 34.1135C45.0007 33.9632 44.9687 33.8021 44.9687 33.6394C44.9687 33.4767 45.0008 33.3156 45.0631 33.1654C45.1254 33.0151 45.2166 32.8785 45.3317 32.7635C45.4467 32.6485 45.5833 32.5572 45.7336 32.495C45.8839 32.4327 46.045 32.4007 46.2077 32.4007C46.5362 32.4008 46.8513 32.5313 47.0836 32.7637C47.3159 32.996 47.4464 33.3111 47.4463 33.6397C47.4463 33.9682 47.3158 34.2833 47.0834 34.5156C46.8511 34.7479 46.536 34.8784 46.2074 34.8784Z" fill="black"/>
<path d="M46.2074 32.4006C45.8789 32.4006 45.5638 32.5311 45.3316 32.7634C45.0993 32.9957 44.9688 33.3108 44.9688 33.6393C44.9688 33.9678 45.0993 34.2829 45.3316 34.5152C45.5638 34.7475 45.8789 34.878 46.2074 34.878C46.5359 34.878 46.851 34.7475 47.0833 34.5152C47.3156 34.2829 47.4461 33.9678 47.4461 33.6393C47.4461 33.3108 47.3156 32.9957 47.0833 32.7634C46.851 32.5311 46.5359 32.4006 46.2074 32.4006Z" fill="white"/>
<path d="M43.9393 32.9229L43.9516 32.9202L43.9552 32.909L46.2263 25.9631V24.3375L46.2261 24.3192C44.9442 24.0538 43.6387 23.9191 42.3296 23.9172C41.8852 23.9172 41.4445 23.9361 41.0064 23.9659C40.9427 23.9703 40.8787 23.9741 40.8147 23.979C38.5351 24.1521 36.2902 24.7463 34.2115 25.6951C32.4289 26.5092 30.7727 27.5813 29.2839 28.8525L29.2814 28.855C28.883 29.1961 28.4972 29.5515 28.1245 29.9206C28.0545 29.9889 27.9834 30.0567 27.9142 30.1262C27.5619 30.4815 27.2212 30.848 26.8924 31.2251C26.821 31.3074 26.7507 31.3914 26.6802 31.4745C26.3484 31.8638 26.0291 32.2635 25.7226 32.673C25.6972 32.7074 25.6734 32.7435 25.6482 32.778C25.3576 33.1749 25.0789 33.5805 24.8126 33.9942C24.7604 34.0749 24.7068 34.1545 24.6557 34.2359C24.4396 34.5786 24.2387 34.9305 24.0391 35.2832H34.3851L43.9393 32.9229Z" fill="#BBBCBD"/>
<path d="M52.6739 32.1416C52.695 31.8706 52.7122 31.5999 52.7262 31.3286C52.745 30.9617 52.7579 30.5942 52.765 30.227C52.7705 29.9418 52.7697 29.6563 52.7683 29.3711C52.7683 29.2888 52.7702 29.2065 52.7694 29.1239C52.7608 28.3875 52.7338 27.6515 52.6882 26.9164L52.6819 26.9123L52.6791 26.9071C52.4058 26.7501 52.1321 26.5937 51.858 26.4379L51.8389 26.427L51.6248 26.3059L51.6209 26.3037L51.4725 26.2205L51.4432 26.2041C51.4074 26.1842 51.3714 26.1646 51.3352 26.1453C50.8596 25.8985 50.3744 25.6706 49.8808 25.462C48.7042 24.9652 47.1193 24.5296 46.2266 24.3193V25.9632L48.4778 32.9203L48.4802 32.9261C48.7127 33.1475 48.9125 33.4021 49.0728 33.6827C49.1253 33.7745 49.1734 33.8697 49.2169 33.9668C49.218 33.9689 49.2191 33.9709 49.2196 33.9728C49.2631 34.0696 49.3014 34.1688 49.335 34.2703L49.3377 34.2771C49.3711 34.3786 49.3998 34.4819 49.4233 34.5872L49.4255 34.5954C49.449 34.7018 49.4673 34.8103 49.4805 34.9202C49.4805 34.9219 49.481 34.9235 49.4813 34.9249C49.4941 35.0364 49.5015 35.1499 49.5032 35.2648L49.5116 35.2834H52.2682C52.4531 34.2717 52.5861 33.2513 52.6666 32.2261C52.6685 32.1979 52.6718 32.1697 52.6739 32.1416Z" fill="#E3DDDB"/>
<path d="M56.2784 29.6816C56.2764 29.6846 56.2751 29.6882 56.2734 29.6912L56.2784 29.6816Z" fill="#FCB03F"/>
<path d="M43.957 32.909C44.1052 32.7702 44.2656 32.6451 44.4364 32.5352C44.6062 32.426 44.7858 32.3329 44.9729 32.2568C44.9778 32.2547 44.983 32.2533 44.9876 32.2511C45.175 32.1758 45.369 32.1179 45.567 32.0783L45.5884 32.075C45.7932 32.0353 46.0013 32.015 46.2099 32.0146C46.4264 32.0146 46.6375 32.0365 46.8423 32.0767C46.8475 32.0777 46.8525 32.078 46.8577 32.0788C47.0629 32.12 47.2637 32.1808 47.4573 32.2604C47.837 32.417 48.1844 32.6427 48.4819 32.9259L48.4794 32.9202L46.2282 25.9631L43.957 32.909Z" fill="#909393"/>
<path d="M43.1557 36.5568C43.0769 36.3649 43.0167 36.1658 42.9758 35.9624C42.9747 35.958 42.9745 35.9534 42.9739 35.9493C42.9098 35.6263 42.8947 35.2956 42.9291 34.9682C42.9318 34.9416 42.9375 34.9162 42.9408 34.8897C42.952 34.8033 42.9641 34.7171 42.9816 34.6329C42.9868 34.6086 42.9947 34.5851 42.9999 34.5605C43.0201 34.4754 43.0414 34.3904 43.0677 34.3075C43.0734 34.2903 43.0805 34.2739 43.0866 34.2564C43.1166 34.1678 43.1489 34.0798 43.1864 33.9947C43.1905 33.9849 43.1959 33.9756 43.2003 33.9657C43.2413 33.8739 43.2859 33.7836 43.3351 33.697L43.3411 33.6868C43.5024 33.4044 43.7041 33.147 43.9397 32.9229L34.3855 35.2832H34.3672L43.8303 37.5929C43.5443 37.2951 43.3165 36.9464 43.1588 36.5648C43.1574 36.5623 43.1568 36.5596 43.1557 36.5568Z" fill="#676A6A"/>
<path d="M64.6521 34.7669C64.6581 34.7243 64.6671 34.6844 64.6745 34.6428C64.6983 34.5069 64.7268 34.3746 64.7634 34.2488C64.7675 34.2346 64.7691 34.2184 64.7735 34.2045L66.0201 28.4962L66.0198 25.2415C65.0013 24.4001 63.9105 23.9402 62.775 23.9402C61.34 23.9402 60.002 24.7326 59.0015 25.7112C57.9067 26.7823 57.0607 28.1298 56.3765 29.4896C56.3451 29.5522 56.3128 29.6124 56.2816 29.6753C56.4925 29.8579 56.7011 30.043 56.907 30.2314C57.3723 30.6586 57.8295 31.0945 58.2786 31.5387C58.488 31.7455 58.6936 31.9566 58.8998 32.1668C59.1186 32.3897 59.3376 32.612 59.553 32.8384C59.9471 33.2523 60.3356 33.6714 60.7184 34.0957C61.047 34.458 61.3719 34.8236 61.6932 35.1924L61.6938 35.193C61.7477 35.2493 61.7854 35.2898 61.7999 35.3062H64.6114C64.6114 35.2835 64.616 35.2627 64.6163 35.24C64.619 35.0776 64.6302 34.919 64.6521 34.7669ZM56.2814 29.6903L56.2784 29.6818L56.2734 29.6911L56.2857 29.7032C56.2844 29.6988 56.2829 29.6945 56.2814 29.6903Z" fill="#E3DDDB"/>
<path d="M22.3433 38.8755L22.3684 38.8126C22.7459 37.833 23.1813 36.8768 23.6722 35.9488C23.7482 35.8045 23.8226 35.6596 23.9013 35.5165C23.9448 35.4375 23.994 35.362 24.0383 35.2833C24.2379 34.9306 24.4389 34.5787 24.6549 34.236C24.7061 34.1543 24.7596 34.075 24.8119 33.9943C25.0782 33.5806 25.3568 33.175 25.6475 32.7781C25.6727 32.7436 25.6964 32.7075 25.7219 32.6731C26.0283 32.2635 26.3477 31.8639 26.6795 31.4746C26.75 31.3915 26.82 31.3078 26.8916 31.2252C27.2204 30.8481 27.5612 30.4816 27.9135 30.1263C27.9829 30.0568 28.0538 29.989 28.1238 29.9206C28.4964 29.5516 28.8823 29.1962 29.2807 28.8551L29.2831 28.8526C30.8557 23.5851 35.9334 20.3481 41.6266 20.3481C43.9181 20.3481 46.1969 21.0085 48.1498 22.2031C50.153 23.4284 51.5188 24.6255 52.5792 26.7181L52.595 26.7496C52.6218 26.8026 52.6519 26.8535 52.6782 26.9071L52.6809 26.9123L52.6872 26.9164C53.5777 27.4674 54.426 28.0839 55.225 28.7607C55.4938 28.9876 55.7574 29.2204 56.0157 29.4591C56.1011 29.5373 56.1888 29.6117 56.2731 29.6912C56.2747 29.688 56.2761 29.6847 56.278 29.6817C56.2788 29.6794 56.2798 29.6772 56.281 29.6751C56.31 29.6158 56.3384 29.5553 56.3677 29.4968C57.1699 24.4336 59.7189 21.6727 62.3532 21.6727C64.3389 21.6727 65.7824 22.8567 66.8726 26.0438L66.8838 26.078L66.8865 26.0819C67.208 26.4325 67.5081 26.8021 67.7853 27.1887L67.7848 27.1885C67.7905 27.1961 67.7965 27.2032 67.8023 27.2112C67.8179 27.2574 67.8313 27.3049 67.8463 27.3512L67.8053 27.1849C64.5281 17.4828 55.3516 10.4976 44.5431 10.4976C30.9861 10.4976 19.9961 21.4876 19.9961 35.0446C19.9961 37.7172 20.4232 40.2902 21.2162 42.6844L21.2195 42.6705C21.4982 41.3791 21.8739 40.1105 22.3433 38.8755Z" fill="#525353"/>
<path d="M68.1739 35.3158L67.3178 36.2736V36.2734L67.3159 36.2796C67.2833 36.4057 67.2434 36.5233 67.1994 36.6367C67.1879 36.6666 67.175 36.6947 67.1625 36.7237C67.1296 36.8018 67.0929 36.8782 67.0523 36.9526C67.0312 36.9914 67.0104 37.0308 66.9877 37.0671C66.9522 37.124 66.9139 37.1757 66.8751 37.2266C66.8215 37.2968 66.7623 37.3626 66.6979 37.4232C66.6725 37.4469 66.6479 37.4729 66.6211 37.4942C66.5569 37.5452 66.4874 37.5891 66.4138 37.6252C66.291 37.6851 66.1622 37.7201 66.0282 37.7201C65.2503 37.7201 64.6195 36.6395 64.6195 35.3062H61.793L61.7946 35.3084C62.3256 35.9222 62.8483 36.5431 63.3625 37.171C63.8566 37.7749 64.3447 38.3836 64.8265 38.9973L64.8976 39.0873C65.3542 39.6702 65.8066 40.2562 66.2549 40.8455L66.3856 41.0161C66.8618 41.643 67.335 42.2722 67.805 42.9037C68.6322 40.4549 69.0667 37.8907 69.0924 35.3062L68.2978 35.2761L68.1739 35.3158Z" fill="white"/>
<path d="M40.816 23.9792C40.88 23.9743 40.944 23.9704 41.0077 23.9661C41.4481 23.9349 41.8894 23.9186 42.3309 23.9174C43.662 23.9174 44.9624 24.0599 46.2273 24.3194C47.1201 24.5296 48.7052 24.9652 49.8818 25.462C50.3754 25.6706 50.8606 25.8985 51.3362 26.1454L51.4443 26.2042L51.4735 26.2206C51.5175 26.2452 51.5657 26.2717 51.622 26.3037L51.6258 26.3059L51.8399 26.427L51.8591 26.4379C52.1615 26.6094 52.4962 26.8016 52.6241 26.8749L52.6569 26.8938L52.6802 26.9072C52.6539 26.8536 52.6239 26.8027 52.5971 26.7497L52.5812 26.7182C51.5208 24.6256 49.8884 22.8308 47.8852 21.6055C45.9323 20.4108 43.6535 19.7505 41.3618 19.7505C35.6688 19.7505 30.8577 23.5852 29.2852 28.8527C30.774 27.5815 32.4302 26.5093 34.2128 25.6953C36.2914 24.7465 38.5364 24.1523 40.816 23.9792Z" fill="black"/>
<path d="M67.8021 27.2112C67.7963 27.2033 67.7903 27.1962 67.7846 27.1885L67.7851 27.1888C67.5079 26.8022 67.2078 26.4326 66.8863 26.0819L66.8784 26.0723C66.7415 25.9236 66.6 25.7791 66.4543 25.6389C66.4004 25.5872 66.3446 25.5421 66.2902 25.4926C66.2003 25.4109 66.1109 25.3264 66.0195 25.2515V28.5078L67.2661 34.2167C67.2798 34.261 67.2962 34.3022 67.3082 34.3482L68.1718 35.3159L68.1802 35.3063H69.0839C69.085 35.2226 69.0902 35.1401 69.0902 35.0561V35.0547C69.0898 32.4368 68.6698 29.8359 67.8461 27.3509C67.8311 27.3047 67.8177 27.2574 67.8021 27.2112Z" fill="#BBBCBD"/>
<path d="M59.0041 25.7113C60.0046 24.7327 61.3426 23.9403 62.7776 23.9403C63.9132 23.9403 65.0039 24.4002 66.0225 25.2416L66.0227 25.2514C66.1141 25.3263 66.2035 25.4108 66.2934 25.4926C66.3479 25.5421 66.4036 25.5872 66.4575 25.6389C66.6032 25.779 66.7447 25.9235 66.8816 26.0723L66.8895 26.0818C66.8889 26.0806 66.888 26.0795 66.8871 26.0785L66.8868 26.0783L66.8756 26.0438C65.7854 22.8566 64.0264 20.7859 62.0412 20.7859C59.4066 20.7859 57.1729 24.4335 56.3707 29.4968L56.3791 29.4897C57.0633 28.1299 57.9093 26.7824 59.0041 25.7113ZM55.4443 56.8301C55.4443 56.8301 55.0896 56.5491 54.6393 56.0309C54.4297 55.7912 54.2344 55.5395 54.0544 55.277C53.997 55.1934 53.9401 55.1064 53.8835 55.0167C53.7131 54.7474 53.5772 54.4195 53.4274 54.0955C53.254 53.7203 53.2535 53.4707 53.1539 53.1212C53.0807 52.8639 53.0226 52.6025 52.9798 52.3384C52.9107 51.9111 52.8829 51.4782 52.8969 51.0456C52.9046 50.7959 52.9303 50.5375 52.9677 50.2745C53.0049 50.0132 53.0558 49.7541 53.12 49.4982C53.3186 48.7044 53.6617 47.8589 54.1971 46.9664L54.3333 46.6607C54.5083 46.3692 54.5471 46.3821 54.7134 46.1013C57.0551 42.1493 58.3184 39.1609 57.7004 34.5595C57.6326 34.0881 57.5557 33.618 57.4696 33.1496C57.4158 33.4891 57.3588 33.8281 57.2987 34.1666C57.2755 34.2716 57.2118 34.3856 57.1877 34.4569C56.1705 37.4675 54.5693 39.6821 52.2653 42.1826C51.9445 42.5295 51.6198 42.8726 51.2913 43.2121C50.7045 43.8188 50.1115 44.4195 49.5126 45.0141C49.2632 45.2621 49.0089 45.5137 48.7502 45.7701C48.5126 46.0053 48.217 46.5082 47.8643 46.8787C47.6466 47.4882 47.3992 48.1756 47.19 48.8985C47.0957 48.8627 47.0057 48.8307 46.9097 48.7935C42.4341 47.0624 39.4375 44.7494 39.4375 44.7494C39.4375 44.7494 41.7431 47.7515 45.6276 50.5695C45.9847 50.8283 46.3552 51.0682 46.7375 51.2881C46.5772 53.8245 47.6961 56.2595 52.7468 56.9857C53.6007 57.1085 54.4752 57.1028 55.3559 57.0035C55.3472 56.9773 55.4052 56.9778 55.4005 56.9633C55.3956 56.9485 55.4475 56.9097 55.4475 56.9097" fill="black"/>
<path d="M52.7409 50.3012C57.2248 51.0247 63.8608 50.906 70.7498 47.6805C70.9158 47.6029 71.0987 47.8074 71.2647 47.7259C71.2647 47.7259 66.5564 52.5349 60.9334 55.2537C60.769 55.333 60.6069 55.4175 60.4409 55.4929C59.8976 55.7412 59.345 55.9575 58.7902 56.1571C57.7022 56.5481 56.5997 56.8448 55.5051 56.9818C55.4548 56.9884 55.4045 56.9979 55.3542 57.0034C55.3472 56.9827 55.3404 56.962 55.3337 56.9413L55.3263 56.9186C55.3263 56.9186 54.9714 56.6373 54.521 56.1191C54.3113 55.8797 54.1161 55.6279 53.9364 55.3652C53.6854 55.0007 53.4658 54.6156 53.2799 54.2141C53.1227 53.875 52.9923 53.5242 52.8897 53.1649C52.6967 52.4905 52.6099 51.7903 52.6324 51.0892C52.6418 50.8311 52.6654 50.5737 52.7032 50.3181L52.7409 50.3012Z" fill="#9F2254"/>
<path d="M49.528 45.1964C50.1271 44.6018 50.7201 44.0011 51.307 43.3944C51.6354 43.0549 51.9601 42.7117 52.2809 42.3649C54.5846 39.8643 56.2759 37.5243 57.2933 34.5137C57.3171 34.4424 57.3412 34.3483 57.3644 34.2425L57.3754 34.1935C57.3991 34.0811 57.4224 33.9562 57.4456 33.8154C57.4549 33.7183 57.7593 33.5225 57.7677 33.4315C57.5126 32.1206 56.9247 30.7425 56.283 29.6903C56.2845 29.6945 56.286 29.6988 56.2873 29.7031L56.275 29.6911C56.1908 29.6115 56.103 29.5372 56.0177 29.459C55.7594 29.2203 55.4957 28.9874 55.227 28.7606C54.4279 28.0838 53.5796 27.4673 52.6892 26.9163C52.734 27.6529 52.7627 28.3887 52.7704 29.1237C52.7715 29.2063 52.7693 29.2886 52.7693 29.3709C52.7707 29.6561 52.7715 29.9416 52.766 30.2268C52.7589 30.5942 52.746 30.9615 52.7272 31.3284C52.7132 31.5997 52.696 31.8704 52.675 32.1414C52.6728 32.1695 52.6695 32.1977 52.6676 32.2259C52.5871 33.2511 52.4541 34.2715 52.2692 35.2832L51.9454 36.8141C51.2692 39.5556 49.8957 42.0423 48.7664 44.6099C48.467 45.2907 48.1829 45.9792 47.9338 46.6806L47.8633 46.8786C48.1598 46.5657 48.4606 46.257 48.7656 45.9524C49.0246 45.6962 49.2789 45.4444 49.528 45.1964Z" fill="#FCB03F"/>
<path d="M34.7109 59.941C36.3539 59.2142 37.8745 58.7578 39.682 58.4015C39.673 58.0102 39.6525 57.6192 39.6207 57.229C40.3928 55.2303 41.1048 53.2089 41.7557 51.1675C40.6043 51.2796 39.46 51.4564 38.3284 51.6971C37.4898 51.8751 36.6624 52.0988 35.8418 52.346C35.1825 52.5445 34.532 52.7726 33.8867 53.0151L36.4382 53.6331L34.3852 60.0769L34.7109 59.941Z" fill="#525353"/>
<path d="M66.2541 40.8455C65.8058 40.2563 65.3534 39.6702 64.8968 39.0873L64.8257 38.9974C64.3379 38.3761 63.8438 37.7598 63.3434 37.1486C62.8351 36.5283 62.3185 35.9149 61.7938 35.3084C61.7607 35.2699 61.7277 35.2308 61.694 35.1925C61.2616 34.6958 60.8226 34.205 60.3771 33.72C60.1055 33.4236 59.831 33.1297 59.5538 32.8384C59.3378 32.6129 59.1201 32.3891 58.9006 32.1669C58.6944 31.9566 58.4888 31.7455 58.2793 31.5388C57.8302 31.0947 57.3729 30.6588 56.9078 30.2315C56.7017 30.0433 56.4931 29.8578 56.2821 29.675C56.281 29.6772 56.28 29.6794 56.2791 29.6816C56.7227 30.9564 57.2288 32.247 57.4823 33.5765C57.5482 33.9224 57.6026 34.2587 57.6469 34.5874C58.2648 39.1885 56.7905 42.1927 54.449 46.1447C54.2776 46.4336 54.1054 46.7219 53.9325 47.0099C53.3971 47.9029 53.0542 48.7481 52.8554 49.5419C52.7913 49.7979 52.7405 50.057 52.7031 50.3182C57.295 51.0592 64.1998 51.1973 71.2646 47.726C71.2646 47.726 69.8791 45.6897 67.7944 42.8906C67.3276 42.2635 66.8577 41.6387 66.3848 41.0161C66.3416 40.959 66.2976 40.9021 66.2541 40.8455Z" fill="#DF0067"/>
<path d="M34.14 61.2287L36.4369 53.6331L33.8855 53.0151C33.314 53.2298 32.7477 53.4587 32.1888 53.7075L29.9141 61.2287L32.4535 61.2683L34.14 61.2287Z" fill="#AA9678"/>
<path d="M35.7572 57.9424C35.9814 58.0286 36.2095 58.1062 36.437 58.1858C39.0429 59.1003 41.7849 59.5669 44.5466 59.5658C47.6883 59.5676 50.8009 58.9644 53.7144 57.789C53.8643 57.7289 54.0111 57.6627 54.1593 57.5995C54.3996 57.4974 54.6384 57.3916 54.8754 57.2821C55.0871 57.1836 55.2987 57.086 55.5071 56.9818C55.4568 56.9884 55.4064 56.998 55.3561 57.0034C54.4754 57.1027 53.6009 57.1084 52.747 56.9857C47.6963 56.2594 46.5774 53.8245 46.7377 51.288C46.3554 51.0681 45.9849 50.8283 45.6278 50.5695C41.7433 47.7514 39.4377 44.7493 39.4377 44.7493C39.4377 44.7493 42.4343 47.0623 46.9099 48.7935C47.0059 48.8307 47.0959 48.8627 47.1902 48.8985C47.3994 48.1755 47.6468 47.4881 47.8645 46.8786L47.935 46.6806C48.1841 45.9793 48.4682 45.2907 48.7677 44.6099C49.897 42.0423 51.2704 39.5557 51.9466 36.8142L52.2704 35.2832H49.5081L49.5079 35.2835L49.5081 35.2889L49.507 35.2895C49.507 35.2969 49.5081 35.3043 49.5081 35.3122C49.5088 35.9693 49.3126 36.6115 48.9448 37.156C48.5864 37.6856 48.0826 38.1004 47.494 38.3504C46.9813 38.5674 46.4218 38.6504 45.8681 38.5918C45.8416 38.5891 45.8162 38.5833 45.7899 38.58C45.7035 38.5688 45.6177 38.5571 45.5343 38.5398C45.5107 38.5346 45.4883 38.5273 45.4651 38.5218C45.3792 38.5021 45.2934 38.4808 45.2102 38.4543C45.1949 38.4491 45.1802 38.4428 45.1648 38.4376C45.0749 38.4072 44.9855 38.3747 44.8991 38.337C44.8911 38.3337 44.8837 38.3296 44.8761 38.326C44.7829 38.2849 44.6917 38.2394 44.6027 38.1898L44.5986 38.1874C44.3155 38.0277 44.0574 37.8274 43.8324 37.5929L34.3693 35.2832H24.0415C23.9972 35.362 23.948 35.4374 23.9045 35.5164C23.8258 35.6595 23.7514 35.8047 23.6754 35.9488C23.4216 36.4282 23.1827 36.9153 22.959 37.4095C22.7498 37.8714 22.554 38.3393 22.3716 38.8125L22.3465 38.8754C21.8771 40.1104 21.5014 41.379 21.2227 42.6704C22.8485 47.6295 26.0119 51.8907 30.1471 54.8941C30.2674 54.9814 30.3943 55.059 30.5162 55.1443C31.216 55.6357 31.941 56.0901 32.6882 56.5058C33.6765 57.0555 34.702 57.5356 35.7572 57.9424Z" fill="white"/>
<path d="M60.5164 63.8132C60.4502 63.1568 60.4159 62.4976 60.4136 61.8379C60.4136 61.6458 60.3373 61.4616 60.2015 61.3258C60.0658 61.1899 59.8816 61.1136 59.6895 61.1135H29.3073C29.1153 61.1136 28.9311 61.1899 28.7952 61.3258C28.6594 61.4616 28.5831 61.6458 28.583 61.8379C28.583 62.5029 28.5439 63.1607 28.4802 63.8132C28.4094 64.5302 28.2999 65.2429 28.1523 65.9482C28.5929 66.1811 29.0369 66.4078 29.4886 66.6227C29.7907 65.3045 29.9676 63.9607 30.0169 62.6092C30.0177 62.5936 30.0194 62.5778 30.0199 62.5622H58.977C58.9775 62.5778 58.9791 62.5936 58.9797 62.6092C59.0292 63.9607 59.2062 65.3045 59.5082 66.6227C59.9584 66.4074 60.4039 66.1825 60.8445 65.9482C60.697 65.2429 60.5875 64.5302 60.5164 63.8132Z" fill="#8B7460"/>
</g>
<path d="M1.98695 101.14V99.664H5.38895C5.85695 99.664 6.27095 99.568 6.63095 99.376C7.00295 99.184 7.29095 98.914 7.49495 98.566C7.71095 98.218 7.81895 97.804 7.81895 97.324C7.81895 96.844 7.71095 96.43 7.49495 96.082C7.29095 95.734 7.00295 95.464 6.63095 95.272C6.27095 95.08 5.85695 94.984 5.38895 94.984H1.98695V93.508H5.49695C6.26495 93.508 6.94895 93.664 7.54895 93.976C8.16095 94.288 8.64095 94.732 8.98895 95.308C9.34895 95.872 9.52895 96.544 9.52895 97.324C9.52895 98.092 9.34895 98.764 8.98895 99.34C8.64095 99.904 8.16095 100.348 7.54895 100.672C6.94895 100.984 6.26495 101.14 5.49695 101.14H1.98695ZM0.852953 106V93.508H2.54495V106H0.852953ZM11.481 106V97.45H13.101V106H11.481ZM13.101 101.122L12.489 100.852C12.489 99.76 12.741 98.89 13.245 98.242C13.749 97.594 14.475 97.27 15.423 97.27C15.855 97.27 16.245 97.348 16.593 97.504C16.941 97.648 17.265 97.894 17.565 98.242L16.503 99.34C16.323 99.148 16.125 99.01 15.909 98.926C15.693 98.842 15.441 98.8 15.153 98.8C14.553 98.8 14.061 98.992 13.677 99.376C13.293 99.76 13.101 100.342 13.101 101.122ZM22.3843 106.18C21.5323 106.18 20.7643 105.988 20.0803 105.604C19.3963 105.208 18.8563 104.674 18.4603 104.002C18.0643 103.33 17.8663 102.568 17.8663 101.716C17.8663 100.876 18.0583 100.12 18.4423 99.448C18.8383 98.776 19.3663 98.248 20.0263 97.864C20.6983 97.468 21.4483 97.27 22.2763 97.27C23.0683 97.27 23.7643 97.45 24.3643 97.81C24.9763 98.17 25.4503 98.668 25.7863 99.304C26.1343 99.94 26.3083 100.66 26.3083 101.464C26.3083 101.584 26.3023 101.716 26.2903 101.86C26.2783 101.992 26.2543 102.148 26.2183 102.328H19.0003V100.978H25.3543L24.7603 101.5C24.7603 100.924 24.6583 100.438 24.4543 100.042C24.2503 99.634 23.9623 99.322 23.5903 99.106C23.2183 98.878 22.7683 98.764 22.2403 98.764C21.6883 98.764 21.2023 98.884 20.7823 99.124C20.3623 99.364 20.0383 99.7 19.8103 100.132C19.5823 100.564 19.4683 101.074 19.4683 101.662C19.4683 102.262 19.5883 102.79 19.8283 103.246C20.0683 103.69 20.4103 104.038 20.8543 104.29C21.2983 104.53 21.8083 104.65 22.3843 104.65C22.8643 104.65 23.3023 104.566 23.6983 104.398C24.1063 104.23 24.4543 103.978 24.7423 103.642L25.7863 104.704C25.3783 105.184 24.8743 105.55 24.2743 105.802C23.6863 106.054 23.0563 106.18 22.3843 106.18ZM30.7927 106.18C30.3127 106.18 29.8567 106.12 29.4247 106C29.0047 105.868 28.6147 105.688 28.2547 105.46C27.8947 105.22 27.5827 104.938 27.3187 104.614L28.3627 103.57C28.6747 103.954 29.0347 104.242 29.4427 104.434C29.8507 104.614 30.3067 104.704 30.8107 104.704C31.3147 104.704 31.7047 104.62 31.9807 104.452C32.2567 104.272 32.3947 104.026 32.3947 103.714C32.3947 103.402 32.2807 103.162 32.0527 102.994C31.8367 102.814 31.5547 102.67 31.2067 102.562C30.8587 102.442 30.4867 102.328 30.0907 102.22C29.7067 102.1 29.3407 101.95 28.9927 101.77C28.6447 101.59 28.3567 101.344 28.1287 101.032C27.9127 100.72 27.8047 100.306 27.8047 99.79C27.8047 99.274 27.9307 98.83 28.1827 98.458C28.4347 98.074 28.7827 97.78 29.2267 97.576C29.6827 97.372 30.2287 97.27 30.8647 97.27C31.5367 97.27 32.1307 97.39 32.6467 97.63C33.1747 97.858 33.6067 98.206 33.9427 98.674L32.8987 99.718C32.6587 99.406 32.3587 99.166 31.9987 98.998C31.6507 98.83 31.2547 98.746 30.8107 98.746C30.3427 98.746 29.9827 98.83 29.7307 98.998C29.4907 99.154 29.3707 99.376 29.3707 99.664C29.3707 99.952 29.4787 100.174 29.6947 100.33C29.9107 100.486 30.1927 100.618 30.5407 100.726C30.9007 100.834 31.2727 100.948 31.6567 101.068C32.0407 101.176 32.4067 101.326 32.7547 101.518C33.1027 101.71 33.3847 101.968 33.6007 102.292C33.8287 102.616 33.9427 103.042 33.9427 103.57C33.9427 104.374 33.6547 105.01 33.0787 105.478C32.5147 105.946 31.7527 106.18 30.7927 106.18ZM37.0704 106V93.868H38.6904V106H37.0704ZM34.9644 98.926V97.45H40.7964V98.926H34.9644ZM45.7556 106.18C44.9756 106.18 44.2676 105.988 43.6316 105.604C42.9956 105.208 42.4916 104.674 42.1196 104.002C41.7596 103.33 41.5796 102.574 41.5796 101.734C41.5796 100.894 41.7596 100.138 42.1196 99.466C42.4916 98.794 42.9896 98.26 43.6136 97.864C44.2496 97.468 44.9636 97.27 45.7556 97.27C46.4036 97.27 46.9796 97.408 47.4836 97.684C47.9996 97.948 48.4136 98.32 48.7256 98.8C49.0376 99.268 49.2116 99.814 49.2476 100.438V103.012C49.2116 103.624 49.0376 104.17 48.7256 104.65C48.4256 105.13 48.0176 105.508 47.5016 105.784C46.9976 106.048 46.4156 106.18 45.7556 106.18ZM46.0256 104.65C46.8296 104.65 47.4776 104.38 47.9696 103.84C48.4616 103.288 48.7076 102.586 48.7076 101.734C48.7076 101.146 48.5936 100.636 48.3656 100.204C48.1496 99.76 47.8376 99.418 47.4296 99.178C47.0216 98.926 46.5476 98.8 46.0076 98.8C45.4676 98.8 44.9876 98.926 44.5676 99.178C44.1596 99.43 43.8356 99.778 43.5956 100.222C43.3676 100.654 43.2536 101.152 43.2536 101.716C43.2536 102.292 43.3676 102.802 43.5956 103.246C43.8356 103.678 44.1656 104.02 44.5856 104.272C45.0056 104.524 45.4856 104.65 46.0256 104.65ZM48.5996 106V103.696L48.9056 101.608L48.5996 99.538V97.45H50.2376V106H48.5996ZM55.3142 106.18C54.8342 106.18 54.3782 106.12 53.9462 106C53.5262 105.868 53.1362 105.688 52.7762 105.46C52.4162 105.22 52.1042 104.938 51.8402 104.614L52.8842 103.57C53.1962 103.954 53.5562 104.242 53.9642 104.434C54.3722 104.614 54.8282 104.704 55.3322 104.704C55.8362 104.704 56.2262 104.62 56.5022 104.452C56.7782 104.272 56.9162 104.026 56.9162 103.714C56.9162 103.402 56.8022 103.162 56.5742 102.994C56.3582 102.814 56.0762 102.67 55.7282 102.562C55.3802 102.442 55.0082 102.328 54.6122 102.22C54.2282 102.1 53.8622 101.95 53.5142 101.77C53.1662 101.59 52.8782 101.344 52.6502 101.032C52.4342 100.72 52.3262 100.306 52.3262 99.79C52.3262 99.274 52.4522 98.83 52.7042 98.458C52.9562 98.074 53.3042 97.78 53.7482 97.576C54.2042 97.372 54.7502 97.27 55.3862 97.27C56.0582 97.27 56.6522 97.39 57.1682 97.63C57.6962 97.858 58.1282 98.206 58.4642 98.674L57.4202 99.718C57.1802 99.406 56.8802 99.166 56.5202 98.998C56.1722 98.83 55.7762 98.746 55.3322 98.746C54.8642 98.746 54.5042 98.83 54.2522 98.998C54.0122 99.154 53.8922 99.376 53.8922 99.664C53.8922 99.952 54.0002 100.174 54.2162 100.33C54.4322 100.486 54.7142 100.618 55.0622 100.726C55.4222 100.834 55.7942 100.948 56.1782 101.068C56.5622 101.176 56.9282 101.326 57.2762 101.518C57.6242 101.71 57.9062 101.968 58.1222 102.292C58.3502 102.616 58.4642 103.042 58.4642 103.57C58.4642 104.374 58.1762 105.01 57.6002 105.478C57.0362 105.946 56.2742 106.18 55.3142 106.18ZM66.3258 106V101.014C66.3258 100.366 66.1218 99.832 65.7138 99.412C65.3058 98.992 64.7778 98.782 64.1298 98.782C63.6978 98.782 63.3138 98.878 62.9778 99.07C62.6418 99.262 62.3778 99.526 62.1858 99.862C61.9938 100.198 61.8978 100.582 61.8978 101.014L61.2318 100.636C61.2318 99.988 61.3758 99.412 61.6638 98.908C61.9518 98.404 62.3538 98.008 62.8698 97.72C63.3858 97.42 63.9678 97.27 64.6158 97.27C65.2638 97.27 65.8338 97.414 66.3258 97.702C66.8298 97.99 67.2258 98.392 67.5138 98.908C67.8018 99.424 67.9458 100.018 67.9458 100.69V106H66.3258ZM60.2778 106V93.148H61.8978V106H60.2778ZM74.0452 106.18C73.2052 106.18 72.4492 105.982 71.7772 105.586C71.1052 105.19 70.5712 104.656 70.1752 103.984C69.7792 103.3 69.5812 102.538 69.5812 101.698C69.5812 100.87 69.7792 100.126 70.1752 99.466C70.5712 98.794 71.1052 98.26 71.7772 97.864C72.4492 97.468 73.2052 97.27 74.0452 97.27C74.8732 97.27 75.6232 97.468 76.2952 97.864C76.9792 98.248 77.5192 98.776 77.9152 99.448C78.3112 100.12 78.5092 100.87 78.5092 101.698C78.5092 102.538 78.3112 103.3 77.9152 103.984C77.5192 104.656 76.9792 105.19 76.2952 105.586C75.6232 105.982 74.8732 106.18 74.0452 106.18ZM74.0452 104.614C74.5852 104.614 75.0652 104.488 75.4852 104.236C75.9052 103.984 76.2352 103.642 76.4752 103.21C76.7152 102.766 76.8352 102.262 76.8352 101.698C76.8352 101.146 76.7092 100.654 76.4572 100.222C76.2172 99.79 75.8872 99.454 75.4672 99.214C75.0592 98.962 74.5852 98.836 74.0452 98.836C73.5052 98.836 73.0252 98.962 72.6052 99.214C72.1852 99.454 71.8552 99.79 71.6152 100.222C71.3752 100.654 71.2552 101.146 71.2552 101.698C71.2552 102.262 71.3752 102.766 71.6152 103.21C71.8552 103.642 72.1852 103.984 72.6052 104.236C73.0252 104.488 73.5052 104.614 74.0452 104.614ZM84.8345 106.18C84.1865 106.18 83.5985 106.048 83.0705 105.784C82.5545 105.508 82.1405 105.13 81.8285 104.65C81.5165 104.17 81.3425 103.624 81.3065 103.012V100.438C81.3425 99.814 81.5165 99.268 81.8285 98.8C82.1525 98.32 82.5725 97.948 83.0885 97.684C83.6165 97.408 84.1985 97.27 84.8345 97.27C85.6145 97.27 86.3165 97.468 86.9405 97.864C87.5765 98.26 88.0745 98.794 88.4345 99.466C88.7945 100.138 88.9745 100.894 88.9745 101.734C88.9745 102.574 88.7945 103.33 88.4345 104.002C88.0745 104.674 87.5765 105.208 86.9405 105.604C86.3165 105.988 85.6145 106.18 84.8345 106.18ZM80.3345 109.582V97.45H81.9545V99.7L81.6485 101.77L81.9545 103.858V109.582H80.3345ZM84.5645 104.65C85.1045 104.65 85.5785 104.524 85.9865 104.272C86.3945 104.02 86.7185 103.678 86.9585 103.246C87.1985 102.802 87.3185 102.292 87.3185 101.716C87.3185 101.152 87.1985 100.648 86.9585 100.204C86.7185 99.76 86.3945 99.418 85.9865 99.178C85.5785 98.926 85.1105 98.8 84.5825 98.8C84.0425 98.8 83.5685 98.926 83.1605 99.178C82.7525 99.418 82.4345 99.76 82.2065 100.204C81.9785 100.648 81.8645 101.158 81.8645 101.734C81.8645 102.298 81.9725 102.802 82.1885 103.246C82.4165 103.678 82.7345 104.02 83.1425 104.272C83.5625 104.524 84.0365 104.65 84.5645 104.65Z" fill="black"/>
<defs>
<clipPath id="clip0_1032_1277">
<rect width="70" height="70" fill="white" transform="translate(9.5)"/>
</clipPath>
</defs>
</svg>
