<svg width="50" height="50" viewBox="0 0 50 50" fill="none" xmlns="http://www.w3.org/2000/svg">
<circle cx="25" cy="25" r="25" fill="#EE2F5E"/>
<path d="M37.1875 31V34.4375C37.1875 37.0912 35.0287 39.25 32.375 39.25H18.625C15.9713 39.25 13.8125 37.0912 13.8125 34.4375V33.5438C13.8125 31.385 15.5725 29.625 17.7312 29.625H35.8125C36.5688 29.625 37.1875 30.2437 37.1875 31Z" fill="white"/>
<path d="M30.3125 11.75H20.6875C15.1875 11.75 13.8125 13.125 13.8125 18.625V29.0475C14.8575 28.1262 16.2325 27.5625 17.7312 27.5625H35.8125C36.5688 27.5625 37.1875 26.9438 37.1875 26.1875V18.625C37.1875 13.125 35.8125 11.75 30.3125 11.75ZM26.875 23.7812H20C19.4363 23.7812 18.9688 23.3138 18.9688 22.75C18.9688 22.1862 19.4363 21.7188 20 21.7188H26.875C27.4388 21.7188 27.9062 22.1862 27.9062 22.75C27.9062 23.3138 27.4388 23.7812 26.875 23.7812ZM31 18.9688H20C19.4363 18.9688 18.9688 18.5012 18.9688 17.9375C18.9688 17.3738 19.4363 16.9062 20 16.9062H31C31.5637 16.9062 32.0312 17.3738 32.0312 17.9375C32.0312 18.5012 31.5637 18.9688 31 18.9688Z" fill="white"/>
</svg>
