<svg width="163" height="49" viewBox="0 0 163 49" fill="none" xmlns="http://www.w3.org/2000/svg">
<g clip-path="url(#clip0_1331_1912)">
<path fill-rule="evenodd" clip-rule="evenodd" d="M16.6932 28.5757C12.2862 28.5757 8.71365 24.9921 8.71365 20.5716C8.71365 17.8414 10.0764 15.4304 12.1568 13.9858C12.1617 13.9825 12.1666 13.9791 12.1714 13.9757L12.173 13.9746L27.7409 3.16466C28.3307 2.91492 28.7446 2.32936 28.7446 1.64682C28.7446 0.737306 28.0096 0 27.1029 0H2.27463C1.01839 0 0 1.02153 0 2.28164V46.7183C0 47.9785 1.01839 49 2.27463 49C2.67435 49 3.04997 48.8965 3.37624 48.715L3.69144 48.5034L26.1013 33.4582L30.3261 30.6218C30.3264 30.6216 30.3267 30.6214 30.327 30.6212L30.3323 30.6177C31.3549 29.9312 32.0282 28.7619 32.0282 27.4348C32.0282 25.3211 30.32 23.6076 28.2127 23.6076C27.5617 23.6076 26.9488 23.7711 26.4126 24.0595L26.1612 24.2073L21.8704 26.7313L21.5662 26.9103C21.0328 27.3234 20.4459 27.6704 19.8176 27.9388C18.858 28.3488 17.802 28.5757 16.6931 28.5757L16.6932 28.5757Z" fill="white"/>
<path fill-rule="evenodd" clip-rule="evenodd" d="M13.4441 20.3146C13.4441 22.4283 15.1524 24.1418 17.2596 24.1418C17.8258 24.1418 18.3632 24.0181 18.8464 23.7962L19.626 23.317L25.0779 19.9662C25.4652 19.6765 25.8796 19.4212 26.3166 19.2048C27.38 18.6784 28.5773 18.3826 29.8434 18.3826C34.2503 18.3826 37.8229 21.9662 37.8229 26.3867C37.8229 28.8249 36.736 31.0085 35.0217 32.4766C29.2732 37.3995 20.0902 43.1362 13.6582 47.728C13.4652 47.8442 13.3359 48.0561 13.3359 48.2984C13.3359 48.6655 13.6326 48.9631 13.9986 48.9631C21.868 48.8696 25.8027 48.8229 25.8027 48.8229C32.317 48.7406 37.5816 46.6522 41.5967 42.5576C47.855 36.4869 50.7258 29.5039 50.2091 21.6089C49.4858 14.9951 45.5592 8.55919 38.4314 2.55037C38.1489 2.28991 37.8716 2.09766 37.4753 2.09766C37.2513 2.09766 37.0433 2.16642 36.8712 2.28403L36.8692 2.28544L20.4475 13.5065L15.198 17.0935C14.1429 17.7744 13.4442 18.9626 13.4442 20.3145L13.4441 20.3146Z" fill="white"/>
<path d="M71.2757 19.4516H76.0725C76.0021 15.2272 72.5386 12.3076 67.2703 12.3076C62.0832 12.3076 58.2837 15.1783 58.3108 19.4897C58.3 22.9855 60.7553 24.9918 64.7553 25.9541L67.3299 26.601C69.9045 27.2263 71.3353 27.9657 71.3462 29.5641C71.3354 31.3039 69.6985 32.4837 67.1564 32.4837C64.5548 32.4837 62.6848 31.2822 62.5222 28.9063H57.6875C57.8121 34.0386 61.4762 36.6918 67.2106 36.6918C72.9885 36.6918 76.3815 33.9245 76.3924 29.5804C76.3815 25.6279 73.4167 23.5293 69.3028 22.605L67.1782 22.0939C65.1239 21.6209 63.4003 20.8543 63.4383 19.1526C63.4383 17.6249 64.7879 16.4994 67.2378 16.4994C69.628 16.4994 71.0915 17.5868 71.2758 19.4516L71.2757 19.4516Z" fill="white"/>
<path d="M75.7734 12.6279L84.3968 27.9652V36.3542H89.3617V27.9652L97.9905 12.6279H92.3915L86.9985 22.8492H86.7654L81.3724 12.6279H75.7734Z" fill="white"/>
<path d="M110.592 19.4516H115.389C115.318 15.2272 111.855 12.3076 106.587 12.3076C101.4 12.3076 97.6001 15.1783 97.6272 19.4897C97.6164 22.9855 100.072 24.9918 104.072 25.9541L106.646 26.601C109.221 27.2263 110.652 27.9657 110.663 29.5641C110.652 31.3039 109.015 32.4837 106.473 32.4837C103.871 32.4837 102.001 31.2822 101.839 28.9063H97.0039C97.1285 34.0386 100.793 36.6918 106.527 36.6918C112.305 36.6918 115.698 33.9245 115.709 29.5804C115.698 25.6279 112.733 23.5293 108.619 22.605L106.495 22.0939C104.44 21.6209 102.717 20.8543 102.755 19.1526C102.755 17.6249 104.104 16.4994 106.554 16.4994C108.944 16.4994 110.408 17.5868 110.592 19.4516L110.592 19.4516Z" fill="white"/>
<path d="M127.19 36.3543C134.398 36.3543 138.762 31.8852 138.762 24.4693C138.762 17.0807 134.398 12.6279 127.26 12.6279H118.805V36.3542H127.19V36.3543ZM123.807 32.0592V16.9285H126.994C131.428 16.9285 133.775 19.1956 133.775 24.4693C133.775 29.7648 131.428 32.0592 126.984 32.0592H123.807Z" fill="white"/>
<path d="M163.002 20.9359C162.346 15.4555 158.211 12.3076 152.736 12.3076C146.492 12.3076 141.723 16.7332 141.723 24.4915C141.723 32.2282 146.411 36.6809 152.736 36.6809C158.801 36.6809 162.46 32.6359 163.002 28.2701L157.945 28.2484C157.474 30.782 155.484 32.2445 152.818 32.2445C149.23 32.2445 146.79 29.5641 146.79 24.4916C146.79 19.5549 149.192 16.7441 152.856 16.7441C155.593 16.7441 157.566 18.3316 157.945 20.9359H163.002V20.9359Z" fill="white"/>
</g>
<defs>
<clipPath id="clip0_1331_1912">
<rect width="163" height="49" fill="white"/>
</clipPath>
</defs>
</svg>
