<svg width="65" height="65" viewBox="0 0 65 65" fill="none" xmlns="http://www.w3.org/2000/svg">
<circle cx="32.5" cy="32.5" r="32.5" fill="#EE2F5E"/>
<path d="M44.4867 31.6577C43.4654 31.3889 42.265 31.2456 40.8317 31.2456C38.8429 31.2456 38.1083 31.7294 37.0871 32.4998C37.0333 32.5356 36.9796 32.5894 36.9258 32.6431L35.2237 34.4527C33.8083 35.9756 31.2104 35.9756 29.7771 34.4527L28.075 32.661C28.0212 32.5894 27.9675 32.5356 27.9137 32.4998C26.8746 31.7294 26.14 31.2456 24.1692 31.2456C22.7358 31.2456 21.5354 31.371 20.5142 31.6577C16.25 32.8044 16.25 36.1906 16.25 39.1648V40.831C16.25 45.3281 16.25 50.4164 25.8354 50.4164H39.1654C45.5258 50.4164 48.7508 47.1914 48.7508 40.831V39.1648C48.7508 36.1906 48.7508 32.8044 44.4867 31.6577Z" fill="white"/>
<path d="M37.4987 14.5835H27.5012C19.582 14.5835 19.582 18.7939 19.582 22.5027V29.1318C19.6537 29.096 19.7433 29.0781 19.8149 29.0602C21.0691 28.7197 22.4845 28.5585 24.1687 28.5585C26.9279 28.5585 28.2358 29.3647 29.5258 30.3502C29.7049 30.4756 29.8841 30.6368 30.0454 30.816L31.7295 32.5897C31.9087 32.7868 32.1954 32.8943 32.4999 32.8943C32.8045 32.8943 33.0912 32.7868 33.2524 32.6077L34.9724 30.7981C35.1158 30.6547 35.277 30.4935 35.4562 30.3681C36.782 29.3647 38.072 28.5585 40.8312 28.5585C42.5154 28.5585 43.9308 28.7197 45.1849 29.0602C45.2566 29.0781 45.3462 29.096 45.4179 29.1318V22.5027C45.4179 18.7939 45.4179 14.5835 37.4987 14.5835ZM35.277 26.2293H29.7229C29.042 26.2293 28.4687 25.656 28.4687 24.9752C28.4687 24.2764 29.042 23.721 29.7229 23.721H35.277C35.9579 23.721 36.5312 24.2764 36.5312 24.9752C36.5312 25.656 35.9579 26.2293 35.277 26.2293ZM36.6745 21.2306H28.3254C27.6445 21.2306 27.0891 20.6572 27.0891 19.9764C27.0891 19.2777 27.6445 18.7222 28.3254 18.7222H36.6745C37.3554 18.7222 37.9108 19.2777 37.9108 19.9764C37.9108 20.6572 37.3554 21.2306 36.6745 21.2306Z" fill="white"/>
</svg>
