<svg width="87" height="111" viewBox="0 0 87 111" fill="none" xmlns="http://www.w3.org/2000/svg">
<g clip-path="url(#clip0_1029_1249)">
<path d="M13.4437 35C13.4437 46.9219 20.2906 57.1922 30.2875 62.0112L16.1081 22.8266C14.4609 26.6306 13.4437 30.6906 13.4437 35ZM63.7891 33.4775C63.7891 29.8025 62.3934 27.1338 61.2516 25.235C59.7291 22.6975 58.3356 20.6697 58.3356 18.1344C58.3356 15.3453 60.4925 12.8078 63.4106 12.8078H63.7912C58.4625 7.86188 51.3619 4.94375 43.5 4.94375C38.5259 4.98779 33.638 6.24712 29.2619 8.61209C24.8857 10.9771 21.1541 14.376 18.3919 18.5128H20.295C23.4669 18.5128 28.2837 18.1322 28.2837 18.1322C29.9331 18.0053 30.06 20.4138 28.5375 20.6697C28.5375 20.6697 26.8881 20.9234 25.1141 20.9234L36.0209 53.3859L42.6141 33.7291L37.9219 20.9212L34.75 20.6719C33.1006 20.545 33.3544 18.1344 34.8769 18.1344C34.8769 18.1344 39.8206 18.515 42.7388 18.515C45.9106 18.515 50.7275 18.1344 50.7275 18.1344C52.3769 18.0075 52.5037 20.4159 50.9813 20.6719C50.9813 20.6719 49.3319 20.9256 47.5578 20.9256L58.4625 53.2656L61.525 43.2469C62.7938 39.0622 63.8066 36.1462 63.8066 33.4819L63.7891 33.4775ZM44.0075 37.6622L35.0037 63.7875C37.6659 64.5488 40.5819 65.0563 43.5 65.0563C47.0503 65.0563 50.3469 64.4 53.5187 63.4069C53.3919 63.28 53.3919 63.1531 53.265 63.0262L44.0075 37.6622ZM69.8769 20.6719L70.1306 23.7344C70.1306 26.7969 69.6231 30.2028 67.8491 34.5144L58.7184 61.0181C67.5953 55.8184 73.6809 46.1803 73.6809 35.0219C73.5541 29.8222 72.1584 25.0031 69.8747 20.6938L69.8769 20.6719ZM43.5 0C24.2237 0 8.5 15.7237 8.5 35C8.5 54.2762 24.2237 70 43.5 70C62.7762 70 78.5 54.2762 78.5 35C78.5 15.7237 62.7762 0 43.5 0ZM43.5 68.4775C25.1119 68.4775 10.1494 53.515 10.1494 35C10.1633 26.1591 13.6814 17.6843 19.9329 11.4329C26.1843 5.18143 34.6591 1.66326 43.5 1.64937C52.3409 1.66326 60.8157 5.18143 67.0671 11.4329C73.3186 17.6843 76.8367 26.1591 76.8506 35C76.8506 53.515 61.8881 68.4775 43.5 68.4775Z" fill="#00749A"/>
</g>
<path d="M4.96376 106L0.877758 93.508H2.56976L5.80976 103.696H5.32376L8.50976 93.508H9.73376L12.9198 103.696H12.4518L15.6918 93.508H17.3658L13.2978 106H12.0918L8.88776 95.83H9.35576L6.16976 106H4.96376ZM21.7434 106.18C20.9034 106.18 20.1474 105.982 19.4754 105.586C18.8034 105.19 18.2694 104.656 17.8734 103.984C17.4774 103.3 17.2794 102.538 17.2794 101.698C17.2794 100.87 17.4774 100.126 17.8734 99.466C18.2694 98.794 18.8034 98.26 19.4754 97.864C20.1474 97.468 20.9034 97.27 21.7434 97.27C22.5714 97.27 23.3214 97.468 23.9934 97.864C24.6774 98.248 25.2174 98.776 25.6134 99.448C26.0094 100.12 26.2074 100.87 26.2074 101.698C26.2074 102.538 26.0094 103.3 25.6134 103.984C25.2174 104.656 24.6774 105.19 23.9934 105.586C23.3214 105.982 22.5714 106.18 21.7434 106.18ZM21.7434 104.614C22.2834 104.614 22.7634 104.488 23.1834 104.236C23.6034 103.984 23.9334 103.642 24.1734 103.21C24.4134 102.766 24.5334 102.262 24.5334 101.698C24.5334 101.146 24.4074 100.654 24.1554 100.222C23.9154 99.79 23.5854 99.454 23.1654 99.214C22.7574 98.962 22.2834 98.836 21.7434 98.836C21.2034 98.836 20.7234 98.962 20.3034 99.214C19.8834 99.454 19.5534 99.79 19.3134 100.222C19.0734 100.654 18.9534 101.146 18.9534 101.698C18.9534 102.262 19.0734 102.766 19.3134 103.21C19.5534 103.642 19.8834 103.984 20.3034 104.236C20.7234 104.488 21.2034 104.614 21.7434 104.614ZM28.0327 106V97.45H29.6527V106H28.0327ZM29.6527 101.122L29.0407 100.852C29.0407 99.76 29.2927 98.89 29.7967 98.242C30.3007 97.594 31.0267 97.27 31.9747 97.27C32.4067 97.27 32.7967 97.348 33.1447 97.504C33.4927 97.648 33.8167 97.894 34.1167 98.242L33.0547 99.34C32.8747 99.148 32.6767 99.01 32.4607 98.926C32.2447 98.842 31.9927 98.8 31.7047 98.8C31.1047 98.8 30.6127 98.992 30.2287 99.376C29.8447 99.76 29.6527 100.342 29.6527 101.122ZM38.5941 106.18C37.8021 106.18 37.0941 105.988 36.4701 105.604C35.8461 105.208 35.3481 104.674 34.9761 104.002C34.6161 103.33 34.4361 102.574 34.4361 101.734C34.4361 100.894 34.6161 100.138 34.9761 99.466C35.3481 98.794 35.8461 98.26 36.4701 97.864C37.0941 97.468 37.8021 97.27 38.5941 97.27C39.2301 97.27 39.8061 97.408 40.3221 97.684C40.8381 97.948 41.2521 98.32 41.5641 98.8C41.8881 99.268 42.0681 99.814 42.1041 100.438V103.012C42.0681 103.624 41.8941 104.17 41.5821 104.65C41.2701 105.13 40.8561 105.508 40.3401 105.784C39.8241 106.048 39.2421 106.18 38.5941 106.18ZM38.8641 104.65C39.4041 104.65 39.8721 104.524 40.2681 104.272C40.6761 104.02 40.9941 103.678 41.2221 103.246C41.4501 102.802 41.5641 102.298 41.5641 101.734C41.5641 101.146 41.4441 100.636 41.2041 100.204C40.9761 99.772 40.6581 99.43 40.2501 99.178C39.8541 98.926 39.3861 98.8 38.8461 98.8C38.3061 98.8 37.8321 98.926 37.4241 99.178C37.0161 99.43 36.6921 99.778 36.4521 100.222C36.2241 100.654 36.1101 101.152 36.1101 101.716C36.1101 102.292 36.2241 102.802 36.4521 103.246C36.6921 103.678 37.0161 104.02 37.4241 104.272C37.8441 104.524 38.3241 104.65 38.8641 104.65ZM43.0941 106H41.4561V103.696L41.7621 101.608L41.4561 99.538V93.148H43.0941V106ZM49.9526 106.18C49.3046 106.18 48.7166 106.048 48.1886 105.784C47.6726 105.508 47.2586 105.13 46.9466 104.65C46.6346 104.17 46.4606 103.624 46.4246 103.012V100.438C46.4606 99.814 46.6346 99.268 46.9466 98.8C47.2706 98.32 47.6906 97.948 48.2066 97.684C48.7346 97.408 49.3166 97.27 49.9526 97.27C50.7326 97.27 51.4346 97.468 52.0586 97.864C52.6946 98.26 53.1926 98.794 53.5526 99.466C53.9126 100.138 54.0926 100.894 54.0926 101.734C54.0926 102.574 53.9126 103.33 53.5526 104.002C53.1926 104.674 52.6946 105.208 52.0586 105.604C51.4346 105.988 50.7326 106.18 49.9526 106.18ZM45.4526 109.582V97.45H47.0726V99.7L46.7666 101.77L47.0726 103.858V109.582H45.4526ZM49.6826 104.65C50.2226 104.65 50.6966 104.524 51.1046 104.272C51.5126 104.02 51.8366 103.678 52.0766 103.246C52.3166 102.802 52.4366 102.292 52.4366 101.716C52.4366 101.152 52.3166 100.648 52.0766 100.204C51.8366 99.76 51.5126 99.418 51.1046 99.178C50.6966 98.926 50.2286 98.8 49.7006 98.8C49.1606 98.8 48.6866 98.926 48.2786 99.178C47.8706 99.418 47.5526 99.76 47.3246 100.204C47.0966 100.648 46.9826 101.158 46.9826 101.734C46.9826 102.298 47.0906 102.802 47.3066 103.246C47.5346 103.678 47.8526 104.02 48.2606 104.272C48.6806 104.524 49.1546 104.65 49.6826 104.65ZM55.9292 106V97.45H57.5492V106H55.9292ZM57.5492 101.122L56.9372 100.852C56.9372 99.76 57.1892 98.89 57.6932 98.242C58.1972 97.594 58.9232 97.27 59.8712 97.27C60.3032 97.27 60.6932 97.348 61.0412 97.504C61.3892 97.648 61.7132 97.894 62.0132 98.242L60.9512 99.34C60.7712 99.148 60.5732 99.01 60.3572 98.926C60.1412 98.842 59.8892 98.8 59.6012 98.8C59.0012 98.8 58.5092 98.992 58.1252 99.376C57.7412 99.76 57.5492 100.342 57.5492 101.122ZM66.8326 106.18C65.9806 106.18 65.2126 105.988 64.5286 105.604C63.8446 105.208 63.3046 104.674 62.9086 104.002C62.5126 103.33 62.3146 102.568 62.3146 101.716C62.3146 100.876 62.5066 100.12 62.8906 99.448C63.2866 98.776 63.8146 98.248 64.4746 97.864C65.1466 97.468 65.8966 97.27 66.7246 97.27C67.5166 97.27 68.2126 97.45 68.8126 97.81C69.4246 98.17 69.8986 98.668 70.2346 99.304C70.5826 99.94 70.7566 100.66 70.7566 101.464C70.7566 101.584 70.7506 101.716 70.7386 101.86C70.7266 101.992 70.7026 102.148 70.6666 102.328H63.4486V100.978H69.8026L69.2086 101.5C69.2086 100.924 69.1066 100.438 68.9026 100.042C68.6986 99.634 68.4106 99.322 68.0386 99.106C67.6666 98.878 67.2166 98.764 66.6886 98.764C66.1366 98.764 65.6506 98.884 65.2306 99.124C64.8106 99.364 64.4866 99.7 64.2586 100.132C64.0306 100.564 63.9166 101.074 63.9166 101.662C63.9166 102.262 64.0366 102.79 64.2766 103.246C64.5166 103.69 64.8586 104.038 65.3026 104.29C65.7466 104.53 66.2566 104.65 66.8326 104.65C67.3126 104.65 67.7506 104.566 68.1466 104.398C68.5546 104.23 68.9026 103.978 69.1906 103.642L70.2346 104.704C69.8266 105.184 69.3226 105.55 68.7226 105.802C68.1346 106.054 67.5046 106.18 66.8326 106.18ZM75.241 106.18C74.761 106.18 74.305 106.12 73.873 106C73.453 105.868 73.063 105.688 72.703 105.46C72.343 105.22 72.031 104.938 71.767 104.614L72.811 103.57C73.123 103.954 73.483 104.242 73.891 104.434C74.299 104.614 74.755 104.704 75.259 104.704C75.763 104.704 76.153 104.62 76.429 104.452C76.705 104.272 76.843 104.026 76.843 103.714C76.843 103.402 76.729 103.162 76.501 102.994C76.285 102.814 76.003 102.67 75.655 102.562C75.307 102.442 74.935 102.328 74.539 102.22C74.155 102.1 73.789 101.95 73.441 101.77C73.093 101.59 72.805 101.344 72.577 101.032C72.361 100.72 72.253 100.306 72.253 99.79C72.253 99.274 72.379 98.83 72.631 98.458C72.883 98.074 73.231 97.78 73.675 97.576C74.131 97.372 74.677 97.27 75.313 97.27C75.985 97.27 76.579 97.39 77.095 97.63C77.623 97.858 78.055 98.206 78.391 98.674L77.347 99.718C77.107 99.406 76.807 99.166 76.447 98.998C76.099 98.83 75.703 98.746 75.259 98.746C74.791 98.746 74.431 98.83 74.179 98.998C73.939 99.154 73.819 99.376 73.819 99.664C73.819 99.952 73.927 100.174 74.143 100.33C74.359 100.486 74.641 100.618 74.989 100.726C75.349 100.834 75.721 100.948 76.105 101.068C76.489 101.176 76.855 101.326 77.203 101.518C77.551 101.71 77.833 101.968 78.049 102.292C78.277 102.616 78.391 103.042 78.391 103.57C78.391 104.374 78.103 105.01 77.527 105.478C76.963 105.946 76.201 106.18 75.241 106.18ZM82.9226 106.18C82.4426 106.18 81.9866 106.12 81.5546 106C81.1346 105.868 80.7446 105.688 80.3846 105.46C80.0246 105.22 79.7126 104.938 79.4486 104.614L80.4926 103.57C80.8046 103.954 81.1646 104.242 81.5726 104.434C81.9806 104.614 82.4366 104.704 82.9406 104.704C83.4446 104.704 83.8346 104.62 84.1106 104.452C84.3866 104.272 84.5246 104.026 84.5246 103.714C84.5246 103.402 84.4106 103.162 84.1826 102.994C83.9666 102.814 83.6846 102.67 83.3366 102.562C82.9886 102.442 82.6166 102.328 82.2206 102.22C81.8366 102.1 81.4706 101.95 81.1226 101.77C80.7746 101.59 80.4866 101.344 80.2586 101.032C80.0426 100.72 79.9346 100.306 79.9346 99.79C79.9346 99.274 80.0606 98.83 80.3126 98.458C80.5646 98.074 80.9126 97.78 81.3566 97.576C81.8126 97.372 82.3586 97.27 82.9946 97.27C83.6666 97.27 84.2606 97.39 84.7766 97.63C85.3046 97.858 85.7366 98.206 86.0726 98.674L85.0286 99.718C84.7886 99.406 84.4886 99.166 84.1286 98.998C83.7806 98.83 83.3846 98.746 82.9406 98.746C82.4726 98.746 82.1126 98.83 81.8606 98.998C81.6206 99.154 81.5006 99.376 81.5006 99.664C81.5006 99.952 81.6086 100.174 81.8246 100.33C82.0406 100.486 82.3226 100.618 82.6706 100.726C83.0306 100.834 83.4026 100.948 83.7866 101.068C84.1706 101.176 84.5366 101.326 84.8846 101.518C85.2326 101.71 85.5146 101.968 85.7306 102.292C85.9586 102.616 86.0726 103.042 86.0726 103.57C86.0726 104.374 85.7846 105.01 85.2086 105.478C84.6446 105.946 83.8826 106.18 82.9226 106.18Z" fill="black"/>
<defs>
<clipPath id="clip0_1029_1249">
<rect width="70" height="70" fill="white" transform="translate(8.5)"/>
</clipPath>
</defs>
</svg>
