<svg width="65" height="65" viewBox="0 0 65 65" fill="none" xmlns="http://www.w3.org/2000/svg">
<circle cx="32.5" cy="32.5" r="32.5" fill="#EE2F5E"/>
<path d="M44 14.6667H22C18.9567 14.6667 16.5 17.105 16.5 20.1117V40.1133C16.5 43.12 18.9567 45.5583 22 45.5583H23.3933C24.86 45.5583 26.2533 46.1267 27.28 47.1533L30.415 50.2517C31.845 51.6633 34.1733 51.6633 35.6033 50.2517L38.7383 47.1533C39.765 46.1267 41.1767 45.5583 42.625 45.5583H44C47.0433 45.5583 49.5 43.12 49.5 40.1133V20.1117C49.5 17.105 47.0433 14.6667 44 14.6667ZM30.03 34.8517C30.7817 34.8517 31.405 35.475 31.405 36.2267C31.405 36.9783 30.7817 37.6017 30.03 37.6017H25.1167C24.31 37.6017 23.5583 37.2167 23.0817 36.5567C22.6233 35.9333 22.5133 35.1633 22.7333 34.43C23.375 32.4683 24.9517 31.405 26.345 30.4517C27.8117 29.4617 28.6367 28.8383 28.6367 27.775C28.6367 26.8217 27.8667 26.0517 26.9133 26.0517C25.96 26.0517 25.2083 26.84 25.2083 27.7933C25.2083 28.545 24.585 29.1683 23.8333 29.1683C23.0817 29.1683 22.4583 28.545 22.4583 27.7933C22.4583 25.3367 24.4567 23.32 26.9317 23.32C29.4067 23.32 31.405 25.3183 31.405 27.7933C31.405 30.3783 29.4617 31.6983 27.9033 32.7617C26.9317 33.4217 26.015 34.045 25.5567 34.87H30.03V34.8517ZM42.1667 34.98H41.7817V36.245C41.7817 36.9967 41.1583 37.62 40.4067 37.62C39.655 37.62 39.0317 36.9967 39.0317 36.245V34.98H35.4383C35.4383 34.98 35.4383 34.98 35.42 34.98C34.5217 34.98 33.6967 34.5033 33.2383 33.7333C32.78 32.945 32.78 31.9733 33.2383 31.2033C34.485 29.0583 35.9333 26.62 37.2533 24.4933C37.84 23.5583 38.9583 23.1367 40.0033 23.43C41.0483 23.7417 41.7817 24.695 41.7633 25.795V32.2483H42.1667C42.9183 32.2483 43.5417 32.8717 43.5417 33.6233C43.5417 34.375 42.9183 34.98 42.1667 34.98Z" fill="white"/>
<path d="M39.0326 32.23V26.84C37.9509 28.6 36.8326 30.4883 35.8242 32.2117H39.0326V32.23Z" fill="white"/>
</svg>
