<svg width="65" height="65" viewBox="0 0 65 65" fill="none" xmlns="http://www.w3.org/2000/svg">
<circle cx="32.5" cy="32.5" r="32.5" fill="#EE2F5E"/>
<path d="M37.7492 15.4791V26.0499C37.7492 26.8383 36.8175 27.2324 36.2442 26.7128L33.1088 23.8283C32.7683 23.5058 32.2308 23.5058 31.8904 23.8283L28.755 26.6949C28.1817 27.2324 27.25 26.8203 27.25 26.0499V15.4791C27.25 14.9774 27.6442 14.5833 28.1458 14.5833H36.8533C37.355 14.5833 37.7492 14.9774 37.7492 15.4791Z" fill="white"/>
<path d="M41.4225 14.6909C40.9029 14.6193 40.4371 15.0672 40.4371 15.5868V26.3726C40.4371 27.7343 39.6308 28.9705 38.3767 29.5259C37.1225 30.0634 35.6712 29.8305 34.6679 28.8988L33.1092 27.4655C32.7687 27.143 32.2492 27.143 31.8908 27.4655L30.3321 28.8988C29.6871 29.508 28.845 29.8126 28.0029 29.8126C27.5371 29.8126 27.0712 29.723 26.6233 29.5259C25.3692 28.9705 24.5629 27.7343 24.5629 26.3726V15.5868C24.5629 15.0672 24.0971 14.6193 23.5775 14.6909C18.5608 15.318 16.375 18.7043 16.375 23.5418V41.4584C16.375 46.8334 19.0625 50.4167 25.3333 50.4167H39.6667C45.9375 50.4167 48.625 46.8334 48.625 41.4584V23.5418C48.625 18.7043 46.4392 15.318 41.4225 14.6909ZM42.3542 44.5938H27.125C26.3904 44.5938 25.7812 43.9847 25.7812 43.2501C25.7812 42.5155 26.3904 41.9063 27.125 41.9063H42.3542C43.0887 41.9063 43.6979 42.5155 43.6979 43.2501C43.6979 43.9847 43.0887 44.5938 42.3542 44.5938ZM42.3542 37.4272H34.7396C34.005 37.4272 33.3958 36.818 33.3958 36.0834C33.3958 35.3488 34.005 34.7397 34.7396 34.7397H42.3542C43.0887 34.7397 43.6979 35.3488 43.6979 36.0834C43.6979 36.818 43.0887 37.4272 42.3542 37.4272Z" fill="white"/>
</svg>
