<svg width="65" height="65" viewBox="0 0 65 65" fill="none" xmlns="http://www.w3.org/2000/svg">
<circle cx="32.5" cy="32.5" r="32.5" fill="#EE2F5E"/>
<path d="M33.0013 13.6667C22.8996 13.6667 14.668 21.8983 14.668 32C14.668 42.1017 22.8996 50.3333 33.0013 50.3333C43.103 50.3333 51.3346 42.1017 51.3346 32C51.3346 21.8983 43.103 13.6667 33.0013 13.6667ZM40.9763 38.545C40.7196 38.985 40.2613 39.2233 39.7846 39.2233C39.5463 39.2233 39.308 39.1683 39.088 39.0217L33.4046 35.63C31.993 34.7867 30.948 32.935 30.948 31.3033V23.7867C30.948 23.035 31.5713 22.4117 32.323 22.4117C33.0746 22.4117 33.698 23.035 33.698 23.7867V31.3033C33.698 31.9633 34.248 32.935 34.8163 33.265L40.4996 36.6567C41.1596 37.0417 41.3796 37.885 40.9763 38.545Z" fill="white"/>
</svg>
