<svg width="65" height="65" viewBox="0 0 65 65" fill="none" xmlns="http://www.w3.org/2000/svg">
<circle cx="32.5" cy="32.5" r="32.5" fill="#EE2F5E"/>
<path d="M40.0058 14.5833H24.9916C18.4699 14.5833 14.582 18.4712 14.582 24.9928V39.9891C14.582 46.5287 18.4699 50.4166 24.9916 50.4166H39.9879C46.5095 50.4166 50.3974 46.5287 50.3974 40.007V24.9928C50.4154 18.4712 46.5275 14.5833 40.0058 14.5833ZM40.3999 28.612C39.307 31.7295 36.3687 33.8258 33.072 33.8258C33.0541 33.8258 33.0541 33.8258 33.0362 33.8258L29.3454 33.8078C29.3454 33.8078 29.3454 33.8078 29.3274 33.8078C27.9658 33.8078 26.7833 34.7216 26.4249 36.0295C28.0195 36.5312 29.1841 38.0183 29.1841 39.7741C29.1841 41.942 27.4104 43.7158 25.2424 43.7158C23.0745 43.7158 21.3008 41.942 21.3008 39.7741C21.3008 38.1795 22.2683 36.7999 23.6299 36.1908V28.3791C22.2683 27.8416 21.3008 26.5158 21.3008 24.9749C21.3008 22.9503 22.9491 21.302 24.9737 21.302C26.9983 21.302 28.6466 22.9503 28.6466 24.9749C28.6466 26.5337 27.6791 27.8416 26.3174 28.3791V31.9983C27.1954 31.4428 28.2345 31.1203 29.3274 31.1203H29.3454L33.0362 31.1383C35.1504 31.2099 37.0316 29.8483 37.7841 27.8774C36.9062 27.1966 36.3329 26.1574 36.3329 24.9749C36.3329 22.9503 37.9812 21.302 40.0058 21.302C42.0304 21.302 43.6787 22.9503 43.6787 24.9749C43.6966 26.8741 42.2454 28.4149 40.3999 28.612Z" fill="white"/>
</svg>
