<svg width="65" height="65" viewBox="0 0 65 65" fill="none" xmlns="http://www.w3.org/2000/svg">
<circle cx="32.5" cy="32.5" r="32.5" fill="#EE2F5E"/>
<path d="M49.2452 26.2755C49.5738 26.8849 49.0946 27.5728 48.4023 27.5728H15.582C15.0297 27.5728 14.582 27.1251 14.582 26.5728V22.5024C14.582 18.1308 18.1295 14.5833 22.5012 14.5833H26.6579C29.5783 14.5833 30.492 15.5328 31.6566 17.0916L34.1649 20.4241C34.7204 21.1587 34.792 21.2483 35.8312 21.2483H40.8299C44.4652 21.2483 47.6305 23.2801 49.2452 26.2755Z" fill="white"/>
<path d="M49.3829 30.26C49.9339 30.26 50.381 30.7057 50.3829 31.2566L50.4154 40.8313C50.4154 46.1167 46.1154 50.4167 40.8299 50.4167H24.1674C18.882 50.4167 14.582 46.1167 14.582 40.8313V31.2605C14.582 30.7082 15.0297 30.2605 15.582 30.2605L49.3829 30.26Z" fill="white"/>
</svg>
