<svg width="64" height="64" viewBox="0 0 64 64" fill="none" xmlns="http://www.w3.org/2000/svg">
<circle cx="32" cy="32" r="32" fill="#EE2F5E"/>
<path d="M43.3346 32V40.5C43.3346 43.6309 40.7988 46.1667 37.668 46.1667H26.3346C23.2038 46.1667 20.668 43.6309 20.668 40.5V32C20.668 31.2209 21.3055 30.5834 22.0846 30.5834H24.8755C25.6546 30.5834 26.2921 31.2209 26.2921 32V36.4484C26.2921 37.4967 26.873 38.46 27.7938 38.9559C28.2046 39.1825 28.658 39.2959 29.1255 39.2959C29.6638 39.2959 30.2021 39.14 30.6696 38.8284L32.0155 37.95L33.2621 38.7859C34.1263 39.3667 35.2313 39.4375 36.1521 38.9417C37.0871 38.4459 37.668 37.4967 37.668 36.4342V32C37.668 31.2209 38.3055 30.5834 39.0846 30.5834H41.918C42.6971 30.5834 43.3346 31.2209 43.3346 32Z" fill="white"/>
<path d="M45.4596 24.9167V26.3334C45.4596 27.8917 44.7088 29.1667 42.6263 29.1667H21.3763C19.2088 29.1667 18.543 27.8917 18.543 26.3334V24.9167C18.543 23.3584 19.2088 22.0834 21.3763 22.0834H42.6263C44.7088 22.0834 45.4596 23.3584 45.4596 24.9167Z" fill="white"/>
<path d="M31.4873 22.0834H23.6673C23.1857 21.5592 23.1998 20.7517 23.7098 20.2417L25.7215 18.23C26.2457 17.7059 27.1098 17.7059 27.634 18.23L31.4873 22.0834Z" fill="white"/>
<path d="M40.32 22.0834H32.5L36.3533 18.23C36.8775 17.7059 37.7417 17.7059 38.2658 18.23L40.2775 20.2417C40.7875 20.7517 40.8017 21.5592 40.32 22.0834Z" fill="white"/>
<path d="M34.7938 30.5834C35.573 30.5834 36.2105 31.2209 36.2105 32V36.4342C36.2105 37.5675 34.9496 38.2475 34.0146 37.61L32.7396 36.76C32.2721 36.4484 31.663 36.4484 31.1813 36.76L29.8496 37.6384C28.9146 38.2617 27.668 37.5817 27.668 36.4625V32C27.668 31.2209 28.3055 30.5834 29.0846 30.5834H34.7938Z" fill="white"/>
</svg>
