<svg width="65" height="65" viewBox="0 0 65 65" fill="none" xmlns="http://www.w3.org/2000/svg">
<circle cx="32.5" cy="32.5" r="32.5" fill="#EE2F5E"/>
<path d="M26.0312 44.1278V25.9245C26.0312 25.2078 26.2462 24.5091 26.6404 23.9178L31.5317 16.6436C32.3021 15.4791 34.2192 14.6549 35.8496 15.2641C37.6054 15.8553 38.77 17.8261 38.3937 19.582L37.4621 25.4407C37.3904 25.9782 37.5337 26.462 37.8383 26.8382C38.1429 27.1786 38.5908 27.3936 39.0746 27.3936H46.4383C47.8538 27.3936 49.0721 27.967 49.7887 28.9703C50.4696 29.9378 50.595 31.192 50.1471 32.4641L45.7396 45.8836C45.1842 48.1053 42.7654 49.9149 40.3646 49.9149H33.3771C32.1767 49.9149 30.4925 49.5028 29.7221 48.7324L27.4287 46.9586C26.5508 46.2957 26.0312 45.2386 26.0312 44.1278Z" fill="white"/>
<path d="M20.3333 22.4309H18.4879C15.7108 22.4309 14.582 23.5059 14.582 26.1576V44.1817C14.582 46.8334 15.7108 47.9084 18.4879 47.9084H20.3333C23.1104 47.9084 24.2391 46.8334 24.2391 44.1817V26.1576C24.2391 23.5059 23.1104 22.4309 20.3333 22.4309Z" fill="white"/>
</svg>
