<svg width="65" height="65" viewBox="0 0 65 65" fill="none" xmlns="http://www.w3.org/2000/svg">
<circle cx="32.5" cy="32.5" r="32.5" fill="#EE2F5E"/>
<path d="M41.457 17.2708H23.5404C18.1654 17.2708 14.582 19.9583 14.582 26.2291V38.7708C14.582 45.0416 18.1654 47.7291 23.5404 47.7291H41.457C46.832 47.7291 50.4154 45.0416 50.4154 38.7708V26.2291C50.4154 19.9583 46.832 17.2708 41.457 17.2708ZM42.2991 28.182L36.6912 32.6612C35.5087 33.6108 34.0037 34.0766 32.4987 34.0766C30.9937 34.0766 29.4708 33.6108 28.3062 32.6612L22.6983 28.182C22.1249 27.7162 22.0354 26.8562 22.4833 26.2828C22.9491 25.7095 23.7912 25.602 24.3645 26.0678L29.9724 30.547C31.3341 31.6399 33.6454 31.6399 35.007 30.547L40.6149 26.0678C41.1883 25.602 42.0483 25.6916 42.4962 26.2828C42.962 26.8562 42.8724 27.7162 42.2991 28.182Z" fill="white"/>
</svg>
