<svg width="65" height="65" viewBox="0 0 65 65" fill="none" xmlns="http://www.w3.org/2000/svg">
<circle cx="32.5" cy="32.5" r="32.5" fill="#EE2F5E"/>
<path d="M24.2746 13.6667H20.7913C16.7763 13.6667 14.668 15.775 14.668 19.7717V23.255C14.668 27.2517 16.7763 29.36 20.773 29.36H24.2563C28.253 29.36 30.3613 27.2517 30.3613 23.255V19.7717C30.3796 15.775 28.2713 13.6667 24.2746 13.6667Z" fill="white"/>
<path d="M45.229 13.6667H41.7456C37.749 13.6667 35.6406 15.775 35.6406 19.7717V23.255C35.6406 27.2517 37.749 29.36 41.7456 29.36H45.229C49.2256 29.36 51.334 27.2517 51.334 23.255V19.7717C51.334 15.775 49.2256 13.6667 45.229 13.6667Z" fill="white"/>
<path d="M45.229 34.6216H41.7456C37.749 34.6216 35.6406 36.73 35.6406 40.7266V44.21C35.6406 48.2066 37.749 50.315 41.7456 50.315H45.229C49.2256 50.315 51.334 48.2066 51.334 44.21V40.7266C51.334 36.73 49.2256 34.6216 45.229 34.6216Z" fill="white"/>
<path d="M24.2746 34.6216H20.7913C16.7763 34.6216 14.668 36.73 14.668 40.7266V44.21C14.668 48.225 16.7763 50.3333 20.773 50.3333H24.2563C28.253 50.3333 30.3613 48.225 30.3613 44.2283V40.745C30.3796 36.73 28.2713 34.6216 24.2746 34.6216Z" fill="white"/>
</svg>
