<svg width="65" height="65" viewBox="0 0 65 65" fill="none" xmlns="http://www.w3.org/2000/svg">
<circle cx="32.5" cy="32.5" r="32.5" fill="#EE2F5E"/>
<path d="M49.2452 26.2755C49.5738 26.8849 49.0946 27.5728 48.4023 27.5728H15.582C15.0297 27.5728 14.582 27.1251 14.582 26.5728V22.5024C14.582 18.1308 18.1295 14.5833 22.5012 14.5833H26.6579C29.5783 14.5833 30.492 15.5328 31.6566 17.0916L34.1649 20.4241C34.7204 21.1587 34.792 21.2483 35.8312 21.2483H40.8299C44.4652 21.2483 47.6305 23.2801 49.2452 26.2755Z" fill="white"/>
<path d="M50.3829 31.2564C50.381 30.7054 49.9339 30.2598 49.3829 30.2598L15.582 30.2604C15.0297 30.2604 14.582 30.7081 14.582 31.2604V40.8312C14.582 46.1166 18.882 50.4166 24.1674 50.4166H40.8299C46.1154 50.4166 50.4154 46.1166 50.4154 40.8312L50.3829 31.2564ZM36.9779 41.0104H33.9499V44.1458C33.9499 44.8804 33.3408 45.4896 32.6062 45.4896C31.8537 45.4896 31.2624 44.8804 31.2624 44.1458V41.0104H28.0195C27.2849 41.0104 26.6758 40.4012 26.6758 39.6666C26.6758 38.9321 27.2849 38.3229 28.0195 38.3229H31.2624V35.1875C31.2624 34.4529 31.8537 33.8437 32.6062 33.8437C33.3408 33.8437 33.9499 34.4529 33.9499 35.1875V38.3229H36.9779C37.7124 38.3229 38.3216 38.9321 38.3216 39.6666C38.3216 40.4012 37.7124 41.0104 36.9779 41.0104Z" fill="white"/>
</svg>
