<svg width="65" height="65" viewBox="0 0 65 65" fill="none" xmlns="http://www.w3.org/2000/svg">
<rect width="65" height="65" rx="32.5" fill="#EE2F5E"/>
<path d="M30.575 36.925L27.8 39.7C27.215 40.285 26.285 40.285 25.685 39.715C25.52 39.55 25.355 39.4 25.19 39.235C23.645 37.675 22.25 36.04 21.005 34.33C19.775 32.62 18.785 30.91 18.065 29.215C17.36 27.505 17 25.87 17 24.31C17 23.29 17.18 22.315 17.54 21.415C17.9 20.5 18.47 19.66 19.265 18.91C20.225 17.965 21.275 17.5 22.385 17.5C22.805 17.5 23.225 17.59 23.6 17.77C23.99 17.95 24.335 18.22 24.605 18.61L28.085 23.515C28.355 23.89 28.55 24.235 28.685 24.565C28.82 24.88 28.895 25.195 28.895 25.48C28.895 25.84 28.79 26.2 28.58 26.545C28.385 26.89 28.1 27.25 27.74 27.61L26.6 28.795C26.435 28.96 26.36 29.155 26.36 29.395C26.36 29.515 26.375 29.62 26.405 29.74C26.45 29.86 26.495 29.95 26.525 30.04C26.795 30.535 27.26 31.18 27.92 31.96C28.595 32.74 29.315 33.535 30.095 34.33C30.245 34.48 30.41 34.63 30.56 34.78C31.16 35.365 31.175 36.325 30.575 36.925Z" fill="white"/>
<path d="M46.9549 41.9951C46.9549 42.4151 46.8799 42.8501 46.7299 43.2701C46.6849 43.3901 46.6399 43.5101 46.5799 43.6301C46.3249 44.1701 45.9949 44.6801 45.5599 45.1601C44.8249 45.9701 44.0149 46.5551 43.0999 46.9301C43.0849 46.9301 43.0699 46.9451 43.0549 46.9451C42.1699 47.3051 41.2099 47.5001 40.1749 47.5001C38.6449 47.5001 37.0099 47.1401 35.2849 46.4051C33.5599 45.6701 31.8349 44.6801 30.1249 43.4351C29.5399 43.0001 28.9549 42.5651 28.3999 42.1001L33.3049 37.1951C33.7249 37.5101 34.0999 37.7501 34.4149 37.9151C34.4899 37.9451 34.5799 37.9901 34.6849 38.0351C34.8049 38.0801 34.9249 38.0951 35.0599 38.0951C35.3149 38.0951 35.5099 38.0051 35.6749 37.8401L36.8149 36.7151C37.1899 36.3401 37.5499 36.0551 37.8949 35.8751C38.2399 35.6651 38.5849 35.5601 38.9599 35.5601C39.2449 35.5601 39.5449 35.6201 39.8749 35.7551C40.2049 35.8901 40.5499 36.0851 40.9249 36.3401L45.8899 39.8651C46.2799 40.1351 46.5499 40.4501 46.7149 40.8251C46.8649 41.2001 46.9549 41.5751 46.9549 41.9951Z" fill="white"/>
</svg>
