<svg width="65" height="65" viewBox="0 0 65 65" fill="none" xmlns="http://www.w3.org/2000/svg">
<rect width="65" height="65" rx="32.5" fill="#EE2F5E"/>
<path d="M34.285 23.5H24.685C24.295 23.5 23.92 23.515 23.56 23.56C19.525 23.905 17.5 26.29 17.5 30.685V36.685C17.5 42.685 19.9 43.87 24.685 43.87H25.285C25.615 43.87 26.05 44.095 26.245 44.35L28.045 46.75C28.84 47.815 30.13 47.815 30.925 46.75L32.725 44.35C32.95 44.05 33.31 43.87 33.685 43.87H34.285C38.68 43.87 41.065 41.86 41.41 37.81C41.455 37.45 41.47 37.075 41.47 36.685V30.685C41.47 25.9 39.07 23.5 34.285 23.5ZM24.25 35.5C23.41 35.5 22.75 34.825 22.75 34C22.75 33.175 23.425 32.5 24.25 32.5C25.075 32.5 25.75 33.175 25.75 34C25.75 34.825 25.075 35.5 24.25 35.5ZM29.485 35.5C28.645 35.5 27.985 34.825 27.985 34C27.985 33.175 28.66 32.5 29.485 32.5C30.31 32.5 30.985 33.175 30.985 34C30.985 34.825 30.325 35.5 29.485 35.5ZM34.735 35.5C33.895 35.5 33.235 34.825 33.235 34C33.235 33.175 33.91 32.5 34.735 32.5C35.56 32.5 36.235 33.175 36.235 34C36.235 34.825 35.56 35.5 34.735 35.5Z" fill="white"/>
<path d="M47.4699 24.685V30.685C47.4699 33.685 46.5399 35.725 44.6799 36.85C44.2299 37.12 43.7049 36.76 43.7049 36.235L43.7199 30.685C43.7199 24.685 40.2849 21.25 34.2849 21.25L25.1499 21.265C24.6249 21.265 24.2649 20.74 24.5349 20.29C25.6599 18.43 27.6999 17.5 30.6849 17.5H40.2849C45.0699 17.5 47.4699 19.9 47.4699 24.685Z" fill="white"/>
</svg>
