<svg width="65" height="65" viewBox="0 0 65 65" fill="none" xmlns="http://www.w3.org/2000/svg">
<circle cx="32.5" cy="32.5" r="32.5" fill="#EE2F5E"/>
<path d="M38.3849 17.625C33.9299 17.625 30.3149 21.24 30.3149 25.695C30.3149 30.15 33.9299 33.765 38.3849 33.765C42.8399 33.765 46.4549 30.15 46.4549 25.695C46.4549 21.24 42.8399 17.625 38.3849 17.625Z" fill="white"/>
<path d="M24.5399 34.5449C21.7949 34.5449 19.5449 36.7799 19.5449 39.5399C19.5449 42.2999 21.7799 44.5349 24.5399 44.5349C27.2849 44.5349 29.5349 42.2999 29.5349 39.5399C29.5349 36.7799 27.2849 34.5449 24.5399 34.5449Z" fill="white"/>
<path d="M39.9298 39.9299C37.6048 39.9299 35.7148 41.8199 35.7148 44.1449C35.7148 46.4699 37.6048 48.3599 39.9298 48.3599C42.2548 48.3599 44.1448 46.4699 44.1448 44.1449C44.1448 41.8199 42.2548 39.9299 39.9298 39.9299Z" fill="white"/>
</svg>
