<svg width="65" height="65" viewBox="0 0 65 65" fill="none" xmlns="http://www.w3.org/2000/svg">
<circle cx="32.5" cy="32.5" r="32.5" fill="#EE2F5E"/>
<path d="M45.15 28.8299C42.435 28.8299 41.325 26.9099 42.675 24.5549C43.455 23.1899 42.99 21.4499 41.625 20.6699L39.03 19.1849C37.845 18.4799 36.315 18.8999 35.61 20.0849L35.445 20.3699C34.095 22.7249 31.875 22.7249 30.51 20.3699L30.345 20.0849C29.67 18.8999 28.14 18.4799 26.955 19.1849L24.36 20.6699C22.995 21.4499 22.53 23.2049 23.31 24.5699C24.675 26.9099 23.565 28.8299 20.85 28.8299C19.29 28.8299 18 30.1049 18 31.6799V34.3199C18 35.8799 19.275 37.1699 20.85 37.1699C23.565 37.1699 24.675 39.0899 23.31 41.4449C22.53 42.8099 22.995 44.5499 24.36 45.3299L26.955 46.8149C28.14 47.5199 29.67 47.0999 30.375 45.9149L30.54 45.6299C31.89 43.2749 34.11 43.2749 35.475 45.6299L35.64 45.9149C36.345 47.0999 37.875 47.5199 39.06 46.8149L41.655 45.3299C43.02 44.5499 43.485 42.7949 42.705 41.4449C41.34 39.0899 42.45 37.1699 45.165 37.1699C46.725 37.1699 48.015 35.8949 48.015 34.3199V31.6799C48 30.1199 46.725 28.8299 45.15 28.8299ZM33 37.8749C30.315 37.8749 28.125 35.6849 28.125 32.9999C28.125 30.3149 30.315 28.1249 33 28.1249C35.685 28.1249 37.875 30.3149 37.875 32.9999C37.875 35.6849 35.685 37.8749 33 37.8749Z" fill="white"/>
</svg>
